<?xml version="1.0" encoding="utf-8"?>
<!-- Generator: Adobe Illustrator 16.0.0, SVG Export Plug-In . SVG Version: 6.00 Build 0)  -->
<!DOCTYPE svg PUBLIC "-//W3C//DTD SVG 1.1//EN" "http://www.w3.org/Graphics/SVG/1.1/DTD/svg11.dtd">
<svg version="1.1" id="Layer_1" xmlns="http://www.w3.org/2000/svg" xmlns:xlink="http://www.w3.org/1999/xlink" x="0px" y="0px"
	 width="100px" height="100px" viewBox="0 0 100 100" enable-background="new 0 0 100 100" xml:space="preserve">
<g>
	<path fill-rule="evenodd" clip-rule="evenodd" fill="#202020" d="M55.948,39.619c0-11.143,0-14.761,0-25.62
		c1.256,1.932,3.123,3.396,3.066,6.133c-0.147,7.233-0.167,7.238,0.115,14.465C59.23,37.147,57.948,38.223,55.948,39.619z"/>
	<path fill-rule="evenodd" clip-rule="evenodd" fill="#FFFFFF" d="M32.469,44.354c2.014,0,3.767-0.08,5.505,0.049
		c0.521,0.039,0.997,0.661,1.494,1.015c-0.479,0.326-0.943,0.907-1.438,0.933c-2.05,0.106-4.107,0.038-6.163,0.048
		c-1.012,0.005-1.452-0.496-1.447-1.483c0.01-2.055-0.062-4.114,0.048-6.163c0.025-0.483,0.633-0.936,0.973-1.402
		c0.343,0.464,0.949,0.91,0.981,1.395C32.541,40.531,32.469,42.33,32.469,44.354z"/>
	<path fill-rule="evenodd" clip-rule="evenodd" fill="#202020" d="M75.919,100C70.271,87.557,64.637,75.107,59.08,62.623
		c-1.745-3.922-4.387-7.565-4.49-11.917c1.616-2.048,3.762-1.455,5.741-1.479c3.52-0.042,7.041-0.07,10.559,0.019
		c1.424,0.036,1.881-0.47,1.778-1.834c-0.095-1.25-0.05-2.514-0.009-3.77c0.031-0.953-0.199-1.605-1.317-1.514
		c-0.795,0.064-1.089-0.314-1.038-1.076c0.057-0.831-0.433-1.827,0.852-2.244c0.195-0.063,0.281-0.709,0.282-1.086
		c0.017-6.587,0.021-8.044-0.009-14.631c-0.002-0.446-0.277-0.9-0.466-1.334c-0.194-0.445-0.572-0.853-0.628-1.306
		c-0.104-0.842-0.052-1.707-0.026-2.561c0.032-1.097-0.287-1.917-1.541-1.956c-1.313-0.041-1.749,0.749-1.726,1.939
		c0.018,0.898,0.004,1.798,0.004,2.697c-0.128,0.004-0.255,0.009-0.383,0.014c-0.563-0.601-1.691-0.295-1.691-0.295l-0.359,0.118
		c0,0,0.128-0.109,0.129,0.59c0.01,7.09,0.006,9.051,0.006,16.141c0,0.352-0.021,0.704-0.013,1.056
		c0.012,0.492,0.041,0.983,0.062,1.474c0.46-0.049,0.919-0.093,1.378-0.148c0.231-0.027,0.46-0.073,0.759-0.121
		c0,0.924,0,1.746,0,2.585c-0.297,0.059-0.49,0.131-0.684,0.131c-10.61,0.008-21.22,0.004-31.83,0.026
		c-0.864,0.002-1.14-0.327-1.114-1.157c0.102-3.398-0.511-2.5,2.443-4.046c0.298-0.156,0.596-0.309,0.926-0.48
		c0-9.163,0.01-18.263-0.029-27.363c-0.002-0.451-0.317-1.029-0.673-1.328c-1.749-1.472-3.226-3.029-2.666-5.588
		c0.031-0.142,0.007-0.303-0.018-0.45c-0.185-1.076-0.764-1.773-1.913-1.726c-1.073,0.044-1.612,0.722-1.687,1.764
		c-0.036,0.5-0.019,1.005-0.019,1.508c-0.001,12.414-0.003,24.828,0.003,37.241c0,0.887,0.097,1.716-1.254,1.686
		c-0.324-0.007-0.915,0.719-0.953,1.146c-0.123,1.397,0.012,2.815-0.066,4.219c-0.068,1.231,0.359,1.693,1.633,1.673
		c3.971-0.063,7.944,0.019,11.916-0.042c1.711-0.026,3.356-0.076,4.47,1.459c-0.111,0.959,0.005,1.996-0.363,2.815
		C38.09,68.994,31.085,84.497,24.081,100h2.599c6.817-15.093,13.635-30.187,20.445-45.283c0.508-1.126,1.08-1.92,2.461-1.085
		c0.245,0.147,0.727,0.107,1-0.035c1.237-0.645,1.789-0.039,2.268,1.032c2.667,5.961,5.369,11.905,8.058,17.857
		c4.143,9.171,8.285,18.342,12.425,27.514H75.919z M61.985,44.4c1.841-0.105,3.691-0.043,5.747-0.043
		c0-2.045-0.067-3.801,0.043-5.546c0.031-0.5,0.579-0.967,0.891-1.45c0.348,0.441,0.976,0.869,0.996,1.324
		c0.099,2.154,0.104,4.32-0.04,6.469c-0.029,0.441-0.824,1.155-1.3,1.185c-2.103,0.13-4.22,0.12-6.324,0.006
		c-0.462-0.025-0.89-0.677-1.333-1.041C61.104,44.988,61.529,44.426,61.985,44.4z M38.03,46.351
		c-2.05,0.106-4.107,0.038-6.163,0.048c-1.012,0.005-1.452-0.496-1.447-1.483c0.01-2.055-0.062-4.114,0.048-6.163
		c0.025-0.483,0.633-0.936,0.973-1.402c0.343,0.464,0.949,0.91,0.981,1.395c0.119,1.786,0.047,3.584,0.047,5.609
		c2.014,0,3.767-0.08,5.505,0.049c0.521,0.039,0.997,0.661,1.494,1.015C38.989,45.744,38.524,46.325,38.03,46.351z"/>
	<path fill-rule="evenodd" clip-rule="evenodd" fill="#202020" d="M51.43,39.619c0-11.143,0-15.968,0-26.827
		c1.256,1.932,3.123,3.396,3.066,6.133c-0.147,7.233-0.168,8.445,0.115,15.672C54.712,37.147,53.43,38.223,51.43,39.619z"/>
	<path fill-rule="evenodd" clip-rule="evenodd" fill="#202020" d="M46.911,39.619c0-11.143,0-16.873,0-27.732
		c1.256,1.932,3.123,3.396,3.066,6.133c-0.147,7.233-0.168,9.35,0.115,16.577C50.193,37.147,48.911,38.223,46.911,39.619z"/>
	<path fill-rule="evenodd" clip-rule="evenodd" fill="#202020" d="M42.393,39.619c0-11.143,0-18.381,0-29.24
		c1.256,1.932,3.123,3.396,3.066,6.133c-0.147,7.233-0.168,10.859,0.115,18.086C45.675,37.147,44.393,38.223,42.393,39.619z"/>
	<path fill-rule="evenodd" clip-rule="evenodd" fill="#202020" d="M37.874,39.619c0-11.143,0-20.192,0-31.051
		c1.256,1.933,3.123,3.396,3.066,6.133c-0.147,7.233-0.168,12.669,0.115,19.896C41.156,37.147,39.874,38.223,37.874,39.619z"/>
	<path fill-rule="evenodd" clip-rule="evenodd" fill="#202020" d="M60.466,39.619c0-11.143,0-12.347,0-23.206
		c1.257,1.932,3.124,3.396,3.067,6.133c-0.147,7.233-0.168,4.824,0.115,12.051C63.748,37.147,62.466,38.223,60.466,39.619z"/>
</g>
</svg>
