<?xml version="1.0" encoding="utf-8"?>
<!-- Generator: Adobe Illustrator 16.0.0, SVG Export Plug-In . SVG Version: 6.00 Build 0)  -->
<!DOCTYPE svg PUBLIC "-//W3C//DTD SVG 1.1//EN" "http://www.w3.org/Graphics/SVG/1.1/DTD/svg11.dtd">
<svg version="1.1" id="Layer_1" xmlns="http://www.w3.org/2000/svg" xmlns:xlink="http://www.w3.org/1999/xlink" x="0px" y="0px"
	 width="100px" height="100px" viewBox="0 0 100 100" enable-background="new 0 0 100 100" xml:space="preserve">
<path fill-rule="evenodd" clip-rule="evenodd" fill="#202020" d="M69.1,22.276c-4.611-4.412-9.221-8.825-13.832-13.237
	c-1.615-1.547-3.262-3.064-4.84-4.648c-0.553-0.556-0.894-0.481-1.403,0.016c-2.171,2.116-4.369,4.205-6.561,6.299
	c-3.86,3.689-7.723,7.376-11.583,11.066c-0.126,0.121-0.234,0.26-0.35,0.391c-1.482,2.079-3.614,1.548-5.119,1.507
	c1.274-1.443,2.645-3.222,4.242-4.766c6.41-6.196,12.899-12.31,19.33-18.485c0.585-0.562,0.882-0.556,1.456-0.005
	c6.952,6.675,13.93,13.324,20.903,19.978c1.094,1.043,2.193,2.081,3.248,3.241C72.68,23.485,70.52,24.477,69.1,22.276z"/>
<path fill-rule="evenodd" clip-rule="evenodd" fill="#202020" d="M50.494,71.93c3.608,0.719,5.745,2.775,6.305,6.066
	c0.596,3.512-1.619,7.044-5.047,8.046c-3.458,1.012-7.153-0.728-8.626-4.022c-1.877-4.199,0.675-9.382,5.786-10.088
	C49.439,71.931,49.966,71.931,50.494,71.93z"/>
<path fill-rule="evenodd" clip-rule="evenodd" fill="#202020" d="M38.34,78.236c2.012,2.947,2.332,6.209,1.764,9.626
	c-0.137,0.818-0.346,1.622-0.847,2.317c-0.716,0.992-1.66,1.017-2.373,0.021c-0.492-0.688-0.729-1.492-0.857-2.315
	c-0.535-3.416-0.324-6.696,1.832-9.604c0.062-0.082,0.078-0.197,0.115-0.298C38.096,78.068,38.218,78.152,38.34,78.236z"/>
<path fill-rule="evenodd" clip-rule="evenodd" fill="#202020" d="M61.277,87.253c2.023,3.023,2.404,6.342,1.748,9.84
	c-0.148,0.785-0.412,1.535-0.887,2.188c-0.705,0.97-1.57,0.956-2.279-0.025c-0.387-0.536-0.6-1.153-0.742-1.787
	c-0.795-3.554-0.498-6.942,1.561-10.056C60.863,87.309,61.008,87.049,61.277,87.253z"/>
<path fill-rule="evenodd" clip-rule="evenodd" fill="#202020" d="M50.494,71.949c-0.527,0.001-1.055,0.001-1.582,0.002
	c-0.012-5.623-0.022-11.246-0.034-16.87c0.03-0.052,0.046-0.109,0.045-0.17c0.533,0.004,1.065,0.009,1.598,0.013
	c0.002,0.265,0.005,0.529,0.007,0.794C50.516,61.129,50.505,66.539,50.494,71.949z"/>
<path fill-rule="evenodd" clip-rule="evenodd" fill="#202020" d="M61.277,87.47c-0.27-0.204-0.414,0.056-0.6,0.16
	c-0.006-10.41-0.012-20.821-0.02-31.231c0-0.468-0.006-0.937-0.01-1.404c0.227,0.01,0.453,0.021,0.68,0.031
	c-0.004,10.311-0.006,20.621-0.012,30.932C61.316,86.462,61.291,86.966,61.277,87.47z"/>
<path fill-rule="evenodd" clip-rule="evenodd" fill="#202020" d="M38.34,78.67c-0.122-0.084-0.244-0.168-0.366-0.253
	c-0.181-0.341-0.082-0.708-0.082-1.062c-0.009-7.428-0.01-14.854-0.013-22.281c0.152-0.101,0.309-0.104,0.467-0.014
	C38.344,62.931,38.342,70.8,38.34,78.67z"/>
<path fill-rule="evenodd" clip-rule="evenodd" fill="#202020" d="M55.453,10.558c-1.617-1.546-3.262-3.064-4.84-4.648
	c-0.554-0.556-0.895-0.482-1.404,0.016c-2.17,2.116-4.368,4.204-6.56,6.299c-3.86,3.69-7.724,7.376-11.584,11.066
	c-0.126,0.121-0.234,0.261-0.35,0.392c0.345,2.962,0.705,5.922,1.032,8.886c0.741,6.722,1.467,13.446,2.19,20.171
	c0.038,0.352,0.12,0.631,0.489,0.744c0.052-0.056,0.103-0.055,0.152,0.004c1.165-0.089,2.331-0.263,3.487,0.07
	c0.152-0.102,0.309-0.104,0.467-0.014c3.4-0.304,6.804-0.15,10.206-0.075c0.123-0.025,0.247-0.05,0.37-0.075
	c0.532,0.005,1.064,0.009,1.597,0.014c0.061,0.038,0.121,0.077,0.182,0.116c3.315-0.247,6.631-0.157,9.948-0.046
	c0.227,0.01,0.453,0.02,0.68,0.03c1.373-0.235,2.752-0.108,4.131-0.059c0.061-0.04,0.123-0.081,0.184-0.121
	c0.045-0.612,0.07-1.226,0.137-1.835c0.516-4.65,1.047-9.298,1.557-13.948c0.402-3.688,0.725-7.386,1.205-11.064
	c0.115-0.888-0.146-1.905,0.559-2.686C64.674,19.382,60.064,14.969,55.453,10.558z M59.348,25.031
	c0.555-0.237,1.061-0.588,1.627-0.911c0.723,0.383,0.951,1.106,1.297,1.754c0.289,0.543-0.096,0.693-0.438,0.895
	c-0.152,0.091-0.309,0.182-0.463,0.273c-1.512,0.9-1.469,0.873-2.398-0.556C58.506,25.77,58.539,25.377,59.348,25.031z
	 M49.348,18.101c2.083,0.043,1.716-0.163,1.751,1.768c-0.139,0.413,0.322,1.188-0.287,1.374c-0.688,0.21-1.491,0.07-2.24,0.024
	c-0.243-0.015-0.241-0.32-0.244-0.535c-0.006-0.54,0.042-1.085-0.019-1.619C48.217,18.286,48.564,18.084,49.348,18.101z
	 M35.799,33.263c-0.229-0.638-0.08-1.42-0.049-2.138c0.012-0.282,0.303-0.249,0.511-0.253c0.432-0.009,0.871,0.042,1.296-0.018
	c0.978-0.138,1.314,0.185,1.239,1.22c-0.104,1.431-0.021,1.437-1.607,1.435C36.773,33.377,35.999,33.822,35.799,33.263z
	 M40.464,39.105c-0.438,0.252-0.904,0.463-1.31,0.759c-0.646,0.47-1.118,0.396-1.439-0.345c-0.221-0.508-0.973-1.068-0.628-1.473
	c0.587-0.689,1.496-1.098,2.369-1.452c0.074-0.03,0.245,0.023,0.285,0.09c0.389,0.646,0.759,1.303,1.122,1.936
	C40.869,38.923,40.647,39,40.464,39.105z M39.702,27.715c-0.143,0.212-0.392,0.042-0.581-0.066
	c-0.406-0.233-0.797-0.503-1.227-0.683c-0.871-0.366-0.999-0.828-0.479-1.652c0.84-1.333,0.802-1.379,2.152-0.546
	c0.461,0.284,1.071,0.398,1.334,0.959C40.486,26.426,40.123,27.09,39.702,27.715z M44,44.748c-0.309,0.407-0.727-0.06-1.051-0.229
	c-1.494-0.781-1.488-0.791-0.673-2.178c0.817-1.391,0.817-1.391,2.297-0.552c0.785,0.445,0.785,0.445,0.782,0.67
	C44.921,43.211,44.537,44.037,44,44.748z M45.152,22.256c-1.428,1.324-2.034,1.258-2.955-0.397
	c-0.205-0.368-0.812-0.707-0.416-1.204c0.479-0.602,1.234-0.849,1.923-1.159c0.051-0.022,0.17,0.007,0.198,0.051
	c0.51,0.78,1.011,1.567,1.458,2.265C45.395,22.101,45.256,22.159,45.152,22.256z M50.497,46.28
	c-2.002,0.531-2.172,0.413-2.169-1.791c0.086-0.42-0.248-1.208,0.182-1.342c0.722-0.227,1.562-0.103,2.35-0.071
	c0.266,0.011,0.229,0.322,0.231,0.528c0.008,0.648-0.002,1.298,0.008,1.947C51.104,45.974,50.939,46.163,50.497,46.28z
	 M51.453,35.534c-0.184,0.769-1.203,0.691-1.876,0.67c-0.789-0.024-1.065-2.02-1.054-1.407c0.017,0.923-0.66-2.233-0.52-2.03
	c0.095,0.138-0.166-0.353-0.134-0.508c0.519-2.462-0.681-4.635-1.177-6.92c-0.405-1.866-0.959-3.699-1.445-5.547
	c-0.071-0.271-0.233-0.586,0.173-0.727c0.43-0.149,0.458,0.228,0.55,0.481c0.759,2.1,1.79,4.096,2.379,6.263
	c0.103,0.377,0.609,2.908,1.038,3.232c0.096-1.098-0.137-4.22-0.052-5.21c0.021-0.251,0.011-0.552,0.374-0.531
	c0.349,0.021,0.319,0.324,0.342,0.573c0.179,1.975,0.36,3.95,0.535,5.926c0.042,0.474,0.099,0.929,0.519,1.25
	c0.107,0.082,0.207,0.23,0.225,0.36C51.529,32.783,51.775,34.192,51.453,35.534z M56.668,44.433
	c-0.756,0.459-1.338,0.661-1.695-0.418c-0.109-0.331-0.336-0.633-0.551-0.918c-0.469-0.625-0.428-1.032,0.381-1.323
	c0.492-0.177,0.922-0.523,1.422-0.817c0.139,0.152,0.307,0.289,0.416,0.462c0.209,0.332,0.387,0.686,0.578,1.03
	C57.916,43.716,57.898,43.687,56.668,44.433z M56.314,23.309c-0.123,0.184-0.289,0.01-0.449-0.079
	c-1.936-1.072-1.943-1.071-0.764-3.082c0.176-0.301,0.256-0.878,0.816-0.584c0.676,0.354,1.445,0.607,1.908,1.374
	C57.314,21.747,56.832,22.54,56.314,23.309z M61.004,40.2c-0.369,0.018-2.43-1.35-2.414-1.602c0.021-0.35,1.203-2.021,1.42-2.008
	c0.453,0.026,2.369,1.37,2.359,1.656C62.354,38.699,61.316,40.186,61.004,40.2z M63.693,33.18c0,0.281-0.234,0.32-0.461,0.324
	c-0.25,0.004-0.502,0.005-0.754,0.005c-1.779,0.001-1.725-0.003-1.854-1.75c-0.061-0.814,0.207-1.003,0.922-0.896
	c0.211,0.032,0.43,0.005,0.73,0.005c0.395,0.085,1.145-0.264,1.313,0.192C63.824,31.693,63.693,32.466,63.693,33.18z"/>
</svg>
