<?xml version="1.0" encoding="utf-8"?>
<!-- Generator: Adobe Illustrator 16.0.0, SVG Export Plug-In . SVG Version: 6.00 Build 0)  -->
<!DOCTYPE svg PUBLIC "-//W3C//DTD SVG 1.1//EN" "http://www.w3.org/Graphics/SVG/1.1/DTD/svg11.dtd">
<svg version="1.1" id="Layer_1" xmlns="http://www.w3.org/2000/svg" xmlns:xlink="http://www.w3.org/1999/xlink" x="0px" y="0px"
	 width="100px" height="100px" viewBox="0 0 100 100" enable-background="new 0 0 100 100" xml:space="preserve">
<g>
	<path fill="#202020" d="M1.458,0.637c0,0,2.162,0.962,5.577,3.02c3.418,2.053,6.814,5.246,11.947,9.496
		c2.544,2.148,5.297,5.715,7.919,8.47c2.645,2.732,71.542,70.908,72.372,72.822c0.833,1.908-3.521,6.288-5.419,5.45
		c-1.901-0.834-69.684-70.131-72.401-72.792c-2.74-2.639-6.285-5.407-8.42-7.965c-4.226-5.164-7.4-8.579-9.441-12.018
		C1.546,3.686,0.589,1.511,0.589,1.511L0,0L1.458,0.637z"/>
	<path fill="#202020" d="M99.379,1.511c0,0-0.958,2.175-3.004,5.609c-2.039,3.438-5.214,6.854-9.439,12.018
		c-2.136,2.559-5.682,5.328-8.422,7.965c-2.717,2.661-70.5,71.958-72.401,72.792c-1.897,0.838-6.25-3.542-5.418-5.45
		C1.522,92.53,70.42,24.355,73.065,21.622c2.623-2.755,5.376-6.321,7.92-8.47c5.135-4.25,8.528-7.442,11.946-9.496
		c3.416-2.058,5.579-3.02,5.579-3.02L100,0.033L99.379,1.511z"/>
</g>
</svg>
