<?xml version="1.0" encoding="utf-8"?>
<!-- Generator: Adobe Illustrator 16.0.0, SVG Export Plug-In . SVG Version: 6.00 Build 0)  -->
<!DOCTYPE svg PUBLIC "-//W3C//DTD SVG 1.1//EN" "http://www.w3.org/Graphics/SVG/1.1/DTD/svg11.dtd">
<svg version="1.1" id="Layer_1" xmlns="http://www.w3.org/2000/svg" xmlns:xlink="http://www.w3.org/1999/xlink" x="0px" y="0px"
	 width="100px" height="100px" viewBox="0 0 100 100" enable-background="new 0 0 100 100" xml:space="preserve">
<g>
	<g>
		<path fill="#202020" d="M18.111,5.01c0,0,1.419,0.854,3.664,2.68c2.245,1.822,4.476,4.656,7.848,8.428
			c1.671,1.906,3.479,5.072,5.202,7.517c1.738,2.425,46.999,62.93,47.544,64.628c0.547,1.693-2.313,5.58-3.561,4.836
			c-1.247-0.739-45.777-62.238-47.562-64.601c-1.8-2.342-4.129-4.799-5.531-7.068c-2.776-4.583-4.862-7.613-6.202-10.666
			c-1.344-3.047-1.973-4.978-1.973-4.978l-0.387-1.341L18.111,5.01z"/>
		<path fill="#202020" d="M82.439,5.785c0,0-0.631,1.931-1.974,4.978c-1.34,3.052-3.425,6.083-6.201,10.666
			c-1.403,2.271-3.733,4.729-5.533,7.068c-1.784,2.362-46.313,63.861-47.562,64.601c-1.247,0.744-4.106-3.143-3.56-4.836
			c0.543-1.7,45.805-62.203,47.542-64.629c1.723-2.444,3.531-5.609,5.202-7.517c3.374-3.772,5.604-6.604,7.849-8.428
			c2.243-1.826,3.665-2.68,3.665-2.68l0.979-0.535L82.439,5.785z"/>
	</g>
	<g>
		<polygon fill="#202020" points="7.389,89.015 6.207,95.556 5.024,89.015 		"/>
		<g>
			<rect x="5.024" y="15.419" fill="#202020" width="2.365" height="72.413"/>
		</g>
		<g>
			<rect x="4.434" y="4.444" fill="#202020" width="3.547" height="9.792"/>
		</g>
		<ellipse fill="#202020" cx="6.207" cy="87.734" rx="6.207" ry="1.479"/>
	</g>
	<g>
		<polygon fill="#202020" points="94.976,89.015 93.793,95.556 92.611,89.015 		"/>
		<g>
			<rect x="92.611" y="15.419" fill="#202020" width="2.364" height="72.413"/>
		</g>
		<g>
			<rect x="92.02" y="4.444" fill="#202020" width="3.547" height="9.792"/>
		</g>
		<ellipse fill="#202020" cx="93.793" cy="87.734" rx="6.207" ry="1.479"/>
	</g>
</g>
</svg>
