<?xml version="1.0" encoding="utf-8"?>
<!-- Generator: Adobe Illustrator 16.0.0, SVG Export Plug-In . SVG Version: 6.00 Build 0)  -->
<!DOCTYPE svg PUBLIC "-//W3C//DTD SVG 1.1//EN" "http://www.w3.org/Graphics/SVG/1.1/DTD/svg11.dtd">
<svg version="1.1" id="Layer_1" xmlns="http://www.w3.org/2000/svg" xmlns:xlink="http://www.w3.org/1999/xlink" x="0px" y="0px"
	 width="100px" height="100px" viewBox="0 0 100 100" enable-background="new 0 0 100 100" xml:space="preserve">
<g>
	<path fill-rule="evenodd" clip-rule="evenodd" d="M100,0.406c0,33.198,0,66.395,0,99.594c-33.333,0-66.667,0-100,0
		C0,66.801,0,33.604,0,0.406c0.549-0.02,1.098-0.057,1.647-0.057C33.126,0.344,64.606,0.34,96.085,0.341
		C97.391,0.341,98.695,0.383,100,0.406z M49.972,18.458c-4.13,0-8.271-0.202-12.385,0.047c-5.956,0.36-11.94,0.75-17.823,1.68
		c-5.404,0.854-8.59,4.356-8.985,9.046c-0.4,4.755-0.792,9.528-0.812,14.295c-0.035,8.318,0.104,16.641,0.384,24.956
		c0.274,8.166,4.124,12.384,11.796,12.619c17.82,0.547,35.647,0.976,53.474,1.185c3.923,0.047,7.871-0.952,11.784-1.607
		c1.183-0.197,2.024-0.963,2.05-2.429c0.256-14.743,0.644-29.484,0.783-44.229c0.032-3.369-0.602-6.77-1.194-10.109
		c-0.471-2.655-2.321-3.911-5.074-4.251C72.673,18.265,61.341,17.872,49.972,18.458z M85.759,96.238
		c0.007-0.123,0.015-0.247,0.022-0.37c2.133,0,4.267-0.03,6.398,0.011c1.433,0.027,1.967-0.591,1.391-1.881
		c-0.636-1.423-1.519-2.739-2.117-4.175c-0.847-2.029-2.381-2.752-4.432-2.535c-3.472,0.367-6.941,0.771-10.4,1.242
		c-2.554,0.348-3.193,1.357-2.736,3.903c0.351,1.955,1.879,2.741,3.496,3.004C80.144,95.886,82.963,95.989,85.759,96.238z
		 M65.333,15.322c1.003-0.404,3.113-0.991,4.93-2.066c1.582-0.938,2.197-2.88,1.542-4.51c-0.354-0.883-1.943-1.639-3.066-1.792
		c-3.941-0.536-7.927-0.748-11.887-1.161c-1.694-0.177-3.118-0.109-3.942,1.716c-0.841,1.865-0.026,3.167,1.292,4.305
		C57.042,14.265,60.505,14.979,65.333,15.322z M19.008,87.188c-0.023-0.114-0.044-0.228-0.066-0.342
		c-3.025,0.46-6.085,0.768-9.063,1.437c-1.698,0.382-2.646,1.91-2.305,3.625c0.327,1.639,0.665,3.5,3.253,3.333
		c1.541-0.1,3.113,0.445,4.682,0.589c7.962,0.728,8.818,1.016,10.715-6.257c0.018-0.066,0.056-0.126,0.074-0.191
		c0.32-1.153,0.013-1.854-1.323-1.904C22.985,87.403,20.997,87.287,19.008,87.188z M86.296,5.215
		c-0.002,0.034-0.004,0.067-0.006,0.101c-1.647,0-3.313-0.149-4.938,0.041c-1.665,0.195-3.583,0.368-3.988,2.526
		c-0.415,2.214,0.103,4.212,1.985,5.645c3.031,2.306,6.343,2.58,9.892,1.304c3.68-1.324,3.713-4.729,4.463-7.679
		c0.1-0.39-0.748-1.417-1.253-1.489C90.419,5.374,88.351,5.343,86.296,5.215z M43.638,86.519c-0.019-0.116-0.039-0.233-0.058-0.35
		c-3.414,0.617-6.892,1.004-10.219,1.927c-2.603,0.722-2.865,2.774-0.907,4.654c2.399,2.302,5.334,3.6,8.604,3.949
		c5.103,0.546,7.302-1.497,7.321-6.534c0.01-2.582-0.697-3.371-3.301-3.64C44.602,86.478,44.118,86.519,43.638,86.519z
		 M48.635,14.687c-0.118-0.527-0.13-0.952-0.304-1.297c-0.766-1.517-1.547-3.028-2.381-4.509c-1.589-2.823-3.044-3.514-6.217-2.993
		c-3.305,0.542-6.606,1.104-9.908,1.658c-1.025,3.088,0.069,5.335,3.211,6.35C38.122,15.54,43.329,14.847,48.635,14.687z
		 M14.767,15.259c5.76,0.198,8.679-2.856,8.101-7.386c-0.18-1.408-0.843-2.208-2.191-2.195c-2.929,0.028-5.896-0.051-8.775,0.384
		C9.196,6.47,7.66,8.561,7.513,11.244c-0.075,1.362,0.276,2.671,1.855,3.021C11.44,14.723,13.542,15.038,14.767,15.259z
		 M63.179,95.972c0.126,0.012,0.536,0.062,0.946,0.093c3.053,0.23,4.266-0.58,4.794-3.201c0.468-2.325-0.798-4.481-3.304-5.119
		c-1.502-0.382-3.148-0.562-4.679-0.39c-2.676,0.302-5.435,0.943-6.933,3.41c-0.593,0.979-0.5,2.597-0.182,3.782
		c0.14,0.52,1.601,0.873,2.499,0.975C58.501,95.769,60.701,95.823,63.179,95.972z"/>
	<path fill-rule="evenodd" clip-rule="evenodd" fill="#FFFFFF" d="M100,0.406c-1.305-0.023-2.609-0.065-3.915-0.065
		c-31.479,0-62.958,0.003-94.438,0.008C1.098,0.349,0.549,0.386,0,0.406c0.275-0.137,0.551-0.393,0.827-0.393
		c32.782-0.018,65.565-0.018,98.347,0C99.449,0.013,99.725,0.269,100,0.406z"/>
	<path fill-rule="evenodd" clip-rule="evenodd" d="M49.138,67.777c0.198-4.503,1.076-8.37,3.836-11.585
		c3.842-4.475,9.375-4.325,13.008,0.313c2.263,2.887,3.436,6.125,3.505,9.814c0.046,2.436-0.813,4.408-2.533,6.011
		c-2.833,2.638-6.231,4.226-10.079,4.684c-4.149,0.494-6.347-1.122-7.208-5.178C49.356,70.378,49.275,68.873,49.138,67.777z
		 M64.678,64.359c-0.07-0.676-0.081-1.364-0.22-2.025c-0.579-2.752-2.46-4.568-4.737-4.629c-2.259-0.06-3.265,0.79-4.077,3.988
		c-0.662,2.605-1.091,5.273-1.51,7.933c-0.08,0.511,0.229,1.223,0.595,1.64c1.29,1.472,4.339,1.807,5.872,0.561
		C62.955,69.914,64.686,67.594,64.678,64.359z"/>
	<path fill-rule="evenodd" clip-rule="evenodd" d="M43.32,46.748c0.09-1.159,0.005-2.134,0.261-3.012
		c1.542-5.281,3.086-10.565,4.794-15.795c0.778-2.383,1.664-4.958,4.93-4.972c3.125-0.014,3.976,2.6,4.652,4.739
		c1.778,5.622,3.211,11.354,4.688,17.065c0.305,1.178-0.215,2.175-1.65,2.284c-1.586,0.12-1.226-1.101-1.314-1.977
		c-0.047-0.472,0.003-0.953-0.011-1.43c-0.088-2.96-0.68-3.522-3.71-3.52c-1.1,0.001-2.199,0.01-3.299,0.039
		c-2.239,0.059-3.847,0.868-4.796,3.114C47.138,45.004,46.263,46.998,43.32,46.748z M50.239,35.402
		c1.225,0.069,2.3,0.162,3.377,0.185c2.926,0.06,4.016-1.377,3.104-4.106c-0.364-1.091-0.695-2.222-1.271-3.204
		c-0.393-0.668-1.382-1.665-1.753-1.534c-0.811,0.285-1.769,1.086-2.006,1.872C51.031,30.801,50.709,33.087,50.239,35.402z"/>
	<path fill-rule="evenodd" clip-rule="evenodd" d="M37.233,37.954c-3.548,0.17-7.207,0.346-11.007,0.528
		c-0.197,2.619-0.414,5.505-0.637,8.477c-0.785,0-1.374,0-2.197,0c0-2.929,0-5.826,0-8.926c-0.854,0.125-1.522,0.344-2.163,0.283
		c-0.674-0.064-1.48-0.244-1.914-0.681c-0.208-0.208,0.2-1.204,0.539-1.702c0.283-0.417,0.848-0.839,1.329-0.894
		c1.928-0.215,2.188-1.563,2.241-3.042c0.074-2.044,0.101-4.091,0.098-6.137c-0.002-1.138,0.145-2.141,1.616-2.006
		c1.334,0.123,0.981,1.047,0.947,1.972c-0.101,2.769-0.036,5.543-0.036,8.331c3.839,0,7.568,0,11.579,0
		c0.178-3.422,0.366-7.029,0.563-10.838c1.546-0.683,2.16-0.384,2.177,1.5c0.052,5.661,0.08,11.322,0.116,16.982
		c0.002,0.34,0.11,0.751-0.041,1.009c-0.414,0.71-0.938,1.356-1.419,2.027c-0.511-0.559-1.363-1.061-1.469-1.688
		C37.276,41.515,37.324,39.824,37.233,37.954z"/>
	<path fill-rule="evenodd" clip-rule="evenodd" d="M50.295,56.311c-2.448,0.21-4.828,0.406-7.206,0.623
		c-1.228,0.111-2.465,0.187-3.675,0.402c-2.771,0.492-4.142,3.066-2.957,5.564c0.731,1.541,2.205,1.352,3.582,1.32
		c1.565-0.035,3.138-0.151,4.693-0.038c1.234,0.092,1.942,0.847,1.917,2.204c-0.026,1.461-1.119,1.396-2.03,1.419
		c-2.534,0.062-5.069,0.021-7.878,0.021c0,2.598-0.007,5.096,0.003,7.594c0.004,1.108-0.1,2.048-1.606,2.045
		c-1.292-0.002-1.951-0.587-1.979-1.815c-0.121-5.172-0.31-10.345-0.278-15.516c0.025-3.996,1.114-5.949,7.052-6.788
		c2.505-0.354,5.065-0.366,7.603-0.442C50.076,52.827,50.399,53.229,50.295,56.311z"/>
	<path fill-rule="evenodd" clip-rule="evenodd" d="M82.232,26.263c-3.383,0.263-6.658,0.511-9.933,0.773
		c-3.029,0.242-4.536,2.043-4.117,4.908c0.192,1.313,0.879,2.145,2.306,2.112c1.649-0.039,3.298-0.197,4.946-0.184
		c2.661,0.021,3.345,0.903,2.82,3.865c-3.113,0-6.291,0-9.621,0c0,2.825,0.076,5.468-0.063,8.101
		c-0.028,0.538-1.036,1.539-1.299,1.452c-0.759-0.251-1.926-0.923-1.95-1.473c-0.25-5.581-0.426-11.172-0.361-16.757
		c0.035-2.933,1.586-4.761,4.576-5.237c3.642-0.58,7.361-0.738,11.056-0.902C82.176,22.849,82.383,23.412,82.232,26.263z"/>
</g>
</svg>
