<?xml version="1.0" encoding="utf-8"?>
<!-- Generator: Adobe Illustrator 16.0.0, SVG Export Plug-In . SVG Version: 6.00 Build 0)  -->
<!DOCTYPE svg PUBLIC "-//W3C//DTD SVG 1.1//EN" "http://www.w3.org/Graphics/SVG/1.1/DTD/svg11.dtd">
<svg version="1.1" id="Layer_1" xmlns="http://www.w3.org/2000/svg" xmlns:xlink="http://www.w3.org/1999/xlink" x="0px" y="0px"
	 width="40px" height="40px" viewBox="0 0 40 40" enable-background="new 0 0 40 40" xml:space="preserve">
<g>
	<path fill-rule="evenodd" clip-rule="evenodd" d="M7.17,13.68c-0.07-0.01-0.13-0.01-0.22-0.02c0.07,0.21,0.13,0.39,0.18,0.57
		c0.02,0,0.04,0,0.07,0c0.02-0.09,0.04-0.19,0.07-0.29c0.07,0.13,0.14,0.26,0.23,0.44c0.17-0.08,0.35-0.16,0.52-0.24
		c0.81-0.39,1.6-0.83,2.43-1.18c2.4-1.03,4.94-1.61,7.44-2.33c0.39-0.11,0.77-0.27,1.15-0.42c0.66-0.27,1.34-0.18,2.01-0.13
		c1.6,0.11,3.19,0.29,4.79,0.41c1.13,0.08,2.27,0.03,3.39,0.18c1.58,0.21,3.16,0.41,4.7,0.91c0.72,0.23,1.49,0.27,2.24,0.4
		c1.18,0.2,2.34,0.44,3.36,1.12c0.44,0.29,0.58,1.14,0.36,1.64c-0.37,0.84-1.06,0.84-1.79,0.79c-0.45-0.03-0.9-0.05-1.35-0.09
		c-0.64-0.06-1.29-0.06-1.9-0.24c-1.4-0.41-2.82-0.32-4.24-0.36c-0.15,0-0.29,0-0.44,0c0,0.04-0.01,0.08-0.01,0.12
		c0.36,0.11,0.72,0.21,1.07,0.33c0.51,0.17,0.96,0.42,1.17,0.99c0.17,0.46,0.01,1.31-0.34,1.67c-0.63,0.65-1.39,0.81-2.24,0.68
		c-0.17,0.35-0.3,0.74-0.53,1.04c-0.29,0.39-0.65,0.73-1,1.07c-0.18,0.17-0.27,0.28-0.1,0.54c0.43,0.63,0.22,1.3-0.02,1.91
		c-0.32,0.79-0.82,1.47-1.57,1.9c-0.11,0.06-0.22,0.32-0.18,0.42c0.34,0.78,0.14,1.47-0.32,2.09c-0.39,0.52-0.8,1.03-1.25,1.5
		c-0.17,0.18-0.46,0.3-0.71,0.34c-1.01,0.18-2.03,0.28-3.03,0.49c-1.1,0.22-2.17,0.02-3.26-0.09c-0.79-0.08-1.59-0.09-2.39-0.1
		c-1.28-0.01-2.54-0.22-3.76-0.6c-0.95-0.3-1.87-0.71-2.81-1.07c-0.1-0.04-0.19-0.07-0.26-0.09c-0.22,0.36-0.39,0.72-0.62,1.03
		c-0.3,0.39-0.75,0.53-1.22,0.5c-0.44-0.03-0.87-0.18-1.3-0.18c-0.44,0-0.64-0.28-0.89-0.56c-0.56-0.62-1.14-1.22-1.69-1.84
		c-0.21-0.24-0.39-0.52-0.59-0.78c-0.11-0.14-0.23-0.26-0.34-0.4c-0.04,0.03-0.07,0.06-0.11,0.09c0.45,0.62,0.89,1.25,1.34,1.87
		c-0.02,0.02-0.04,0.04-0.06,0.06c-0.34-0.38-0.67-0.77-1.01-1.16c-0.03,0.02-0.06,0.05-0.09,0.07c0.31,0.47,0.63,0.93,0.94,1.4
		c-0.01,0.01-0.02,0.02-0.03,0.04C2.8,27.89,2.63,27.7,2.46,27.5c-0.02,0.01-0.03,0.03-0.05,0.04c0.34,0.51,0.68,1.02,1.05,1.57
		c-0.36,0-0.68-0.02-0.99,0.01c-0.22,0.02-0.32-0.06-0.36-0.27c-0.16-0.71-0.33-1.42-0.5-2.12c-0.01-0.05-0.04-0.1-0.12-0.14
		c0,0.35,0,0.71,0,1.06c-0.04,0.01-0.07,0.03-0.11,0.04c-0.09-0.19-0.22-0.37-0.26-0.57c-0.23-1.17-0.45-2.34-0.65-3.52
		c-0.18-1.04-0.39-2.09-0.45-3.14c-0.06-0.99,0.04-2,0.12-3c0.08-0.92,0.25-1.83,0.33-2.75c0.07-0.81,0.1-1.63,0.36-2.41
		c0.06-0.19,0.13-0.41,0.26-0.55c0.11-0.11,0.35-0.2,0.49-0.15c0.67,0.21,1.34,0.43,1.97,0.73c0.69,0.32,1.4,0.28,2.11,0.33
		c0.27,0.02,0.58,0.04,0.79,0.19C6.75,13.04,7.14,13.2,7.17,13.68z M12.52,23.23c0.12-0.16,0.24-0.33,0.36-0.49
		c-0.03-0.03-0.05-0.06-0.08-0.09c-0.42,0.33-0.85,0.67-1.27,1c0.02,0.03,0.04,0.06,0.07,0.09c0.26-0.13,0.53-0.25,0.79-0.38
		c-0.07,0.03-0.15,0.06-0.22,0.09c0.04,0.05,0.09,0.11,0.13,0.16c0.53-0.23,1.02-0.51,1.33-1.09c-0.13,0.03-0.25,0.09-0.35,0.17
		C13.03,22.87,12.77,23.05,12.52,23.23z M17.35,27.84c0.73-1.36,0.79-1.57,0.56-1.96c-0.16,0.33-0.31,0.63-0.46,0.94
		c0.1-0.36,0.18-0.72,0.3-1.07c0.08-0.22,0.13-0.42,0.04-0.66c-0.04-0.1,0.04-0.26,0.08-0.38c0.02-0.07,0.06-0.13,0.09-0.19
		c-0.02-0.02-0.03-0.03-0.05-0.05c-0.18,0.1-0.37,0.19-0.55,0.29c-0.02-0.02-0.03-0.04-0.04-0.07c0.19-0.19,0.39-0.38,0.58-0.57
		c-0.03-0.03-0.05-0.06-0.08-0.09c-0.32,0.22-0.63,0.44-0.95,0.65c-0.01-0.02-0.03-0.04-0.04-0.06c0.24-0.2,0.48-0.4,0.73-0.61
		c-0.02-0.04-0.04-0.08-0.06-0.12c-0.18,0.06-0.36,0.11-0.63,0.2c0.25-0.19,0.41-0.32,0.58-0.45c-0.01-0.02-0.03-0.05-0.04-0.07
		c-0.14,0.05-0.27,0.1-0.43,0.17c0.06-0.1,0.1-0.17,0.16-0.27c-0.09,0-0.13,0-0.22,0c0.15-0.13,0.26-0.23,0.37-0.33
		c-0.02-0.03-0.03-0.05-0.05-0.08c-0.36,0.17-0.72,0.34-1.07,0.51c-0.01-0.02-0.02-0.04-0.03-0.06c0.27-0.19,0.54-0.38,0.82-0.57
		c-0.01-0.02-0.02-0.05-0.04-0.07c-0.27,0.12-0.55,0.25-0.86,0.38c0.06-0.13,0.09-0.21,0.16-0.38c-0.8,0.41-1.42,0.9-1.91,1.58
		c-0.04-0.04-0.07-0.09-0.11-0.13c0.52-0.52,1.05-1.04,1.57-1.56c-0.67,0.36-1.32,0.75-1.71,1.46c-0.05,0.09-0.18,0.13-0.27,0.2
		c-0.02-0.03-0.05-0.06-0.07-0.09c0.44-0.47,0.88-0.94,1.31-1.4c-0.01-0.02-0.03-0.03-0.04-0.05c-0.25,0.17-0.5,0.34-0.75,0.51
		l-0.02-0.02c0.02-0.07,0.04-0.13,0.05-0.2c-0.02-0.02-0.04-0.05-0.07-0.07c-0.18,0.17-0.35,0.35-0.53,0.52
		c-0.18,0.17-0.39,0.31-0.56,0.49c-0.16,0.17-0.29,0.38-0.44,0.57c-0.03-0.03-0.07-0.07-0.1-0.1c0.25-0.28,0.49-0.56,0.74-0.85
		c-0.03-0.03-0.06-0.07-0.09-0.1c-0.65,0.47-1.13,1.17-1.8,1.62c0.43-0.48,0.85-0.95,1.28-1.43c-0.02-0.02-0.04-0.04-0.06-0.07
		c-0.33,0.25-0.66,0.51-0.99,0.76c-0.02-0.03-0.04-0.05-0.05-0.08c0.11-0.09,0.22-0.17,0.31-0.27c0.09-0.09,0.16-0.19,0.23-0.29
		c-0.02-0.02-0.04-0.04-0.06-0.07c-0.23,0.16-0.47,0.33-0.75,0.53c0.02-0.17,0.02-0.23,0.02-0.23c-0.35-0.05-0.66-0.09-1.04-0.14
		c0.47-0.4,0.89-0.75,1.33-1.12c-0.26-0.13-0.41-0.11-0.57,0.07c-0.19,0.21-0.43,0.36-0.65,0.54c-0.01-0.01-0.02-0.02-0.03-0.03
		c0.25-0.23,0.5-0.46,0.76-0.69c-0.04-0.05-0.09-0.1-0.13-0.16c-0.31,0.25-0.62,0.5-0.93,0.75c-0.04-0.04-0.07-0.08-0.11-0.12
		c0.17-0.08,0.34-0.16,0.51-0.24c-0.04-0.04-0.07-0.09-0.11-0.14c-0.3,0.12-0.61,0.24-0.91,0.36c0.04-0.1,0.1-0.24,0.16-0.37
		c0.02,0.03,0.03,0.05,0.04,0.08c-0.45,0.42-0.91,0.83-1.39,1.27c0.51-0.24,0.99-0.46,1.46-0.68c0.02,0.03,0.03,0.06,0.05,0.09
		c-0.75,0.64-1.92,0.71-2.37,1.89c0.41-0.34,0.75-0.63,1.1-0.92c0.02,0.03,0.04,0.05,0.06,0.08c-0.26,0.26-0.51,0.52-0.77,0.78
		c0.02,0.02,0.04,0.05,0.07,0.07c0.15-0.09,0.29-0.18,0.44-0.27c0.02,0.03,0.04,0.06,0.05,0.08c-0.16,0.19-0.32,0.38-0.48,0.57
		c0.02,0.02,0.05,0.04,0.07,0.07c0.26-0.17,0.52-0.35,0.67-0.45c-0.18,0.18-0.45,0.44-0.71,0.7c0.04,0.05,0.08,0.1,0.13,0.15
		c0.14-0.04,0.27-0.09,0.42-0.13c-0.04,0.1-0.07,0.18-0.12,0.31c0.18-0.06,0.29-0.1,0.42-0.15c-0.05,0.1-0.09,0.19-0.13,0.27
		c0.02,0.03,0.04,0.06,0.06,0.09c0.32-0.16,0.63-0.32,0.95-0.48c0.01,0.02,0.03,0.04,0.04,0.06c-0.28,0.21-0.55,0.42-0.83,0.62
		c0.02,0.04,0.04,0.08,0.06,0.12c0.37-0.16,0.73-0.32,1.1-0.49c0,0.01,0.01,0.03,0.01,0.04c-0.24,0.17-0.49,0.35-0.73,0.52
		c0.02,0.04,0.03,0.08,0.05,0.11c0.34-0.13,0.68-0.25,1.02-0.38c0.01,0.02,0.02,0.04,0.02,0.05c-0.34,0.2-0.69,0.39-1.03,0.59
		c0.01,0.02,0.02,0.04,0.03,0.06c0.42-0.14,0.84-0.29,1.27-0.43c-0.3,0.34-0.84,0.18-1.11,0.63c1.38-0.15,2.42-0.9,3.35-1.87
		c-0.76,1.02-1.77,1.66-2.89,2.15c1.06-0.23,1.98-0.77,2.81-1.5c0.03,0.05,0.05,0.1,0.08,0.16c-0.79,0.52-1.58,1.04-2.44,1.61
		c1.43-0.47,2.57-1.34,3.66-2.27c-0.85,1.05-1.93,1.74-3.08,2.34c1.02-0.25,1.83-0.95,2.75-1.42c-0.45,0.58-1.04,0.97-1.65,1.34
		c0.96-0.19,1.62-0.89,2.31-1.56c0.02,0.03,0.04,0.07,0.06,0.1c-0.47,0.46-0.93,0.92-1.4,1.37c0.02,0.02,0.03,0.04,0.04,0.06
		c0.46-0.32,0.93-0.64,1.39-0.96c0.02,0.03,0.04,0.06,0.06,0.09c-0.56,0.48-1.13,0.96-1.69,1.44c0.79-0.16,1.25-0.93,2.01-1.18
		c-0.51,0.49-1.02,0.97-1.53,1.46c0.85-0.4,1.46-1.15,2.24-1.67c-0.23,0.29-0.48,0.56-0.75,0.82c-0.26,0.26-0.53,0.5-0.8,0.75
		c0.02,0.03,0.05,0.06,0.07,0.09c0.42-0.31,0.85-0.63,1.27-0.94c0.02,0.02,0.03,0.05,0.05,0.07c-0.2,0.19-0.4,0.38-0.6,0.57
		c0.02,0.03,0.03,0.05,0.05,0.08c0.34-0.24,0.68-0.47,1.02-0.71c0.01,0.02,0.02,0.04,0.03,0.05c-0.3,0.29-0.59,0.58-0.89,0.87
		c0.09,0.02,0.14,0.01,0.19-0.02c0.08-0.05,0.16-0.1,0.24-0.15c0.72-0.44,1.25-1.08,1.72-1.78c-0.18,0.3-0.34,0.63-0.55,0.9
		c-0.29,0.38-0.63,0.72-0.94,1.08c0.16-0.06,0.3-0.16,0.44-0.24c0.24-0.14,0.48-0.28,0.72-0.42c-0.02,0.07-0.04,0.14-0.06,0.24
		c0.11-0.04,0.2-0.05,0.28-0.09c0.61-0.36,0.83-1.02,1.14-1.61c0.06-0.11-0.05-0.31-0.07-0.47c-0.04,0-0.08,0-0.12,0
		c-0.04,0.11-0.07,0.22-0.12,0.32C17.76,27.18,17.55,27.51,17.35,27.84z M8.09,14.81c0.07-0.18,0.14-0.36,0.22-0.54
		c-0.04-0.02-0.08-0.04-0.12-0.06c-0.34,0.6-0.7,1.18-1.02,1.8c-0.3,0.59-0.57,1.19-0.83,1.8c-0.09,0.2-0.13,0.43-0.2,0.64
		c0.11,0.02,0.15,0,0.17-0.02c0.39-0.85,0.75-1.72,1.16-2.56c0.18-0.37,0.43-0.71,0.64-1.06c-0.19,0.44-0.37,0.89-0.57,1.33
		c-0.38,0.84-0.79,1.67-1.17,2.52c-0.11,0.24-0.14,0.52-0.21,0.78c0.02,0,0.03,0,0.05,0c0.89-1.85,1.78-3.71,2.67-5.55
		C8.62,14.18,8.36,14.5,8.09,14.81z M18.66,28.18c0.01-0.28,0.42-0.48,0.19-0.86c-0.3,0.2-0.24,0.71-0.66,0.75
		c0.08-0.37,0.44-0.63,0.3-1.08c-0.43,1.01-1.08,1.82-2.01,2.36c0.03,0.03,0.05,0.06,0.08,0.1c0.37-0.24,0.74-0.48,1.12-0.72
		c0.02,0.02,0.04,0.04,0.06,0.07c-0.23,0.2-0.47,0.4-0.71,0.61c0.02,0.03,0.04,0.06,0.05,0.09c0.19-0.12,0.4-0.22,0.57-0.37
		c0.32-0.28,0.63-0.59,0.94-0.88c-0.17,0.28-0.35,0.56-0.57,0.92c0.71-0.37,1.35-1.13,1.14-1.66
		C18.99,27.73,18.82,27.96,18.66,28.18z M9.58,13.78C9.57,13.6,9.5,13.59,9.4,13.72c-0.27,0.34-0.6,0.64-0.79,1.01
		c-0.61,1.21-1.17,2.45-1.74,3.69C6.66,18.9,6.5,19.4,6.32,19.89c0.03,0.02,0.07,0.03,0.1,0.05c0.07-0.12,0.16-0.23,0.22-0.36
		c0.37-0.8,0.73-1.6,1.1-2.4c0.32-0.68,0.68-1.35,0.98-2.04c0.22-0.52,0.47-1,0.88-1.38c-0.31,0.63-0.63,1.26-0.94,1.89
		C7.95,17.1,7.26,18.54,6.57,20c-0.06,0.12-0.01,0.29-0.01,0.43c0.03,0,0.07,0.01,0.1,0.02c-0.08,0.18-0.16,0.36-0.25,0.54
		c0.03,0.02,0.06,0.04,0.09,0.06c0.36-0.51,0.77-0.99,1.05-1.54c0.57-1.12,1.07-2.28,1.61-3.41c0.31-0.66,0.63-1.32,0.97-1.97
		c0.19-0.36,0.44-0.68,0.7-1.07c-0.19,0.1-0.31,0.16-0.44,0.23c-0.19,0.09-0.39,0.18-0.57,0.29C9.74,13.61,9.66,13.7,9.58,13.78z
		 M4.5,27.29c0.12,0.1,0.24,0.19,0.36,0.29c0.03-0.02,0.06-0.04,0.09-0.07c-0.09-0.2-0.18-0.39-0.26-0.57
		c0.05-0.1,0.15-0.2,0.15-0.28c-0.04-0.38-0.06-0.78-0.17-1.14c-0.12-0.37-0.34-0.7-0.52-1.04c0.09,0.07,0.18,0.13,0.26,0.2
		c0.03-0.01,0.05-0.03,0.08-0.04c-0.05-0.16-0.06-0.35-0.15-0.49c-0.28-0.42-0.59-0.81-0.88-1.22c-0.48-0.68-0.95-1.37-1.43-2.05
		C2,20.82,1.92,20.8,1.78,20.73c0.05,0.2,0.05,0.33,0.11,0.42c0.42,0.66,0.85,1.32,1.28,1.98c0.18,0.28,0.36,0.55,0.55,0.83
		c-0.63-0.78-1.26-1.55-1.89-2.33c-0.03,0.01-0.05,0.02-0.08,0.04c0.14,0.29,0.24,0.62,0.43,0.87c0.72,1,1.47,1.98,2.21,2.97
		c0.06,0.08,0.13,0.16,0.19,0.24c-0.04,0.04-0.09,0.07-0.13,0.1c-0.88-1.15-1.75-2.29-2.63-3.44c-0.03,0.02-0.06,0.04-0.09,0.06
		c0.41,1.06,1.15,1.91,1.78,2.83c-0.03,0.02-0.05,0.04-0.08,0.06c-0.53-0.7-1.06-1.4-1.58-2.1c-0.03,0.02-0.06,0.04-0.09,0.05
		c0.04,0.13,0.05,0.29,0.12,0.39c0.57,0.8,1.15,1.6,1.73,2.39c0.3,0.4,0.61,0.8,0.91,1.2c-0.23-0.24-0.48-0.46-0.69-0.72
		c-0.39-0.47-0.78-0.94-1.15-1.43c-0.28-0.36-0.54-0.74-0.81-1.12c-0.04,0.02-0.07,0.04-0.11,0.07c0.23,0.46,0.46,0.92,0.68,1.38
		C2.42,25.5,2.41,25.5,2.4,25.51c-0.16-0.23-0.33-0.45-0.52-0.71c-0.12,0.65,2.7,4.05,3.35,4.07c-0.3-0.37-0.58-0.73-0.87-1.08
		c0.02-0.02,0.05-0.04,0.07-0.07c0.19,0.22,0.38,0.45,0.57,0.67c0.01-0.16-0.03-0.28-0.09-0.39C4.78,27.76,4.64,27.53,4.5,27.29z
		 M22.7,21.03c0.42-0.03,0.28-0.47,0.54-0.7c-0.25-0.07-0.43-0.12-0.58-0.16c0.17-0.06,0.36-0.14,0.6-0.23
		c-0.03,0.34-0.07,0.73-0.1,1.09c0.46-0.28,0.91-0.54,1.36-0.81c-0.14,0.14-0.27,0.28-0.42,0.4c-0.18,0.15-0.38,0.28-0.58,0.42
		c0.02,0.04,0.04,0.07,0.06,0.11c0.28-0.14,0.56-0.28,0.84-0.42c-0.01,0.09-0.06,0.13-0.11,0.17c-0.38,0.28-0.71,0.59-1.26,0.49
		c-0.44-0.08-0.91-0.02-1.36-0.02c0,0.03,0,0.07,0,0.1c0.19,0,0.38-0.03,0.56,0c0.48,0.08,0.96,0.2,1.44,0.28
		c0.43,0.07,0.86,0.16,1.28,0.14c0.35-0.02,0.69-0.18,1.03-0.29c1.23-0.41,2.43-0.9,3.21-2.08c0.13-0.19,0.23-0.47,0.2-0.68
		c-0.02-0.13-0.3-0.24-0.47-0.33c-0.12-0.06-0.27-0.06-0.41-0.08c-0.49-0.06-1-0.04-1.43-0.38c-0.09-0.07-0.25-0.05-0.38-0.07
		c0,0.02-0.01,0.03-0.01,0.05c0.13,0.09,0.27,0.18,0.46,0.3c-0.52-0.07-0.95-0.49-1.44-0.15c0.05,0.08,0.09,0.14,0.13,0.2
		c-0.27-0.04-0.51-0.08-0.75-0.12c-0.01,0.04-0.01,0.08-0.02,0.11c0.22,0.09,0.45,0.18,0.67,0.28c-0.01,0.02-0.01,0.03-0.02,0.05
		c-0.23-0.05-0.45-0.1-0.68-0.15c0,0.03-0.01,0.05-0.01,0.08c0.2,0.13,0.39,0.25,0.59,0.38c-0.01,0.02-0.02,0.03-0.02,0.04
		c-0.17-0.04-0.33-0.09-0.5-0.13c-0.03,0.03-0.06,0.06-0.1,0.09c0.52,0.18,0.6,0.55,0.48,0.97c-0.18,0.09-0.36,0.17-0.57,0.28
		c0.13-0.16,0.23-0.29,0.37-0.47c-0.18,0.02-0.28,0.03-0.38,0.03c0.01-0.11,0.03-0.22,0.04-0.31c-0.33,0.25-0.63,0.47-0.93,0.69
		c-0.02-0.02-0.03-0.05-0.05-0.07c0.26-0.21,0.53-0.42,0.79-0.63c-0.02-0.04-0.04-0.08-0.05-0.12c-0.25,0.12-0.49,0.24-0.73,0.37
		c-0.01-0.02-0.01-0.05-0.02-0.07c0.24-0.15,0.47-0.29,0.71-0.44c0-0.04-0.01-0.08-0.01-0.12c-0.25-0.07-0.49-0.13-0.74-0.2
		c-0.05-0.04-0.11-0.13-0.19-0.15c-0.34-0.1-0.69-0.19-1.03-0.26c-0.63-0.12-1.26-0.05-1.82,0.28c-0.22,0.13-0.37,0.37-0.55,0.57
		c-0.44,0.47-0.49,1.49,0.01,1.66c-0.05-0.25-0.15-0.54-0.15-0.82c0-0.27,0.11-0.54,0.17-0.8c0.08-0.07,0.17-0.14,0.31-0.26
		c-0.19,0.44-0.44,0.8-0.32,1.26c0.33-0.78,0.47-1.73,1.58-1.72c-0.08,0.13-0.15,0.25-0.21,0.35c0.4,0.09,0.77,0.18,1.17,0.28
		c-0.17,0.43-0.44,0.26-0.59,0.15c-0.32-0.25-0.64-0.23-0.96-0.13c-0.12,0.15-0.27,0.25-0.42,0.35c-0.04,0.02-0.09,0.03-0.13,0.04
		c0.03,0.04,0.04,0.11,0.08,0.13c0.1,0.05,0.22,0.08,0.33,0.12c0,0.02-0.01,0.05-0.02,0.07c-0.18-0.01-0.36-0.03-0.54-0.04
		c-0.01,0.04-0.02,0.08-0.02,0.13c0.18,0.05,0.35,0.09,0.53,0.14c-0.06,0.07-0.11,0.06-0.16,0.08c-0.1,0.04-0.2,0.09-0.3,0.14
		c0.08,0.09,0.14,0.24,0.23,0.25c0.46,0.09,0.93,0.15,1.39,0.22c0.01-0.05,0.01-0.1,0.02-0.16c-0.47-0.07-0.95-0.13-1.42-0.2
		c0-0.02,0.01-0.05,0.01-0.07c0.6,0.07,1.2,0.14,1.81,0.21C22.73,20.87,22.72,20.95,22.7,21.03c-0.55,0.01-1.12,0.01-1.76,0.01
		c0.19,0.05,0.29,0.09,0.4,0.11C21.81,21.2,22.27,21.31,22.7,21.03z M22.62,27.35c0.05-0.16,0.09-0.31,0.16-0.55
		c-0.13,0.12-0.2,0.18-0.28,0.25c-0.02-0.02-0.04-0.04-0.06-0.06c0.23-0.4,0.46-0.81,0.69-1.21c-0.02-0.02-0.05-0.04-0.07-0.06
		c-0.14,0.13-0.28,0.25-0.41,0.37c0.02-0.18,0.05-0.36,0.08-0.58c-0.26,0.13-0.46,0.22-0.65,0.31c-0.03-0.08-0.06-0.16-0.1-0.29
		c-0.12,0.17-0.21,0.28-0.33,0.46c0-0.15,0-0.24,0-0.33c-0.08,0.03-0.14,0.06-0.21,0.09c0.04-0.13,0.07-0.23,0.12-0.38
		c-0.43,0.23-0.43,0.23-0.33,0.6c0.12,0.46-0.03,0.92-0.35,1.17c-0.12,0.09-0.22,0.23-0.38,0.4c-0.37-0.15-0.79-0.32-1.21-0.49
		c0,0.1,0.07,0.13,0.13,0.17c0.59,0.33,1.18,0.64,1.86,0.66c0.26,0.01,0.54,0.01,0.78-0.08c0.22-0.08,0.39-0.29,0.58-0.45
		c-0.08,0.15-0.17,0.29-0.23,0.44c-0.02,0.05,0.04,0.21,0.07,0.21c0.6,0.02,1.12,0.49,1.76,0.34c0.09-0.02,0.21,0.09,0.35,0.17
		c0.15-0.12,0.34-0.28,0.54-0.43c0.02,0.03,0.05,0.06,0.07,0.09c-0.31,0.26-0.62,0.52-0.92,0.77c0.39,0.02,1.12-0.68,1.21-1.18
		c-0.08,0.02-0.15,0.04-0.31,0.07c0.22-0.29,0.38-0.52,0.57-0.71c0.51-0.55,0.59-1.06,0.24-1.74c-0.05,0.01-0.11,0.01-0.16,0.03
		c-0.64,0.19-1.27,0.42-1.95,0.35c-0.18-0.01-0.43-0.03-0.53,0.08c-0.22,0.25-0.44,0.52-0.46,0.91
		C22.87,26.94,22.71,27.15,22.62,27.35z M3.08,21.46c0.34,0.43,0.68,0.85,1.02,1.28c0.03-0.02,0.07-0.04,0.1-0.06
		c-0.25-0.5-0.51-0.99-0.76-1.49c0.01-0.01,0.03-0.02,0.04-0.02c0.13,0.17,0.27,0.33,0.4,0.5c0.03-0.02,0.06-0.03,0.09-0.05
		C3.92,21.41,3.9,21.19,3.81,21c-0.18-0.37-0.4-0.71-0.6-1.07c-0.14-0.25-0.28-0.5-0.42-0.75l-0.01,0.01
		c0.1,0.11,0.2,0.21,0.29,0.34c0.2,0.3,0.39,0.6,0.63,0.99c0.1-0.85-0.51-1.28-0.65-1.91c0.18,0.27,0.35,0.53,0.57,0.86
		c0.16-0.53-0.24-0.79-0.33-1.21c0.14,0.16,0.24,0.26,0.33,0.37c0.22-0.46-0.14-0.98,0.19-1.41c0.06,0.11,0.06,0.23,0.06,0.34
		c0.01,0.86-0.05,1.73,0.06,2.58c0.18,1.47,0.47,2.93,0.72,4.39c0.18,1.09,0.4,2.17,0.56,3.27c0.09,0.64,0.6,0.92,0.94,1.35
		c0.02,0.02,0.08,0,0.19,0c-0.25-0.28-0.46-0.51-0.65-0.75c-0.08-0.1-0.16-0.22-0.17-0.34c-0.06-0.84-0.09-1.67-0.15-2.51
		c-0.08-1.03-0.19-2.07-0.28-3.1c-0.14-1.47-0.47-2.9-0.6-4.38c-0.16-1.85,0.26-3.45,1.25-4.98c-0.72,0.39-1.43,0.84-2.26,0.21
		c0,0.04-0.01,0.07-0.01,0.11c0.09,0.13,0.19,0.27,0.28,0.4c-0.02,0.01-0.04,0.03-0.05,0.04c-0.41-0.33-0.82-0.66-1.23-1
		c0.02-0.05,0.03-0.1,0.05-0.14c0.8,0.32,1.57,1,2.56,0.26c-0.31-0.08-0.54-0.14-0.78-0.21c0.01,0.09,0.02,0.14,0.03,0.21
		c-0.73,0.09-1.23-0.51-1.88-0.69c-0.07-0.27-0.45-0.45-0.83-0.38c-0.2,0.04-0.3,0.14-0.35,0.34c-0.23,1.12-0.44,2.24-0.24,3.38
		c0.06,0.34-0.18,0.55-0.16,0.84c0.09,0.92,0.21,1.83,0.27,2.76c0.12,1.61,0.2,3.22,0.3,4.83c0.01,0.13,0.05,0.25,0.07,0.37
		c0.02,0,0.04-0.01,0.06-0.01c0.06-1.52,0.12-3.05,0.18-4.52c0.73,1.31,1.43,2.68,2.58,3.75c-0.04-0.25-0.12-0.48-0.24-0.68
		C3.74,22.45,3.41,21.96,3.08,21.46L3.08,21.46z M8.24,23.59c-0.22,0.28-0.44,0.56-0.71,0.91c0.7-0.31,1.63-1.4,1.77-2.05
		c-0.14,0.16-0.24,0.28-0.34,0.39c-0.24,0.26-0.48,0.51-0.73,0.77c0.34-0.49,0.68-0.98,1.02-1.47c0.02-0.03,0.05-0.05,0.08-0.07
		c0.42-0.4,0.87-0.79,1.27-1.21c0.26-0.28,0.47-0.61,0.71-0.92c-0.37,0.95-1.08,1.62-1.75,2.33c0.31-0.15,0.59-0.34,0.82-0.57
		c0.18-0.18,0.31-0.41,0.46-0.62c0.15-0.21,0.31-0.42,0.46-0.63c0.05,0.05,0.1,0.1,0.14,0.14c-0.48,0.59-0.95,1.18-1.43,1.78
		c0.04,0.01,0.1,0.04,0.16,0.05c0.92,0.14,1.84,0.13,2.75-0.11c0.73-0.19,1.45-0.47,1.88-1.19c0.45-0.74,0.88-1.49,1.31-2.23
		c0.05-0.08,0.06-0.18,0.1-0.27c0.03-0.07,0.06-0.15,0.09-0.22c0.03,0.02,0.05,0.03,0.08,0.04c-0.55,1.43-1.26,2.75-2.39,3.8
		c0.04,0.03,0.08,0.07,0.11,0.1c0.51-0.54,1.02-1.08,1.55-1.65c-0.61,1.21-1.72,1.87-2.58,2.79c0.3-0.12,0.58-0.28,0.83-0.48
		c0.24-0.2,0.44-0.46,0.67-0.68c0.22-0.22,0.44-0.43,0.67-0.64c0.02,0.03,0.05,0.05,0.07,0.07c-0.13,0.15-0.25,0.3-0.38,0.45
		c0.03,0.03,0.06,0.07,0.09,0.1c0.16-0.16,0.33-0.31,0.51-0.5c0,0.12,0,0.2,0,0.29c0.03,0.02,0.06,0.05,0.09,0.07
		c0.39-0.46,0.78-0.92,1.17-1.38c0.02,0.01,0.03,0.02,0.05,0.03c-0.29,0.4-0.57,0.8-0.88,1.24c0.33-0.04,0.52-0.44,0.86-0.34
		c0.02,0.01,0.06-0.04,0.08-0.07c0.23-0.35,0.45-0.71,0.68-1.06c0.09-0.13,0.2-0.23,0.31-0.35c0.03,0.03,0.06,0.06,0.09,0.09
		c-0.29,0.41-0.59,0.83-0.9,1.26c0.62-0.04,0.68-0.71,1.09-0.99c-0.1,0.17-0.21,0.34-0.33,0.54c0.41-0.06,1.11-1.27,1.04-1.79
		c-0.15,0.14-0.4,0.35-0.36,0.45c0.14,0.36-0.17,0.35-0.28,0.49c0.03-0.23,0.06-0.45,0.1-0.68c0.16-0.23,0.31-0.46,0.47-0.68
		c0.2-0.16,0.4-0.32,0.59-0.47c0.03,0.11,0.06,0.21,0.08,0.32c0.05-0.02,0.09-0.03,0.14-0.05c-0.08-0.23-0.15-0.45-0.25-0.75
		c0.09-0.05,0.25-0.15,0.48-0.27c-0.17-0.1-0.31-0.2-0.45-0.25c-0.29-0.1-0.59-0.18-0.89-0.27c0.01-0.03,0.02-0.06,0.03-0.09
		c0.74,0.2,1.48,0.4,2.22,0.6c0.01-0.03,0.02-0.06,0.02-0.09c-0.06-0.03-0.12-0.06-0.18-0.09c-0.52-0.24-1.04-0.47-1.54-0.75
		c-0.17-0.1-0.29-0.33-0.4-0.51c-0.03-0.05,0.05-0.17,0.07-0.22c0.07,0.17,0.09,0.36,0.18,0.42c0.48,0.3,0.96,0.59,1.46,0.83
		c0.53,0.26,1.1,0.3,1.69,0.13c-0.4-0.29-0.91-0.23-1.32-0.42c-0.42-0.2-0.82-0.46-1.23-0.69c0.42,0.06,0.81,0.16,1.17,0.33
		c0.22,0.1,0.32,0.05,0.42-0.14c0.05-0.09,0.11-0.17,0.17-0.26c0.02,0.02,0.05,0.04,0.07,0.07c-0.06,0.18-0.13,0.36-0.19,0.54
		c0.03,0.02,0.05,0.04,0.08,0.06c0.13-0.13,0.26-0.25,0.45-0.44c-0.13,0.24-0.21,0.4-0.29,0.56c0.24,0,0.51,0.08,0.66-0.02
		c0.2-0.13,0.31-0.41,0.46-0.62c0.02,0.01,0.04,0.02,0.05,0.03c-0.09,0.24-0.18,0.47-0.26,0.71c0.02,0.02,0.05,0.03,0.07,0.05
		c0.19-0.23,0.38-0.46,0.58-0.7c0.01,0.01,0.02,0.02,0.04,0.03c-0.1,0.22-0.2,0.44-0.3,0.65c0.03,0.02,0.06,0.04,0.09,0.06
		c0.22-0.28,0.43-0.57,0.65-0.85c0.01,0.01,0.02,0.02,0.04,0.02c-0.1,0.24-0.2,0.48-0.31,0.72c0.04,0.02,0.08,0.04,0.11,0.07
		c0.24-0.3,0.48-0.6,0.72-0.91c0.02,0.01,0.04,0.02,0.06,0.04c-0.11,0.22-0.22,0.44-0.33,0.67c0.02,0.02,0.04,0.03,0.06,0.05
		c0.09-0.07,0.19-0.14,0.28-0.21c0.01,0.09,0.02,0.17,0.03,0.24c0.07-0.02,0.16-0.02,0.21-0.07c0.14-0.14,0.26-0.3,0.41-0.5
		c-0.02,0.14-0.03,0.24-0.04,0.39c0.18-0.13,0.32-0.22,0.46-0.32c-0.24,0.47-0.69,0.6-1.11,0.77c0.46,0.03,1.03-0.19,1.14-0.37
		c0.23,0,0.42,0,0.61,0c0-0.02,0-0.05,0.01-0.07c-0.08-0.01-0.17-0.03-0.27-0.04c0.04-0.13,0.07-0.23,0.1-0.34
		c-0.16-0.06-0.29-0.11-0.42-0.16c0.43-0.09,0.42-0.41,0.45-0.71c0.02-0.2,0.04-0.4,0.06-0.61c0.16,0.53-0.16,1.13,0.26,1.64
		c0.05-0.18,0.09-0.34,0.13-0.5c0.03,0,0.05,0.01,0.08,0.01c-0.02,0.3-0.04,0.6-0.07,0.97c1.08,0.61,2.2,1.22,3.53,1.08
		c0.09,0.01,0.18,0.1,0.27,0.1c0.62-0.04,1.25-0.03,1.82-0.37c0.48-0.29,0.73-1.16,0.49-1.53c-0.2,0.38-0.41,0.81-0.66,1.21
		c-0.08,0.13-0.28,0.25-0.44,0.26c-0.87,0.05-1.6-0.29-2.21-0.92c-0.25-0.26-0.36-0.6-0.19-0.97c0.18-0.37,0.46-0.6,0.88-0.61
		c-0.02,0.07-0.04,0.12-0.05,0.17c0.72,0.19,1.43,0.38,2.15,0.58c0.01-0.04,0.02-0.08,0.04-0.13c-0.23-0.08-0.47-0.15-0.7-0.23
		c0-0.01,0-0.03,0.01-0.04c0.26,0.05,0.53,0.11,0.79,0.16c0.01-0.04,0.03-0.09,0.04-0.13c-0.33-0.14-0.65-0.3-0.98-0.4
		c-0.75-0.23-1.55-0.29-2.18-0.86c-0.16-0.14-0.41-0.17-0.62-0.24c-0.25-0.09-0.5-0.18-0.77-0.24c-0.4-0.1-0.81-0.2-1.22-0.26
		c-0.31-0.05-0.63,0-0.94-0.06c-0.68-0.13-1.34-0.38-2.03-0.45c-0.99-0.1-1.97-0.25-2.9-0.63c-0.7-0.28-1.39-0.09-2.08-0.12
		c-0.1,0-0.21,0.09-0.3,0.16c-0.15,0.1-0.29,0.2-0.43,0.31c-0.01,0.01-0.04,0-0.06-0.01c0.01-0.07,0.01-0.15,0.02-0.29
		c-0.23,0.14-0.41,0.24-0.5,0.3c-0.45-0.21-0.63,0.16-0.85,0.33c-0.27,0.21-0.51,0.46-0.77,0.7c0.67-0.93,1.45-1.7,2.64-1.94
		c-0.13,0.1-0.23,0.18-0.32,0.26c0,0.04,0,0.07,0,0.11c1.67-0.5,3.21,0.14,4.78,0.55c0.01-0.03,0.01-0.07,0.02-0.1
		c-0.09-0.05-0.17-0.1-0.29-0.17c0.11-0.06,0.2-0.1,0.29-0.15c-0.06-0.15-0.12-0.28-0.17-0.4c0.03-0.02,0.05-0.04,0.08-0.06
		c0.24,0.29,0.48,0.58,0.71,0.87c0.04-0.03,0.07-0.06,0.11-0.09c-0.16-0.32-0.32-0.64-0.47-0.96c0.03-0.02,0.05-0.03,0.08-0.05
		c0.08,0.12,0.16,0.24,0.24,0.35c0.21,0.26,0.41,0.52,0.63,0.77c0.03,0.04,0.13,0.06,0.17,0.03c0.04-0.02,0.06-0.12,0.05-0.17
		c-0.02-0.16-0.05-0.32-0.08-0.48c0.03-0.01,0.06-0.02,0.09-0.03c0.04,0.17,0.08,0.34,0.13,0.5c0.03,0.08,0.09,0.15,0.14,0.22
		c0.06-0.07,0.14-0.14,0.16-0.22c0.03-0.1,0.03-0.23-0.01-0.32c-0.12-0.27,0.02-0.4,0.27-0.51c-0.03,0.15-0.07,0.3-0.11,0.5
		c0.14-0.06,0.23-0.11,0.34-0.16c-0.05,0.18-0.09,0.34-0.13,0.49c0.03,0.01,0.06,0.03,0.1,0.04c0.14-0.2,0.28-0.39,0.42-0.59
		c0.02,0.01,0.04,0.02,0.06,0.03c-0.1,0.23-0.2,0.46-0.29,0.69c0.02,0.02,0.05,0.04,0.08,0.06c0.15-0.14,0.3-0.27,0.5-0.45
		c-0.09,0.24-0.16,0.41-0.23,0.58c0.03,0.02,0.06,0.04,0.1,0.05c0.22-0.24,0.44-0.48,0.65-0.72c0.01,0.01,0.02,0.02,0.03,0.03
		c-0.08,0.19-0.15,0.37-0.22,0.56c0.04,0.02,0.08,0.04,0.12,0.06c0.08-0.11,0.17-0.22,0.25-0.33c0.09-0.1,0.18-0.19,0.27-0.29
		c0.01,0.01,0.03,0.03,0.04,0.04c-0.07,0.17-0.14,0.35-0.21,0.53c0.04,0.02,0.07,0.04,0.1,0.06c0.19-0.21,0.38-0.42,0.56-0.63
		c0.03,0.02,0.05,0.04,0.08,0.06c-0.07,0.13-0.16,0.25-0.22,0.39c-0.05,0.11-0.06,0.23-0.09,0.34c0.03,0.01,0.07,0.02,0.1,0.02
		c0.2-0.25,0.4-0.5,0.6-0.75c0.02,0.02,0.04,0.03,0.05,0.05c-0.1,0.2-0.21,0.4-0.31,0.6c0.04,0.03,0.08,0.06,0.12,0.08
		c0.26-0.34,0.51-0.68,0.77-1.01c0.02,0.02,0.05,0.04,0.07,0.05c-0.2,0.33-0.4,0.66-0.6,1c0.04,0.03,0.08,0.07,0.13,0.1
		c0.31-0.4,0.63-0.79,0.94-1.19c0.02,0.01,0.03,0.02,0.04,0.03c-0.25,0.4-0.49,0.8-0.74,1.2c0.03,0.02,0.06,0.04,0.09,0.05
		c0.61-0.41,0.88-1.08,1.14-1.76c0.16,0.2-0.06,0.72-0.75,1.79c0.55-0.1,0.57-0.73,0.93-1.02c-0.01,0.28-0.02,0.53-0.04,0.77
		c0.04,0.01,0.07,0.02,0.1,0.03c0.09-0.17,0.18-0.34,0.27-0.5c0.02,0.01,0.04,0.01,0.06,0.02c-0.06,0.2-0.12,0.4-0.2,0.66
		c0.21-0.18,0.37-0.32,0.52-0.45c0.01,0.02,0.02,0.05,0.03,0.07c-0.08,0.19-0.17,0.39-0.25,0.58c0.02,0.02,0.05,0.03,0.08,0.05
		c0.17-0.22,0.35-0.44,0.52-0.66c0.02,0.01,0.04,0.03,0.06,0.04c-0.15,0.31-0.29,0.63-0.44,0.94c0.02,0.01,0.04,0.03,0.06,0.04
		c0.22-0.27,0.44-0.54,0.66-0.81c0.02,0.02,0.04,0.03,0.07,0.05c-0.05,0.19-0.1,0.39-0.15,0.58c0.03,0.02,0.06,0.03,0.1,0.05
		c0.16-0.25,0.32-0.51,0.47-0.76c0.04,0.02,0.08,0.04,0.11,0.06c-0.1,0.27-0.21,0.54-0.31,0.81c0.03,0.01,0.05,0.02,0.08,0.04
		c0.21-0.3,0.43-0.59,0.64-0.88c0.03,0.02,0.05,0.04,0.08,0.05c-0.17,0.34-0.33,0.68-0.49,1.01c0.46-0.17,0.56-0.72,1-0.94
		c-0.14,0.33-0.29,0.65-0.43,0.98c0.02,0.01,0.04,0.03,0.06,0.04c0.25-0.34,0.5-0.68,0.75-1.01c0.03,0.02,0.06,0.04,0.08,0.06
		c-0.1,0.22-0.19,0.44-0.29,0.65c0.03,0.02,0.06,0.05,0.09,0.07c0.22-0.26,0.44-0.52,0.67-0.79c-0.07,0.25-0.15,0.49-0.22,0.72
		c0.04,0.02,0.09,0.03,0.13,0.05c0.08-0.13,0.17-0.25,0.24-0.38c0.07-0.12,0.13-0.25,0.19-0.38c0.02,0.01,0.03,0.03,0.05,0.04
		c-0.07,0.21-0.14,0.43-0.22,0.64c0.05,0.02,0.09,0.04,0.14,0.06c0.14-0.24,0.29-0.49,0.43-0.73c0.02,0.01,0.04,0.03,0.07,0.04
		c-0.05,0.19-0.1,0.37-0.18,0.64c0.5-0.42,0.6-0.95,0.71-1.47c0.04,0.01,0.08,0.01,0.11,0.02c0.05,0.45,0.1,0.9,0.15,1.38
		c0.16-0.07,0.29-0.12,0.43-0.18c-0.04,0.19-0.07,0.34-0.11,0.53c0.19-0.16,0.34-0.29,0.5-0.41c0.02,0.02,0.05,0.05,0.07,0.07
		c-0.07,0.15-0.13,0.3-0.2,0.45c0.02,0.02,0.05,0.05,0.08,0.07c0.17-0.14,0.33-0.28,0.51-0.43c0.03,0.15,0.05,0.27,0.08,0.42
		c0.14-0.11,0.23-0.18,0.36-0.27c0.02,0.15,0.04,0.26,0.05,0.39c0.12-0.1,0.21-0.17,0.34-0.27c0.05,0.15,0.08,0.24,0.11,0.34
		c0.38-0.27,0.38-0.27,0.48,0.05c0.09-0.04,0.19-0.08,0.28-0.12c0.03,0.09,0.05,0.16,0.09,0.25c0.12-0.1,0.2-0.17,0.23-0.19
		c0.46,0.26,0.73-0.14,1.05-0.24c-0.03,0.13-0.05,0.22-0.07,0.32c0.03,0.02,0.06,0.03,0.09,0.05c0.07-0.11,0.17-0.21,0.19-0.33
		c0.05-0.24,0.01-0.52,0.11-0.71c0.14-0.26,0.03-0.42-0.13-0.52c-0.51-0.3-1.02-0.67-1.58-0.82c-0.93-0.26-1.9-0.35-2.84-0.55
		c-1.05-0.22-2.08-0.53-3.13-0.74c-1.05-0.21-2.11-0.38-3.18-0.48c-1.04-0.1-2.1-0.05-3.15-0.13c-1.4-0.1-2.79-0.27-4.19-0.4
		c-0.67-0.06-1.36-0.14-2.01,0.1c-0.83,0.3-1.64,0.64-2.46,0.97c-0.15,0.06-0.31,0.12-0.53,0.2c0.17-0.16,0.28-0.27,0.4-0.38
		c-0.48,0.05-0.85,0.36-1.35,0.39c-0.43,0.02-0.86,0.3-1.28,0.48c-0.16,0.07-0.3,0.2-0.49,0.34c0.03-0.14,0.05-0.22,0.08-0.35
		c-0.17,0.1-0.31,0.17-0.42,0.26c-0.9,0.71-1.44,1.71-1.97,2.71c-0.33,0.61-0.65,1.23-0.97,1.85c-0.04-0.03-0.09-0.05-0.13-0.07
		c0.39-0.74,0.76-1.49,1.18-2.21c0.42-0.71,0.89-1.39,1.33-2.08c-0.2,0.1-0.41,0.2-0.53,0.38c-0.48,0.69-0.97,1.37-1.37,2.11
		c-0.56,1.04-1.01,2.15-1.56,3.2c-0.4,0.76-0.86,1.49-1.31,2.22c-0.36,0.57-0.76,1.13-1.14,1.69c0.04,0.04,0.08,0.07,0.11,0.1
		c0.12-0.15,0.24-0.31,0.37-0.45c0.06-0.07,0.15-0.11,0.22-0.16l-0.01-0.01c-0.2,0.3-0.39,0.61-0.59,0.91
		c0.01,0.01,0.02,0.03,0.03,0.04c0.16-0.12,0.32-0.24,0.47-0.37c0.02,0.01,0.03,0.03,0.05,0.04c-0.2,0.29-0.39,0.59-0.59,0.88
		c0.68-0.5,1.12-1.16,1.38-1.98C8,21.4,7.77,21.72,7.53,22.04C7.51,22.02,7.49,22,7.47,21.98c0.84-1.2,1.69-2.4,2.53-3.61
		c0.02,0.01,0.05,0.03,0.07,0.05c-0.51,0.81-1.02,1.61-1.53,2.42c0.02,0.02,0.04,0.04,0.05,0.05c0.38-0.42,0.77-0.84,1.15-1.26
		c0.02,0.02,0.04,0.04,0.05,0.06c-0.33,0.42-0.67,0.85-1,1.27c0.03,0.03,0.06,0.06,0.09,0.09c0.4-0.43,0.8-0.85,1.2-1.27
		c0.03,0.03,0.05,0.05,0.08,0.08c-0.46,0.54-0.92,1.07-1.38,1.61c0.03,0.03,0.06,0.05,0.08,0.08c0.68-0.56,1.21-1.28,1.76-1.99
		c0.03,0.03,0.05,0.05,0.08,0.07c-0.46,0.62-0.92,1.23-1.38,1.85c0.05,0.04,0.09,0.09,0.14,0.13c0.38-0.43,0.75-0.85,1.13-1.28
		c-0.92,1.35-2.2,2.39-3.12,3.75c0.02,0.02,0.04,0.04,0.07,0.07C7.79,23.96,8.01,23.78,8.24,23.59z M23.17,23.88
		c-0.13-0.71,0.32-1.07,0.63-1.55c-0.76,0.37-0.98,1.09-1.36,1.68c-0.03-0.02-0.06-0.03-0.09-0.05c0.27-0.5,0.54-0.99,0.8-1.49
		c-0.02-0.01-0.03-0.03-0.05-0.04c-0.09,0.06-0.18,0.12-0.27,0.18c-0.05-0.25-0.17-0.27-0.31-0.08c-0.11,0.14-0.19,0.3-0.28,0.46
		c-0.02-0.01-0.03-0.02-0.05-0.03c0.08-0.17,0.15-0.34,0.21-0.47c-0.27-0.04-0.53-0.08-0.79-0.11c0.01-0.02,0.02-0.05,0.02-0.07
		c-0.14,0.09-0.27,0.18-0.38,0.24c0.03,0.33,0.12,0.69,0.06,1.02c-0.06,0.33-0.29,0.62-0.46,0.96c-0.18-0.09-0.35-0.17-0.51-0.25
		c0.07-0.06,0.14-0.04,0.18-0.06c0.17-0.11,0.34-0.23,0.51-0.35c-0.1-0.13-0.18-0.29-0.31-0.36c-0.22-0.13-0.47-0.19-0.7-0.28
		c0.29,0.02,0.55,0.09,0.82,0.18c0.11,0.04,0.22,0.22,0.3,0c0.02-0.07-0.09-0.19-0.14-0.3c0.27-0.17,0.1-0.33-0.07-0.51
		c-0.29,0.49-0.47-0.09-0.7-0.08c0.14,0.03,0.28,0.05,0.48,0.09c-0.1-0.08-0.15-0.13-0.21-0.18c0.08-0.04,0.13-0.07,0.26-0.14
		c-0.26-0.1-0.45-0.17-0.64-0.24c-0.01,0.02-0.02,0.05-0.02,0.07c0.03,0.04,0.07,0.09,0.12,0.16c-0.25-0.06-0.48-0.11-0.75-0.17
		c0.22-0.13,0.41-0.24,0.6-0.35c0-0.02-0.01-0.04-0.01-0.06c-0.32,0.02-0.65,0.05-0.97,0.07c-0.01-0.03-0.01-0.05-0.02-0.08
		c0.24-0.09,0.49-0.17,0.7-0.25c-0.41-0.29-1.32,0.05-1.75,0.69c-0.29,0.43-0.18,1.31,0.27,1.67c-0.29-0.87-0.45-1.67,0.65-1.99
		c-0.6,0.64-0.63,0.71-0.57,0.97c0.11-0.09,0.22-0.18,0.34-0.28c-0.06,0.16-0.06,0.16,0.57,1.19c-0.07,0.03-0.13,0.06-0.24,0.12
		c0.2,0.08,0.35,0.14,0.5,0.2c-0.01,0.03-0.02,0.06-0.03,0.09c-0.37-0.16-0.73-0.31-1.1-0.47c-0.02,0.03-0.04,0.06-0.06,0.08
		c0.22,0.19,0.43,0.41,0.67,0.57c0.15,0.1,0.34,0.12,0.52,0.15c0.16,0.02,0.33-0.03,0.49,0.02c0.27,0.08,0.52,0.23,0.79,0.31
		c0.36,0.11,0.72,0.17,1.07,0.37c0.3,0.17,0.69,0.19,1.06,0.28c-0.02-0.43,0.26-0.89,0.61-1.02c-0.13,0.31-0.53,0.45-0.41,0.86
		c0.08-0.13,0.16-0.26,0.24-0.39c0.02,0.01,0.04,0.02,0.06,0.03c0,0.06,0,0.13,0,0.23c0.14-0.05,0.35-0.24,0.28,0.13
		c0.12-0.1,0.22-0.17,0.34-0.26c0.02,0.1,0.03,0.17,0.04,0.25c0.11-0.13,0.2-0.24,0.3-0.35c0.04,0.11,0.07,0.21,0.13,0.38
		c0.12-0.2,0.2-0.33,0.29-0.46c0.06,0.08,0.11,0.16,0.16,0.24c0.1-0.18,0.19-0.34,0.31-0.55c0.08,0.21,0.12,0.32,0.19,0.53
		c0.08-0.27,0.12-0.42,0.17-0.58c0.02,0,0.04,0.01,0.06,0.01c0.03,0.13,0.06,0.27,0.09,0.4c0.02,0,0.05,0,0.07-0.01
		c0.05-0.17,0.1-0.33,0.18-0.58c0.08,0.17,0.12,0.24,0.18,0.36c0.08-0.2,0.14-0.35,0.22-0.53c0.04,0.11,0.07,0.17,0.07,0.19
		c0.18-0.21,0.37-0.42,0.57-0.65c0.05,0.1,0.08,0.16,0.12,0.25c0.24-0.28,0.46-0.54,0.68-0.78c0.29-0.31,0.44-0.67,0.35-1.09
		c-0.18-0.83-0.12-0.99-1.02-0.48c-0.55,0.31-1.04,0.76-1.7,0.8c-0.26,0.02-0.51,0.07-0.76,0.11c-0.28,0.04-0.64-0.03-0.81,0.13
		c-0.27,0.26-0.42,0.67-0.62,1.02C23.27,23.64,23.24,23.73,23.17,23.88z M6.06,27.28c-0.18-0.03-0.24-0.04-0.31-0.05
		c-0.03,0.33,0.19,0.4,0.4,0.42c0.56,0.04,1.11,0.05,1.67,0.07c0.02,0,0.03-0.03,0.11-0.11c-1.29-1.62-1.73-3.61-2.12-5.68
		c0.37,1.22,0.71,2.38,1.07,3.55c0.07,0.24,0.16,0.49,0.28,0.71C7.4,26.6,7.66,27,7.91,27.41c0.05,0.09,0.11,0.17,0.17,0.26
		c0.03-0.02,0.07-0.04,0.1-0.06c-0.13-0.27-0.25-0.55-0.39-0.82c-0.52-0.98-1-1.99-1.25-3.09c-0.18-0.78-0.38-1.54-0.44-2.36
		c-0.13-1.69-0.12-3.37,0.06-5.05c0.05-0.48,0.06-0.97,0.09-1.39c-0.25,0-0.45,0.01-0.64,0c-0.36-0.02-0.68,0.2-0.68,0.52
		c0,0.68,0.03,1.37,0.06,2.05c0.01,0.29,0.05,0.58,0.07,0.87c-0.03,0-0.05,0-0.08,0.01c-0.07-0.6-0.15-1.19-0.22-1.79
		c-0.07,0.2-0.1,0.39-0.12,0.58c-0.12,1.89,0.34,3.72,0.53,5.58c0.1,1,0.24,1.99,0.39,2.98C5.64,26.21,5.53,26.8,6.06,27.28z
		 M0.69,16.24c-0.03-0.01-0.07-0.01-0.1-0.02c-0.04,0.1-0.09,0.19-0.11,0.29c-0.1,0.85-0.22,1.69-0.27,2.54
		c-0.08,1.26,0.03,2.51,0.26,3.75c0.19,1.05,0.34,2.11,0.51,3.17c0.03,0.2,0.1,0.39,0.15,0.58c0.04-0.01,0.08-0.01,0.12-0.02
		c0.03-0.36,0.09-0.72,0.08-1.07c-0.03-0.86-0.08-1.73-0.14-2.59c-0.06-0.8-0.15-1.6-0.22-2.41c-0.1-1.12-0.19-2.24-0.27-3.36
		C0.67,16.82,0.69,16.53,0.69,16.24z M6.98,21.15c0.03,0.01,0.06,0.03,0.1,0.05c0.22-0.26,0.45-0.51,0.66-0.78
		c0.96-1.23,1.54-2.7,2.23-4.1c0.64-1.31,1.17-2.69,2.19-3.77c-0.83,0.34-1.13,1.18-1.62,1.86c0.15-0.6,0.6-1.02,0.85-1.57
		c-0.31,0.29-0.64,0.57-0.85,0.92c-0.34,0.56-0.61,1.17-0.91,1.76c-0.33,0.66-0.7,1.29-1,1.97c-0.48,1.11-0.98,2.21-1.68,3.19
		c-0.15,0.21-0.29,0.43-0.43,0.65c0.05,0.03,0.09,0.06,0.14,0.1c0.2-0.3,0.39-0.61,0.6-0.91c0.2-0.29,0.42-0.56,0.63-0.85
		c0.02,0.02,0.05,0.04,0.07,0.06C7.63,20.21,7.3,20.68,6.98,21.15z M31.18,17.66c0.3-0.11,0.51-0.44,0.64-0.86
		c0.08-0.27-0.01-0.42-0.25-0.5c-0.46-0.14-0.91-0.3-1.37-0.42c-0.27-0.07-0.55-0.1-0.83-0.09c-0.31,0.01-0.47,0.23-0.52,0.53
		c-0.05,0.27,0.14,0.35,0.33,0.43c0.16,0.07,0.32,0.15,0.47,0.23c0,0.02-0.01,0.03-0.01,0.05c-0.09-0.02-0.19-0.03-0.28-0.05
		c0.48,0.26,0.92,0.63,1.58,0.64c-0.16-0.12-0.24-0.19-0.33-0.26c0.02-0.02,0.04-0.05,0.05-0.07C30.8,17.38,30.96,17.49,31.18,17.66
		z M20.98,26.21c0.02-0.02,0.05-0.04,0.07-0.05c-0.15-0.21-0.26-0.47-0.45-0.63c-0.19-0.16-0.44-0.23-0.67-0.32
		c-0.25-0.09-0.5-0.25-0.77-0.04c0.03,0.08,0.05,0.15,0.09,0.25c-0.15-0.02-0.26-0.04-0.42-0.06c0.08,0.11,0.13,0.17,0.14,0.18
		c-0.09,0.15-0.19,0.25-0.21,0.37c-0.01,0.06,0.13,0.15,0.22,0.2c0.12,0.06,0.26,0.09,0.39,0.14c0.39,0.15,0.78,0.31,1.18,0.47
		c-0.02,0.05-0.03,0.1-0.05,0.15c-0.27-0.08-0.54-0.16-0.89-0.26c0.15,0.11,0.23,0.21,0.32,0.23c0.24,0.07,0.53,0.2,0.74,0.13
		c0.32-0.11,0.31-0.58-0.02-0.9C20.8,26.14,20.89,26.18,20.98,26.21z M19.47,27.76c-0.44,0.62-0.87,1.21-1.3,1.81
		c0.49-0.09,0.71-0.63,1.16-0.81c-0.25,0.3-0.51,0.6-0.76,0.9c0.39-0.07,0.78-0.46,1.46-1.44C19.82,28.06,19.62,27.9,19.47,27.76z
		 M20.16,29.38c-0.07,0.18-0.11,0.27-0.18,0.42c0.15,0,0.27,0.03,0.36-0.01c0.17-0.08,0.31-0.93,0.19-1.09
		c-0.12-0.16-0.25-0.32-0.38-0.48c-0.29,0.43-0.61,0.88-0.93,1.35c0.03,0.03,0.05,0.05,0.08,0.08c0.26-0.26,0.53-0.51,0.8-0.77
		c0.01,0.01,0.02,0.03,0.03,0.04c-0.15,0.22-0.3,0.44-0.46,0.66c0.01,0.01,0.03,0.03,0.04,0.04C19.85,29.54,19.97,29.47,20.16,29.38
		z M21.8,28.72c-0.04-0.03-0.07-0.05-0.11-0.07c-0.22,0.31-0.44,0.62-0.65,0.9c0.51,0.38,0.7-0.15,1.07-0.42
		c-0.1,0.21-0.16,0.32-0.21,0.44c0.04,0.03,0.08,0.06,0.11,0.08c0.2-0.25,0.41-0.5,0.61-0.75c-0.03-0.03-0.05-0.05-0.08-0.08
		c-0.13,0.1-0.25,0.2-0.47,0.36c0.08-0.23,0.13-0.36,0.18-0.48c-0.02-0.02-0.05-0.04-0.07-0.07c-0.17,0.18-0.35,0.36-0.52,0.54
		c-0.01-0.01-0.02-0.01-0.04-0.02C21.69,29.01,21.74,28.87,21.8,28.72z M7.73,14.59c-0.53,0.36-1.56,2.48-1.47,2.95
		C6.74,16.59,7.23,15.61,7.73,14.59z M8.43,21.43C7.96,22.08,7.5,22.74,7,23.45C7.62,23.09,8.35,22.11,8.43,21.43z M18.93,20.07
		c0.56-0.17,1.11-1.37,0.91-1.73c-0.1,0.3-0.21,0.62-0.33,0.97c-0.05-0.1-0.08-0.16-0.16-0.32C19.18,19.41,19.06,19.74,18.93,20.07z
		 M8.8,21.96c-0.02-0.02-0.05-0.04-0.07-0.07c-0.5,0.61-0.99,1.22-1.49,1.84C7.97,23.32,8.43,22.68,8.8,21.96z M10.91,23.76
		c0.62-0.06,0.9-0.63,1.31-1.01C11.66,22.9,11.3,23.34,10.91,23.76z M19.12,24.78c-0.27-0.01-0.54-0.04-0.69,0.27
		c-0.2,0.4-0.18,0.84,0.06,1.18c0.02-0.28-0.02-0.6,0.09-0.84C18.67,25.15,18.92,24.99,19.12,24.78z M26.24,17.75
		c-0.82-0.17-1.35,0.09-1.47,0.66c0.26-0.18,0.48-0.37,0.73-0.49C25.73,17.82,25.99,17.81,26.24,17.75z M21.4,22.32
		c0.01-0.04,0.01-0.07,0.02-0.11c-0.54-0.39-0.9-0.5-1.13-0.29C20.68,22.06,21.04,22.19,21.4,22.32z M6.49,15.41
		c0.12-0.12,0.22-0.21,0.32-0.31c0.02,0.02,0.03,0.03,0.05,0.05c-0.1,0.22-0.2,0.45-0.29,0.67c0.03,0.01,0.05,0.03,0.08,0.04
		c0.19-0.31,0.38-0.61,0.56-0.91C6.88,14.97,6.52,14.91,6.49,15.41z M20.77,29.37c0.45-0.1,0.73-0.51,0.67-0.93
		C21.2,28.77,20.99,29.07,20.77,29.37z M6.54,13.2c-0.03,0.01-0.06,0.03-0.09,0.04c0.16,0.41,0.31,0.82,0.47,1.23
		c0.04-0.02,0.08-0.04,0.12-0.05C6.88,14.01,6.71,13.6,6.54,13.2z M23.8,28.78c-0.51,0.14-0.81,0.42-0.77,0.74
		C23.29,29.27,23.54,29.03,23.8,28.78z"/>
	<path fill-rule="evenodd" clip-rule="evenodd" d="M3.4,28.34c0.2,0.24,0.4,0.49,0.6,0.73c-0.23,0.06-0.44-0.14-0.67-0.65
		C3.35,28.38,3.37,28.36,3.4,28.34z"/>
	<path fill-rule="evenodd" clip-rule="evenodd" fill="#FFFFFF" d="M8.23,23.6c0.24-0.26,0.49-0.51,0.73-0.77
		c0.1-0.11,0.2-0.23,0.34-0.39c-0.13,0.65-1.07,1.74-1.77,2.05c0.27-0.35,0.49-0.63,0.71-0.91L8.23,23.6z"/>
	<path fill-rule="evenodd" clip-rule="evenodd" fill="#FFFFFF" d="M8.43,21.43C8.35,22.11,7.62,23.09,7,23.45
		C7.5,22.74,7.96,22.08,8.43,21.43z"/>
	<path fill-rule="evenodd" clip-rule="evenodd" fill="#FFFFFF" d="M8.8,21.96c-0.37,0.72-0.84,1.36-1.56,1.77
		c0.5-0.61,0.99-1.22,1.49-1.84C8.75,21.91,8.78,21.93,8.8,21.96z"/>
	<path fill-rule="evenodd" clip-rule="evenodd" fill="#FFFFFF" d="M10.91,23.76c0.39-0.42,0.75-0.86,1.31-1.01
		C11.81,23.12,11.53,23.69,10.91,23.76z"/>
	<path fill-rule="evenodd" clip-rule="evenodd" fill="#FFFFFF" d="M12.52,23.23c0.25-0.18,0.51-0.36,0.76-0.54
		c0.11-0.07,0.22-0.13,0.35-0.17c-0.3,0.58-0.8,0.86-1.33,1.09c-0.04-0.05-0.09-0.11-0.13-0.16c0.07-0.03,0.15-0.06,0.22-0.09
		C12.44,23.33,12.48,23.28,12.52,23.23z"/>
	<path fill-rule="evenodd" clip-rule="evenodd" d="M18.34,19.63c-0.18,0.18-0.36,0.36-0.54,0.53c0-0.28,0.72-1.35,0.98-1.42
		c0.01,0.07,0.02,0.14,0.03,0.21C18.65,19.18,18.49,19.4,18.34,19.63z"/>
	<path fill-rule="evenodd" clip-rule="evenodd" fill="#FFFFFF" d="M12.52,23.23c-0.04,0.05-0.08,0.09-0.13,0.14
		c-0.27,0.13-0.53,0.25-0.79,0.38c-0.02-0.03-0.04-0.06-0.07-0.09c0.42-0.34,0.85-0.67,1.27-1c0.03,0.03,0.05,0.06,0.08,0.09
		C12.76,22.9,12.64,23.07,12.52,23.23z"/>
	<path fill-rule="evenodd" clip-rule="evenodd" fill="#FFFFFF" d="M20.37,19.4c-0.06,0.27-0.16,0.54-0.17,0.8
		c0,0.28,0.1,0.57,0.15,0.82c-0.5-0.17-0.46-1.18-0.01-1.66C20.35,19.38,20.36,19.39,20.37,19.4z"/>
	<path fill-rule="evenodd" clip-rule="evenodd" fill="#FFFFFF" d="M22.7,21.03c-0.43,0.29-0.89,0.18-1.35,0.11
		c-0.11-0.01-0.22-0.06-0.4-0.11C21.58,21.03,22.15,21.03,22.7,21.03C22.71,21.03,22.7,21.03,22.7,21.03z"/>
	<path fill-rule="evenodd" clip-rule="evenodd" fill="#FFFFFF" d="M21.4,22.32c-0.36-0.13-0.72-0.26-1.11-0.4
		c0.23-0.21,0.59-0.1,1.13,0.29C21.41,22.25,21.41,22.29,21.4,22.32z"/>
	<path fill-rule="evenodd" clip-rule="evenodd" fill="#FFFFFF" d="M6.54,13.2c0.17,0.4,0.34,0.81,0.51,1.21
		c-0.04,0.02-0.08,0.04-0.12,0.05c-0.16-0.41-0.31-0.82-0.47-1.23C6.48,13.23,6.51,13.21,6.54,13.2z"/>
	<path fill-rule="evenodd" clip-rule="evenodd" d="M7.47,21.55c0.06-0.16,0.1-0.34,0.19-0.48c0.62-0.94,1.27-1.86,1.88-2.81
		c0.2-0.31,0.32-0.69,0.47-1.04c0.03,0.02,0.07,0.03,0.1,0.05c-0.31,0.62-0.56,1.27-0.93,1.85C8.66,19.96,8.04,20.74,7.47,21.55
		C7.47,21.54,7.47,21.55,7.47,21.55z"/>
	<path fill-rule="evenodd" clip-rule="evenodd" d="M13.7,12.62c-0.62,0.94-1.3,1.99-1.94,2.97C11.89,14.81,13.23,12.82,13.7,12.62z"
		/>
	<path fill-rule="evenodd" clip-rule="evenodd" d="M13.1,14.78c0.6-1.2,1.49-1.99,2.4-2.76C14.72,12.91,13.95,13.81,13.1,14.78z"/>
	<path fill-rule="evenodd" clip-rule="evenodd" d="M12.06,22.24c0.57-0.79,1.14-1.58,1.71-2.37C13.38,20.8,12.84,21.61,12.06,22.24z
		"/>
	<path fill-rule="evenodd" clip-rule="evenodd" d="M13.95,21.74c0.5-0.85,1-1.71,1.5-2.56C15.16,20.17,14.68,21.04,13.95,21.74z"/>
	<path fill-rule="evenodd" clip-rule="evenodd" d="M12.44,13.61c-0.53,0.98-1.07,1.97-1.6,2.95c-0.04-0.02-0.07-0.04-0.11-0.07
		c0.54-0.99,1.08-1.97,1.62-2.96C12.38,13.56,12.41,13.58,12.44,13.61z"/>
	<path fill-rule="evenodd" clip-rule="evenodd" d="M11.47,22.24c0.52-0.61,1.05-1.24,1.55-1.84C12.96,20.88,11.89,22.14,11.47,22.24
		z"/>
	<path fill-rule="evenodd" clip-rule="evenodd" d="M10.94,22.24c0.52-0.62,1.04-1.24,1.55-1.85C12.47,20.72,11.63,21.75,10.94,22.24
		z"/>
	<path fill-rule="evenodd" clip-rule="evenodd" d="M16.42,12.5c-0.48,0.43-0.96,0.86-1.44,1.29c0.33-0.61,0.86-0.99,1.37-1.4
		C16.37,12.43,16.4,12.46,16.42,12.5z"/>
	<path fill-rule="evenodd" clip-rule="evenodd" d="M15.41,12.73c-0.48,0.54-0.95,1.08-1.43,1.61C14.36,13.71,14.77,13.1,15.41,12.73
		z"/>
	<path fill-rule="evenodd" clip-rule="evenodd" d="M14.64,20.08c-0.29,0.47-0.57,0.95-0.86,1.42c-0.04-0.02-0.07-0.05-0.11-0.07
		c0.28-0.48,0.56-0.96,0.85-1.44C14.55,20.02,14.59,20.05,14.64,20.08z"/>
	<path fill-rule="evenodd" clip-rule="evenodd" d="M18.23,19c-0.25,0.4-0.49,0.81-0.74,1.21c-0.03-0.02-0.07-0.05-0.1-0.07
		c0.3-0.37,0.33-0.92,0.74-1.21C18.16,18.95,18.2,18.97,18.23,19z"/>
	<path fill-rule="evenodd" clip-rule="evenodd" d="M12.7,22.18c0.4-0.58,0.77-1.12,1.14-1.66C13.57,21.13,13.27,21.74,12.7,22.18z"
		/>
	<path fill-rule="evenodd" clip-rule="evenodd" d="M17.27,20.3c0.07,0.45-0.08,0.73-0.64,1.26C16.84,21.16,17.04,20.75,17.27,20.3z"
		/>
	<path fill-rule="evenodd" clip-rule="evenodd" d="M18.53,18.54c0.05-0.16,0.1-0.33,0.16-0.5c-0.04-0.02-0.08-0.05-0.13-0.07
		c-0.09,0.14-0.19,0.29-0.28,0.43c0.09-0.55,0.15-0.58,0.86-0.44C18.94,18.16,18.72,18.35,18.53,18.54z"/>
	<path fill-rule="evenodd" clip-rule="evenodd" d="M13.53,12.44c-0.35,0.31-0.7,0.62-0.89,0.79c0.16-0.18,0.48-0.53,0.79-0.89
		C13.46,12.38,13.5,12.41,13.53,12.44z"/>
	<path fill-rule="evenodd" clip-rule="evenodd" d="M12.21,20.24c-0.32,0.41-0.64,0.81-0.96,1.22c-0.03-0.02-0.05-0.05-0.08-0.07
		c0.32-0.4,0.65-0.81,0.97-1.21C12.17,20.2,12.19,20.22,12.21,20.24z"/>
	<path fill-rule="evenodd" clip-rule="evenodd" d="M17.01,19.03c-0.24,0.47-0.48,0.93-0.73,1.4c-0.03-0.02-0.06-0.03-0.09-0.05
		c0.25-0.46,0.5-0.93,0.75-1.39C16.96,19.01,16.98,19.02,17.01,19.03z"/>
	<path fill-rule="evenodd" clip-rule="evenodd" d="M27.13,16.8c-0.26,0.14-0.52,0.28-0.78,0.42c-0.02-0.05-0.04-0.09-0.07-0.14
		c0.26-0.13,0.53-0.25,0.8-0.38C27.1,16.74,27.12,16.77,27.13,16.8z"/>
	<path fill-rule="evenodd" clip-rule="evenodd" d="M15.69,21.62c0.22-0.32,0.44-0.65,0.65-0.97c0.03,0.02,0.06,0.04,0.09,0.07
		c-0.22,0.32-0.43,0.65-0.65,0.97C15.76,21.67,15.72,21.64,15.69,21.62z"/>
	<path fill-rule="evenodd" clip-rule="evenodd" d="M14,12.98c-0.23,0.3-0.45,0.61-0.68,0.91c-0.03-0.03-0.06-0.05-0.09-0.08
		c0.24-0.3,0.47-0.6,0.71-0.89C13.96,12.94,13.98,12.96,14,12.98z"/>
	<path fill-rule="evenodd" clip-rule="evenodd" d="M16.93,11.69c-0.34,0.21-0.69,0.41-1.04,0.62c-0.02-0.03-0.03-0.06-0.05-0.09
		c0.34-0.2,0.69-0.41,1.04-0.62C16.9,11.64,16.92,11.67,16.93,11.69z"/>
	<path fill-rule="evenodd" clip-rule="evenodd" d="M14.23,23.38c-0.31,0.37-0.62,0.73-0.93,1.1c0.2-0.47,0.5-0.85,0.91-1.12
		L14.23,23.38z"/>
	<path fill-rule="evenodd" clip-rule="evenodd" d="M15.61,24.86c-0.08-0.39,0.03-0.53,0.5-0.73C15.94,24.37,15.79,24.59,15.61,24.86
		z"/>
	<path fill-rule="evenodd" clip-rule="evenodd" d="M10.43,23.46c-0.22,0.21-0.38,0.55-0.83,0.42c0.29-0.17,0.55-0.31,0.8-0.45
		C10.41,23.44,10.42,23.45,10.43,23.46z"/>
	<path fill-rule="evenodd" clip-rule="evenodd" d="M3.58,14.98c-0.39-0.41-0.78-0.82-1.18-1.23c0.03-0.04,0.07-0.08,0.1-0.12
		c0.45,0.29,0.91,0.58,1.36,0.87c0.03-0.02,0.06-0.04,0.08-0.07c-0.02-0.16-0.05-0.31-0.07-0.47c0.02-0.01,0.05-0.03,0.07-0.04
		c0.1,0.15,0.23,0.29,0.28,0.45c0.07,0.21-0.1,0.35-0.3,0.25c-0.28-0.13-0.54-0.29-0.84-0.4c0.2,0.44,0.78,0.51,0.91,1.11
		c-0.27-0.03-0.5-0.06-0.73-0.09c-0.02,0.03-0.04,0.06-0.06,0.08c0.24,0.26,0.48,0.53,0.77,0.85c-0.64-0.29-0.87-0.81-1.13-1.45
		c0.29,0.13,0.5,0.23,0.7,0.33C3.55,15.03,3.56,15,3.58,14.98z"/>
	<path fill-rule="evenodd" clip-rule="evenodd" d="M2.8,19.18c-0.6-0.95-1.08-1.95-1.43-3.03c0.03-0.01,0.05-0.03,0.08-0.04
		c0.22,0.47,0.43,0.94,0.65,1.42c0.22,0.49,0.44,0.99,0.66,1.48C2.78,19.07,2.78,19.13,2.8,19.18C2.79,19.19,2.8,19.18,2.8,19.18z"
		/>
	<path fill-rule="evenodd" clip-rule="evenodd" d="M3.17,20.67c-0.64-0.81-1.07-1.72-1.4-2.7C2.24,18.87,2.7,19.77,3.17,20.67z"/>
	<path fill-rule="evenodd" clip-rule="evenodd" d="M1.39,14.51c0.22,0.67,0.43,1.35,0.65,2.02C1.76,15.88,1.19,15.33,1.39,14.51z"/>
	<path fill-rule="evenodd" clip-rule="evenodd" d="M3.09,21.45c-0.55-0.58-0.89-1.29-1.19-2.02c0.03-0.02,0.05-0.03,0.08-0.05
		C2.34,20.08,2.71,20.77,3.09,21.45L3.09,21.45z"/>
	<path fill-rule="evenodd" clip-rule="evenodd" d="M2.5,16.47c-0.5-0.78-0.75-1.61-0.58-1.96C2.12,15.19,2.31,15.83,2.5,16.47z"/>
	<path fill-rule="evenodd" clip-rule="evenodd" d="M3.36,17.47C3.11,16.98,2.86,16.49,2.62,16c0.03-0.02,0.07-0.04,0.1-0.05
		c0.24,0.49,0.48,0.99,0.72,1.48C3.41,17.44,3.38,17.46,3.36,17.47z"/>
	<path fill-rule="evenodd" clip-rule="evenodd" d="M1.69,19.39c-0.1-0.51-0.2-1.03-0.3-1.54c0.03-0.01,0.05-0.01,0.08-0.02
		c0.11,0.51,0.22,1.01,0.33,1.52C1.76,19.37,1.72,19.38,1.69,19.39z"/>
	<path fill-rule="evenodd" clip-rule="evenodd" d="M22.89,23.62c0.01,0.58-0.31,0.99-0.7,1.35C22.42,24.52,22.66,24.07,22.89,23.62z
		"/>
	<path fill-rule="evenodd" clip-rule="evenodd" d="M6.67,26.95c-0.02-0.12-0.03-0.25-0.05-0.37c0.02,0,0.03-0.01,0.05-0.02
		c0.13,0.28,0.27,0.56,0.4,0.84c-0.77-0.47-1.2-1.15-1.32-2.15C6.09,25.87,6.2,26.51,6.67,26.95z"/>
	<path fill-rule="evenodd" clip-rule="evenodd" d="M5.72,22.52c0.16,0.7,0.31,1.37,0.47,2.06C5.91,24.2,5.65,23.1,5.72,22.52z"/>
	<path fill-rule="evenodd" clip-rule="evenodd" d="M25.48,20.61c-0.33,0.47-0.72,0.88-1.19,1.17c-0.02-0.03-0.05-0.06-0.07-0.08
		C24.65,21.33,25.07,20.97,25.48,20.61z"/>
	<path fill-rule="evenodd" clip-rule="evenodd" d="M23.75,21.52c0.35-0.23,0.72-0.47,1.1-0.71C24.69,21.19,23.94,21.64,23.75,21.52z
		"/>
	<path fill-rule="evenodd" clip-rule="evenodd" d="M24.34,19.23c-0.34,0.17-0.67,0.34-1.01,0.51c-0.01-0.03-0.03-0.06-0.04-0.09
		c0.33-0.17,0.66-0.35,0.99-0.52C24.3,19.16,24.32,19.19,24.34,19.23z"/>
	<g>
		<path fill-rule="evenodd" clip-rule="evenodd" fill="none" d="M9.59,13.76c-0.41,0.38-0.66,0.87-0.88,1.38
			c-0.3,0.69-0.66,1.36-0.98,2.04c-0.37,0.8-0.73,1.6-1.1,2.4c-0.06,0.13-0.14,0.24-0.22,0.36c-0.03-0.02-0.07-0.03-0.1-0.05
			c0.19-0.49,0.34-1,0.56-1.47c0.56-1.24,1.13-2.47,1.74-3.69c0.19-0.38,0.52-0.68,0.79-1.01c0.1-0.13,0.17-0.12,0.18,0.06
			C9.58,13.78,9.59,13.76,9.59,13.76z"/>
		<path fill-rule="evenodd" clip-rule="evenodd" fill="none" d="M17.25,27.14c0.06-0.1,0.13-0.21,0.2-0.32
			c0.15-0.3,0.3-0.61,0.46-0.94c0.23,0.39,0.16,0.6-0.56,1.96c-0.14,0.2-0.29,0.41-0.43,0.61c-0.24,0.14-0.48,0.27-0.72,0.42
			c-0.14,0.09-0.28,0.19-0.44,0.24c0.32-0.36,0.65-0.7,0.94-1.08C16.91,27.76,17.07,27.44,17.25,27.14z"/>
		<path fill-rule="evenodd" clip-rule="evenodd" fill="none" d="M16.91,28.46c0.14-0.2,0.29-0.41,0.43-0.61
			c0.2-0.33,0.41-0.66,0.61-1c0.06-0.1,0.08-0.21,0.12-0.32c0.04,0,0.08,0,0.12,0c0.03,0.16,0.13,0.36,0.07,0.47
			c-0.31,0.59-0.53,1.25-1.14,1.61c-0.07,0.04-0.17,0.06-0.28,0.09C16.88,28.59,16.9,28.53,16.91,28.46z"/>
		<g>
			<path fill-rule="evenodd" clip-rule="evenodd" fill="none" d="M7.47,21.55c-0.07,0.05-0.16,0.09-0.22,0.16
				c-0.13,0.14-0.25,0.3-0.37,0.45c-0.04-0.04-0.08-0.07-0.11-0.1c0.38-0.56,0.78-1.11,1.14-1.69c0.46-0.73,0.92-1.46,1.31-2.22
				c0.55-1.05,1-2.16,1.56-3.2c0.4-0.74,0.89-1.42,1.37-2.11c0.12-0.17,0.33-0.28,0.53-0.38c-0.45,0.69-0.92,1.37-1.33,2.08
				c-0.42,0.72-0.79,1.47-1.18,2.21c0.04,0.02,0.09,0.05,0.13,0.07c0.32-0.62,0.64-1.23,0.97-1.85c0.54-1,1.08-2,1.97-2.71
				c0.12-0.09,0.25-0.16,0.42-0.26c-0.03,0.12-0.05,0.2-0.08,0.35c0.2-0.14,0.33-0.27,0.49-0.34c0.42-0.18,0.85-0.46,1.28-0.48
				c0.5-0.03,0.87-0.34,1.35-0.39c-0.11,0.11-0.23,0.22-0.4,0.38c0.22-0.09,0.38-0.14,0.53-0.2c0.82-0.33,1.63-0.67,2.46-0.97
				c0.65-0.24,1.34-0.15,2.01-0.1c1.4,0.12,2.79,0.29,4.19,0.4c1.05,0.08,2.1,0.03,3.15,0.13c1.07,0.1,2.13,0.27,3.18,0.48
				c1.05,0.21,2.08,0.51,3.13,0.74c0.95,0.2,1.92,0.29,2.84,0.55c0.56,0.15,1.06,0.52,1.58,0.82c0.16,0.09,0.27,0.25,0.13,0.52
				c-0.11,0.2-0.06,0.48-0.11,0.71c-0.03,0.12-0.13,0.22-0.19,0.33c-0.03-0.02-0.06-0.03-0.09-0.05c0.02-0.09,0.04-0.19,0.07-0.32
				c-0.33,0.1-0.6,0.5-1.05,0.24c-0.02,0.02-0.11,0.09-0.23,0.19c-0.03-0.1-0.06-0.17-0.09-0.25c-0.09,0.04-0.19,0.08-0.28,0.12
				c-0.09-0.32-0.09-0.32-0.48-0.05c-0.03-0.1-0.06-0.2-0.11-0.34c-0.13,0.1-0.22,0.18-0.34,0.27c-0.02-0.13-0.03-0.24-0.05-0.39
				c-0.12,0.09-0.22,0.17-0.36,0.27c-0.03-0.15-0.05-0.27-0.08-0.42c-0.18,0.15-0.34,0.29-0.51,0.43c-0.03-0.02-0.05-0.05-0.08-0.07
				c0.07-0.15,0.13-0.3,0.2-0.45c-0.02-0.02-0.05-0.05-0.07-0.07c-0.15,0.13-0.31,0.25-0.5,0.41c0.04-0.19,0.07-0.34,0.11-0.53
				c-0.14,0.06-0.27,0.11-0.43,0.18c-0.05-0.48-0.1-0.93-0.15-1.38c-0.04-0.01-0.07-0.01-0.11-0.02c-0.1,0.53-0.21,1.06-0.71,1.47
				c0.08-0.27,0.13-0.46,0.18-0.64c-0.02-0.01-0.05-0.02-0.07-0.04c-0.14,0.24-0.29,0.49-0.43,0.73c-0.04-0.02-0.09-0.04-0.14-0.06
				c0.07-0.22,0.14-0.43,0.22-0.64c-0.02-0.01-0.03-0.03-0.05-0.04c-0.06,0.13-0.12,0.26-0.19,0.38c-0.07,0.13-0.16,0.25-0.24,0.38
				c-0.04-0.02-0.09-0.04-0.13-0.05c0.07-0.24,0.14-0.47,0.22-0.72c-0.23,0.27-0.45,0.53-0.67,0.79c-0.03-0.02-0.06-0.05-0.09-0.07
				c0.09-0.22,0.19-0.44,0.29-0.65c-0.03-0.02-0.06-0.04-0.08-0.06c-0.25,0.34-0.5,0.68-0.75,1.01c-0.02-0.01-0.04-0.03-0.06-0.04
				c0.14-0.33,0.29-0.65,0.43-0.98c-0.44,0.23-0.53,0.78-1,0.94c0.17-0.34,0.33-0.67,0.49-1.01c-0.03-0.02-0.05-0.04-0.08-0.05
				c-0.21,0.3-0.43,0.59-0.64,0.88c-0.02-0.01-0.05-0.02-0.08-0.04c0.1-0.27,0.21-0.54,0.31-0.81c-0.04-0.02-0.08-0.04-0.11-0.06
				c-0.16,0.25-0.32,0.51-0.47,0.76c-0.03-0.02-0.07-0.03-0.1-0.05c0.05-0.19,0.1-0.39,0.15-0.58c-0.02-0.02-0.04-0.03-0.07-0.05
				c-0.22,0.27-0.44,0.54-0.66,0.81c-0.02-0.01-0.04-0.03-0.06-0.04c0.15-0.31,0.29-0.63,0.44-0.94c-0.02-0.01-0.04-0.03-0.06-0.04
				c-0.17,0.22-0.35,0.44-0.52,0.66c-0.03-0.02-0.05-0.03-0.08-0.05c0.08-0.19,0.16-0.39,0.25-0.58c-0.01-0.02-0.02-0.05-0.03-0.07
				c-0.16,0.13-0.31,0.27-0.52,0.45c0.08-0.25,0.14-0.46,0.2-0.66c-0.02-0.01-0.04-0.01-0.06-0.02c-0.09,0.17-0.18,0.33-0.27,0.5
				c-0.04-0.01-0.07-0.02-0.1-0.03c0.01-0.24,0.02-0.49,0.04-0.77c-0.36,0.29-0.38,0.91-0.93,1.02c0.69-1.08,0.91-1.59,0.75-1.79
				c-0.26,0.68-0.52,1.36-1.14,1.76c-0.03-0.02-0.06-0.04-0.09-0.05c0.25-0.4,0.49-0.8,0.74-1.2c-0.01-0.01-0.03-0.02-0.04-0.03
				c-0.31,0.4-0.62,0.79-0.94,1.19c-0.04-0.03-0.08-0.06-0.13-0.1c0.2-0.33,0.4-0.66,0.6-1c-0.03-0.02-0.05-0.04-0.07-0.05
				c-0.26,0.34-0.51,0.67-0.77,1.01c-0.04-0.03-0.08-0.06-0.12-0.08c0.1-0.2,0.21-0.4,0.31-0.6c-0.02-0.02-0.04-0.03-0.05-0.05
				c-0.2,0.25-0.4,0.5-0.6,0.75c-0.04-0.01-0.07-0.01-0.1-0.02c0.03-0.11,0.05-0.24,0.09-0.34c0.06-0.14,0.14-0.26,0.22-0.39
				c-0.03-0.02-0.05-0.04-0.08-0.06c-0.19,0.21-0.38,0.42-0.56,0.63c-0.04-0.02-0.07-0.04-0.1-0.06c0.07-0.18,0.14-0.35,0.21-0.53
				c-0.01-0.01-0.03-0.03-0.04-0.04c-0.09,0.09-0.18,0.19-0.27,0.29c-0.09,0.1-0.17,0.22-0.25,0.33c-0.04-0.02-0.08-0.04-0.12-0.06
				c0.08-0.19,0.15-0.37,0.22-0.56c-0.01-0.01-0.02-0.02-0.03-0.03c-0.22,0.24-0.44,0.48-0.65,0.72c-0.03-0.02-0.07-0.04-0.1-0.05
				c0.07-0.17,0.14-0.34,0.23-0.58c-0.2,0.18-0.35,0.31-0.5,0.45c-0.02-0.02-0.05-0.04-0.08-0.06c0.1-0.23,0.19-0.46,0.29-0.69
				c-0.02-0.01-0.04-0.02-0.06-0.03c-0.14,0.2-0.28,0.39-0.42,0.59c-0.03-0.02-0.06-0.03-0.1-0.04c0.04-0.15,0.08-0.31,0.13-0.49
				c-0.11,0.05-0.2,0.1-0.34,0.16c0.04-0.2,0.08-0.35,0.11-0.5c-0.25,0.11-0.39,0.25-0.27,0.51c0.04,0.09,0.04,0.22,0.01,0.32
				c-0.02,0.08-0.11,0.15-0.16,0.22c-0.05-0.07-0.11-0.14-0.14-0.22c-0.05-0.16-0.09-0.33-0.13-0.5c-0.03,0.01-0.06,0.02-0.09,0.03
				c0.03,0.16,0.06,0.32,0.08,0.48c0.01,0.06-0.01,0.15-0.05,0.17c-0.04,0.02-0.14,0-0.17-0.03c-0.22-0.25-0.42-0.51-0.63-0.77
				c-0.09-0.11-0.16-0.23-0.24-0.35c-0.03,0.02-0.06,0.03-0.08,0.05c0.16,0.32,0.32,0.64,0.47,0.96C23.04,12.94,23,12.97,22.97,13
				c-0.24-0.29-0.48-0.58-0.71-0.87c-0.03,0.02-0.05,0.04-0.08,0.06c0.05,0.13,0.11,0.25,0.17,0.4c-0.09,0.05-0.17,0.09-0.29,0.15
				c0.12,0.07,0.2,0.11,0.29,0.17c0,0.03-0.01,0.06-0.02,0.1c-1.57-0.41-3.11-1.05-4.78-0.55c0-0.04,0-0.07,0-0.11
				c0.1-0.08,0.19-0.15,0.32-0.26c-1.19,0.24-1.96,1.02-2.64,1.94c0.25-0.24,0.49-0.49,0.77-0.7c0.22-0.17,0.4-0.54,0.85-0.33
				c0.09-0.06,0.27-0.16,0.5-0.3c-0.01,0.14-0.02,0.21-0.02,0.29c0.02,0,0.04,0.01,0.06,0c0.15-0.1,0.29-0.21,0.43-0.31
				c0.1-0.06,0.21-0.16,0.3-0.16c0.69,0.03,1.38-0.16,2.08,0.12c0.92,0.37,1.9,0.53,2.9,0.63c0.68,0.07,1.35,0.32,2.03,0.45
				c0.3,0.06,0.63,0.01,0.94,0.06c0.41,0.06,0.82,0.16,1.22,0.26c0.26,0.06,0.51,0.16,0.77,0.24c0.21,0.07,0.46,0.1,0.62,0.24
				c0.63,0.57,1.43,0.64,2.18,0.86c0.34,0.1,0.66,0.27,0.98,0.4c-0.01,0.04-0.02,0.09-0.04,0.13c-0.26-0.05-0.53-0.11-0.79-0.16
				c0,0.01,0,0.03-0.01,0.04c0.23,0.08,0.47,0.15,0.7,0.23c-0.01,0.04-0.02,0.08-0.04,0.13c-0.72-0.19-1.43-0.39-2.15-0.58
				c0.01-0.05,0.03-0.1,0.05-0.17c-0.42,0.01-0.7,0.24-0.88,0.61c-0.17,0.36-0.06,0.71,0.19,0.97c0.61,0.62,1.35,0.97,2.21,0.92
				c0.15-0.01,0.35-0.13,0.44-0.26c0.25-0.4,0.45-0.83,0.66-1.21c0.24,0.38,0,1.25-0.49,1.53c-0.57,0.34-1.2,0.33-1.82,0.37
				c-0.09,0.01-0.17-0.09-0.27-0.1c-1.33,0.13-2.45-0.48-3.53-1.08c0.03-0.36,0.05-0.67,0.07-0.97c-0.03,0-0.06-0.01-0.08-0.01
				c-0.04,0.16-0.09,0.32-0.13,0.5c-0.42-0.51-0.1-1.1-0.26-1.64c-0.02,0.2-0.04,0.4-0.06,0.61c-0.03,0.3-0.03,0.62-0.45,0.71
				c0.13,0.05,0.26,0.1,0.42,0.16c-0.03,0.11-0.06,0.21-0.1,0.34c0.1,0.02,0.19,0.03,0.27,0.04c0,0.02,0,0.05-0.01,0.07
				c-0.19,0-0.38,0-0.61,0c-0.11,0.18-0.67,0.4-1.14,0.37c0.43-0.16,0.88-0.3,1.11-0.77c-0.14,0.1-0.28,0.19-0.46,0.32
				c0.02-0.15,0.03-0.24,0.04-0.39c-0.16,0.19-0.28,0.35-0.41,0.5c-0.05,0.05-0.14,0.05-0.21,0.07c-0.01-0.07-0.02-0.15-0.03-0.24
				c-0.09,0.07-0.19,0.14-0.28,0.21c-0.02-0.02-0.04-0.03-0.06-0.05c0.11-0.22,0.22-0.44,0.33-0.67c-0.02-0.01-0.04-0.02-0.06-0.04
				c-0.24,0.3-0.48,0.6-0.72,0.91c-0.04-0.02-0.08-0.04-0.11-0.07c0.1-0.24,0.2-0.48,0.31-0.72c-0.01-0.01-0.02-0.01-0.04-0.02
				c-0.22,0.28-0.43,0.57-0.65,0.85c-0.03-0.02-0.06-0.04-0.09-0.06c0.1-0.22,0.2-0.44,0.3-0.65c-0.01-0.01-0.02-0.02-0.04-0.03
				c-0.19,0.23-0.38,0.46-0.58,0.7c-0.02-0.02-0.05-0.03-0.07-0.05c0.09-0.24,0.17-0.47,0.26-0.71c-0.02-0.01-0.04-0.02-0.05-0.03
				c-0.15,0.21-0.26,0.49-0.46,0.62c-0.15,0.1-0.42,0.02-0.66,0.02c0.08-0.16,0.16-0.32,0.29-0.56c-0.19,0.19-0.32,0.32-0.45,0.44
				c-0.03-0.02-0.05-0.04-0.08-0.06c0.06-0.18,0.13-0.36,0.19-0.54c-0.02-0.02-0.05-0.04-0.07-0.07c-0.06,0.09-0.12,0.17-0.17,0.26
				c-0.1,0.19-0.2,0.24-0.42,0.14c-0.36-0.17-0.75-0.27-1.17-0.33c0.41,0.23,0.81,0.49,1.23,0.69c0.42,0.2,0.93,0.13,1.32,0.42
				c-0.59,0.16-1.16,0.13-1.69-0.13c-0.5-0.24-0.99-0.54-1.46-0.83c-0.09-0.06-0.11-0.24-0.18-0.42c-0.02,0.05-0.1,0.17-0.07,0.22
				c0.11,0.19,0.23,0.42,0.4,0.51c0.5,0.28,1.03,0.5,1.54,0.75c0.06,0.03,0.12,0.06,0.18,0.09c-0.01,0.03-0.02,0.06-0.02,0.09
				c-0.74-0.2-1.48-0.4-2.22-0.6c-0.01,0.03-0.02,0.06-0.03,0.09c0.3,0.09,0.6,0.17,0.89,0.27c0.15,0.05,0.28,0.15,0.45,0.25
				c-0.22,0.13-0.38,0.22-0.48,0.27c0.1,0.29,0.18,0.52,0.25,0.75c-0.05,0.02-0.09,0.03-0.14,0.05c-0.03-0.1-0.05-0.21-0.08-0.32
				c-0.19,0.15-0.39,0.31-0.59,0.47c-0.01-0.07-0.02-0.14-0.03-0.21c-0.26,0.07-0.98,1.14-0.98,1.42c0.17-0.17,0.35-0.35,0.54-0.53
				c-0.03,0.23-0.06,0.46-0.1,0.68c0.11-0.14,0.41-0.13,0.28-0.49c-0.04-0.1,0.21-0.32,0.36-0.45c0.07,0.52-0.63,1.73-1.04,1.79
				c0.13-0.2,0.23-0.37,0.33-0.54c-0.41,0.27-0.47,0.95-1.09,0.99c0.31-0.43,0.6-0.84,0.9-1.26c-0.03-0.03-0.06-0.06-0.09-0.09
				c-0.1,0.12-0.22,0.22-0.31,0.35c-0.23,0.35-0.46,0.7-0.68,1.06c-0.02,0.03-0.06,0.07-0.08,0.07c-0.35-0.1-0.53,0.3-0.86,0.34
				c0.31-0.44,0.6-0.84,0.88-1.24c-0.02-0.01-0.03-0.02-0.05-0.03c-0.39,0.46-0.78,0.92-1.17,1.38c-0.03-0.02-0.06-0.04-0.09-0.07
				c0-0.08,0-0.17,0-0.29c-0.19,0.18-0.35,0.34-0.51,0.5c-0.03-0.03-0.06-0.06-0.09-0.1c0.13-0.15,0.25-0.3,0.38-0.45
				c-0.02-0.03-0.05-0.05-0.07-0.07c-0.22,0.21-0.45,0.42-0.67,0.64c-0.23,0.23-0.43,0.48-0.67,0.68c-0.24,0.2-0.52,0.36-0.83,0.48
				c0.86-0.92,1.97-1.58,2.58-2.79c-0.53,0.57-1.04,1.11-1.55,1.65c-0.04-0.04-0.08-0.07-0.11-0.1c1.14-1.04,1.85-2.37,2.39-3.8
				c-0.03-0.01-0.05-0.03-0.08-0.04c-0.03,0.07-0.06,0.14-0.09,0.22c-0.03,0.09-0.05,0.19-0.1,0.27c-0.43,0.75-0.86,1.5-1.31,2.23
				c-0.44,0.72-1.15,1-1.88,1.19c-0.9,0.23-1.82,0.25-2.75,0.11c-0.06-0.01-0.12-0.04-0.16-0.05c0.48-0.6,0.96-1.19,1.43-1.78
				c-0.05-0.05-0.1-0.1-0.14-0.14c-0.15,0.21-0.31,0.42-0.46,0.63c-0.15,0.21-0.28,0.44-0.46,0.62c-0.24,0.23-0.51,0.42-0.82,0.57
				c0.67-0.72,1.38-1.38,1.75-2.33c-0.23,0.31-0.44,0.64-0.71,0.92c-0.4,0.43-0.84,0.81-1.27,1.21c-0.03,0.02-0.06,0.04-0.08,0.07
				c-0.34,0.49-0.68,0.98-1.02,1.47l0.01-0.01c-0.22,0.19-0.45,0.37-0.67,0.56c-0.02-0.02-0.04-0.04-0.07-0.07
				c0.92-1.36,2.2-2.4,3.12-3.75c-0.38,0.43-0.75,0.85-1.13,1.28c-0.05-0.04-0.09-0.09-0.14-0.13c0.46-0.62,0.92-1.23,1.38-1.85
				c-0.03-0.02-0.06-0.05-0.08-0.07c-0.55,0.71-1.08,1.43-1.76,1.99c-0.03-0.03-0.06-0.05-0.08-0.08c0.46-0.54,0.92-1.07,1.38-1.61
				c-0.03-0.03-0.05-0.05-0.08-0.08c-0.4,0.42-0.8,0.85-1.2,1.27c-0.03-0.03-0.06-0.06-0.09-0.09c0.33-0.42,0.67-0.84,1-1.27
				c-0.02-0.02-0.04-0.04-0.05-0.06c-0.38,0.42-0.77,0.84-1.15,1.26c-0.02-0.02-0.04-0.04-0.05-0.05c0.51-0.81,1.02-1.61,1.53-2.42
				c-0.02-0.02-0.05-0.03-0.07-0.05c-0.84,1.2-1.69,2.4-2.53,3.61c0.02,0.02,0.04,0.04,0.06,0.06c0.23-0.32,0.46-0.65,0.7-0.97
				c-0.26,0.82-0.7,1.48-1.38,1.98c0.2-0.29,0.39-0.59,0.59-0.88c-0.02-0.01-0.03-0.03-0.05-0.04c-0.16,0.12-0.32,0.24-0.47,0.37
				c-0.01-0.01-0.02-0.03-0.03-0.04C7.08,22.15,7.27,21.84,7.47,21.55c0.57-0.81,1.18-1.59,1.71-2.42c0.37-0.58,0.62-1.23,0.93-1.85
				c-0.03-0.02-0.07-0.03-0.1-0.05c-0.15,0.35-0.27,0.72-0.47,1.04c-0.61,0.95-1.26,1.87-1.88,2.81
				C7.57,21.21,7.54,21.39,7.47,21.55z M13.7,12.62c-0.47,0.2-1.81,2.19-1.94,2.97C12.4,14.61,13.08,13.56,13.7,12.62z M13.1,14.78
				c0.84-0.97,1.62-1.86,2.4-2.76C14.59,12.79,13.7,13.58,13.1,14.78z M12.06,22.24c0.78-0.63,1.32-1.44,1.71-2.37
				C13.2,20.65,12.63,21.44,12.06,22.24z M13.95,21.74c0.73-0.69,1.21-1.56,1.5-2.56C14.95,20.03,14.45,20.88,13.95,21.74z
				 M12.44,13.61c-0.03-0.02-0.07-0.05-0.1-0.07c-0.54,0.99-1.08,1.97-1.62,2.96c0.04,0.02,0.08,0.04,0.11,0.07
				C11.37,15.57,11.91,14.59,12.44,13.61z M11.47,22.24c0.43-0.09,1.49-1.36,1.55-1.84C12.52,21,11.98,21.63,11.47,22.24z
				 M10.94,22.24c0.69-0.48,1.52-1.52,1.55-1.85C11.98,21,11.46,21.62,10.94,22.24z M16.42,12.5c-0.02-0.04-0.05-0.07-0.07-0.11
				c-0.51,0.4-1.04,0.78-1.37,1.4C15.46,13.35,15.94,12.93,16.42,12.5z M15.41,12.73c-0.65,0.38-1.05,0.98-1.43,1.61
				C14.46,13.8,14.94,13.26,15.41,12.73z M14.64,20.08c-0.04-0.03-0.08-0.06-0.13-0.09c-0.28,0.48-0.56,0.96-0.85,1.44
				c0.04,0.03,0.07,0.05,0.11,0.07C14.06,21.03,14.35,20.55,14.64,20.08z M18.23,19c-0.04-0.02-0.07-0.05-0.1-0.07
				c-0.41,0.29-0.44,0.84-0.74,1.21c0.03,0.02,0.07,0.05,0.1,0.07C17.74,19.8,17.99,19.4,18.23,19z M12.7,22.18
				c0.58-0.44,0.87-1.04,1.14-1.66C13.47,21.05,13.1,21.6,12.7,22.18z M17.27,20.3c-0.23,0.45-0.43,0.85-0.64,1.26
				C17.19,21.04,17.34,20.75,17.27,20.3z M18.53,18.54c0.19-0.18,0.4-0.38,0.61-0.57c-0.71-0.14-0.77-0.11-0.86,0.44
				c0.09-0.14,0.19-0.28,0.28-0.43c0.04,0.02,0.08,0.05,0.13,0.07C18.64,18.21,18.58,18.38,18.53,18.54z M13.53,12.44
				c-0.03-0.03-0.07-0.06-0.1-0.1c-0.31,0.35-0.63,0.7-0.79,0.89C12.83,13.06,13.18,12.75,13.53,12.44z M12.21,20.24
				c-0.02-0.02-0.05-0.04-0.07-0.06c-0.32,0.41-0.65,0.81-0.97,1.21c0.03,0.02,0.05,0.05,0.08,0.07
				C11.58,21.05,11.89,20.65,12.21,20.24z M17.01,19.03c-0.02-0.01-0.05-0.03-0.07-0.04c-0.25,0.46-0.5,0.93-0.75,1.39
				c0.03,0.02,0.06,0.03,0.09,0.05C16.52,19.97,16.76,19.5,17.01,19.03z M27.13,16.8c-0.02-0.03-0.03-0.07-0.05-0.1
				c-0.27,0.13-0.53,0.25-0.8,0.38c0.02,0.05,0.04,0.09,0.07,0.14C26.61,17.09,26.88,16.95,27.13,16.8z M15.69,21.62
				c0.03,0.02,0.06,0.05,0.09,0.07c0.22-0.32,0.43-0.65,0.65-0.97c-0.03-0.02-0.06-0.04-0.09-0.07
				C16.13,20.97,15.91,21.3,15.69,21.62z M14,12.98c-0.02-0.02-0.04-0.04-0.06-0.06c-0.24,0.3-0.47,0.6-0.71,0.89
				c0.03,0.03,0.06,0.05,0.09,0.08C13.55,13.59,13.77,13.29,14,12.98z M16.93,11.69c-0.01-0.03-0.03-0.06-0.05-0.09
				c-0.35,0.21-0.69,0.41-1.04,0.62c0.02,0.03,0.03,0.06,0.05,0.09C16.24,12.11,16.59,11.9,16.93,11.69z"/>
			<path fill-rule="evenodd" clip-rule="evenodd" fill="none" d="M17.25,27.14c-0.47,0.7-1,1.34-1.72,1.78
				c-0.08,0.05-0.16,0.1-0.24,0.15c-0.05,0.03-0.1,0.04-0.19,0.02c0.3-0.29,0.59-0.58,0.89-0.87c-0.01-0.02-0.02-0.03-0.03-0.05
				c-0.34,0.24-0.68,0.47-1.02,0.71c-0.02-0.03-0.03-0.05-0.05-0.08c0.2-0.19,0.4-0.38,0.6-0.57c-0.02-0.02-0.03-0.04-0.05-0.07
				c-0.42,0.31-0.85,0.62-1.27,0.94c-0.02-0.03-0.05-0.06-0.07-0.09c0.27-0.25,0.54-0.5,0.8-0.75c0.26-0.26,0.51-0.53,0.75-0.82
				c-0.78,0.52-1.38,1.28-2.24,1.67c0.51-0.48,1.02-0.97,1.53-1.46c-0.76,0.25-1.22,1.02-2.01,1.18c0.56-0.48,1.13-0.96,1.69-1.44
				c-0.02-0.03-0.04-0.06-0.06-0.09c-0.46,0.32-0.93,0.64-1.39,0.96c-0.01-0.02-0.03-0.04-0.04-0.06c0.47-0.46,0.93-0.92,1.4-1.37
				c-0.02-0.03-0.04-0.07-0.06-0.1c-0.69,0.66-1.35,1.37-2.31,1.56c0.61-0.37,1.2-0.75,1.65-1.34c-0.92,0.48-1.73,1.17-2.75,1.42
				c1.15-0.59,2.24-1.29,3.08-2.34c-1.1,0.93-2.23,1.8-3.66,2.27c0.86-0.57,1.65-1.09,2.44-1.61c-0.03-0.05-0.05-0.11-0.08-0.16
				c-0.83,0.72-1.74,1.27-2.81,1.5c1.12-0.49,2.13-1.13,2.89-2.15c-0.93,0.97-1.97,1.72-3.35,1.87c0.27-0.45,0.81-0.29,1.11-0.63
				c-0.42,0.14-0.84,0.29-1.27,0.43c-0.01-0.02-0.02-0.04-0.03-0.06c0.35-0.2,0.69-0.39,1.03-0.59c-0.01-0.02-0.01-0.03-0.02-0.05
				c-0.34,0.13-0.68,0.25-1.02,0.38c-0.02-0.04-0.03-0.08-0.05-0.11c0.24-0.17,0.49-0.35,0.73-0.52c0-0.01-0.01-0.03-0.01-0.04
				c-0.36,0.16-0.73,0.33-1.1,0.49c-0.02-0.04-0.04-0.08-0.06-0.12c0.28-0.21,0.55-0.42,0.83-0.62c-0.01-0.02-0.03-0.04-0.04-0.06
				c-0.32,0.16-0.63,0.32-0.95,0.48c-0.02-0.03-0.04-0.06-0.06-0.09c0.04-0.09,0.08-0.17,0.13-0.27c-0.13,0.05-0.24,0.09-0.42,0.15
				c0.05-0.14,0.08-0.21,0.12-0.31c-0.15,0.05-0.29,0.09-0.42,0.13c-0.04-0.05-0.08-0.1-0.13-0.15c0.26-0.26,0.52-0.52,0.71-0.7
				c-0.15,0.1-0.41,0.28-0.67,0.45c-0.02-0.02-0.04-0.04-0.07-0.07c0.16-0.19,0.32-0.38,0.48-0.57c-0.02-0.03-0.04-0.06-0.05-0.08
				c-0.15,0.09-0.29,0.18-0.44,0.27c-0.02-0.02-0.04-0.05-0.07-0.07c0.26-0.26,0.51-0.52,0.77-0.78c-0.02-0.03-0.04-0.05-0.06-0.08
				c-0.35,0.29-0.69,0.58-1.1,0.92c0.45-1.18,1.62-1.25,2.37-1.89c-0.02-0.03-0.03-0.06-0.05-0.09c-0.47,0.22-0.95,0.44-1.46,0.68
				c0.48-0.44,0.94-0.86,1.39-1.27c-0.01-0.03-0.03-0.06-0.04-0.08c-0.06,0.13-0.11,0.26-0.16,0.37c0.3-0.12,0.6-0.24,0.91-0.36
				c0.04,0.05,0.07,0.09,0.11,0.14c-0.17,0.08-0.34,0.16-0.51,0.24c0.04,0.04,0.07,0.08,0.11,0.12c0.31-0.25,0.62-0.5,0.93-0.75
				c0.04,0.05,0.09,0.1,0.13,0.16c-0.25,0.23-0.51,0.46-0.76,0.69c-0.25,0.14-0.51,0.28-0.8,0.45c0.45,0.13,0.61-0.21,0.83-0.42
				c0.22-0.18,0.46-0.33,0.65-0.54c0.17-0.19,0.32-0.2,0.57-0.07c-0.44,0.37-0.86,0.72-1.33,1.12c0.38,0.05,0.7,0.09,1.04,0.14
				c0,0,0,0.05-0.02,0.23c0.29-0.2,0.52-0.37,0.75-0.53c0.02,0.02,0.04,0.04,0.06,0.07c-0.08,0.1-0.15,0.2-0.23,0.29
				c-0.1,0.1-0.21,0.18-0.31,0.27c0.02,0.03,0.04,0.05,0.05,0.08c0.33-0.25,0.66-0.51,0.99-0.76c0.02,0.02,0.04,0.04,0.06,0.07
				c-0.43,0.48-0.85,0.95-1.28,1.43c0.67-0.46,1.15-1.15,1.8-1.62c0.03,0.04,0.06,0.07,0.09,0.1c-0.25,0.28-0.49,0.56-0.74,0.85
				c0.03,0.03,0.07,0.07,0.1,0.1c0.14-0.19,0.27-0.4,0.44-0.57c0.17-0.18,0.38-0.32,0.56-0.49c0.18-0.17,0.35-0.34,0.53-0.52
				c0.02,0.03,0.04,0.05,0.07,0.07c-0.02,0.07-0.04,0.13-0.05,0.2c-0.42,0.27-0.72,0.65-0.91,1.12c0.31-0.37,0.62-0.73,0.93-1.1
				c0.25-0.17,0.5-0.34,0.75-0.51c0.01,0.02,0.03,0.03,0.04,0.05c-0.44,0.47-0.88,0.93-1.31,1.4c0.02,0.03,0.05,0.06,0.07,0.09
				c0.09-0.07,0.22-0.11,0.27-0.2c0.39-0.72,1.04-1.1,1.71-1.46c-0.52,0.52-1.05,1.04-1.57,1.56c0.04,0.04,0.07,0.09,0.11,0.13
				c0.5-0.67,1.12-1.17,1.91-1.58c-0.07,0.17-0.11,0.25-0.16,0.38c0.31-0.14,0.59-0.26,0.86-0.38c0.01,0.02,0.02,0.05,0.04,0.07
				c-0.27,0.19-0.54,0.38-0.82,0.57c0.01,0.02,0.02,0.04,0.03,0.06c0.36-0.17,0.72-0.34,1.07-0.51c0.02,0.02,0.03,0.05,0.05,0.08
				c-0.11,0.1-0.22,0.2-0.37,0.33c0.09,0,0.13,0,0.22,0c-0.06,0.1-0.1,0.17-0.16,0.27c0.16-0.06,0.3-0.11,0.43-0.17
				c0.01,0.02,0.03,0.04,0.04,0.07c-0.17,0.13-0.33,0.26-0.58,0.45c0.27-0.09,0.45-0.14,0.63-0.2c0.02,0.04,0.04,0.08,0.06,0.12
				c-0.24,0.2-0.48,0.41-0.73,0.61c0.01,0.02,0.03,0.04,0.04,0.06c0.32-0.22,0.63-0.43,0.95-0.65c0.03,0.03,0.05,0.06,0.08,0.09
				c-0.19,0.19-0.39,0.38-0.58,0.57c0.01,0.02,0.03,0.04,0.04,0.07c0.18-0.1,0.37-0.19,0.55-0.29c0.02,0.02,0.03,0.03,0.05,0.05
				c-0.03,0.06-0.07,0.12-0.09,0.19c-0.04,0.13-0.12,0.28-0.08,0.38c0.09,0.24,0.04,0.44-0.04,0.66c-0.12,0.35-0.2,0.71-0.3,1.07
				C17.38,26.93,17.31,27.03,17.25,27.14z M15.61,24.86c0.18-0.26,0.33-0.49,0.5-0.73C15.64,24.33,15.53,24.47,15.61,24.86z"/>
			<path fill-rule="evenodd" clip-rule="evenodd" fill="none" d="M3.09,21.45c0.32,0.5,0.65,1,0.96,1.5c0.12,0.2,0.2,0.43,0.24,0.68
				c-1.14-1.07-1.85-2.44-2.58-3.75c-0.06,1.47-0.12,2.99-0.18,4.52c-0.02,0-0.04,0.01-0.06,0.01c-0.03-0.12-0.07-0.25-0.07-0.37
				c-0.1-1.61-0.19-3.22-0.3-4.83c-0.06-0.92-0.18-1.84-0.27-2.76c-0.03-0.29,0.22-0.51,0.16-0.84c-0.2-1.14,0.01-2.26,0.24-3.38
				c0.04-0.2,0.14-0.31,0.35-0.34c0.38-0.07,0.75,0.1,0.83,0.38c0.66,0.18,1.16,0.78,1.88,0.69c-0.01-0.06-0.02-0.12-0.03-0.21
				c0.25,0.06,0.47,0.13,0.78,0.21c-0.99,0.74-1.76,0.06-2.56-0.26c-0.02,0.05-0.03,0.1-0.05,0.14c0.41,0.33,0.82,0.66,1.23,1
				c0.02-0.02,0.04-0.03,0.05-0.04c-0.09-0.13-0.19-0.27-0.28-0.4c0-0.04,0.01-0.07,0.01-0.11c0.83,0.63,1.54,0.18,2.26-0.21
				c-0.99,1.53-1.4,3.13-1.25,4.98c0.12,1.48,0.46,2.91,0.6,4.38c0.1,1.03,0.2,2.06,0.28,3.1c0.07,0.84,0.09,1.68,0.15,2.51
				c0.01,0.12,0.09,0.24,0.17,0.34c0.19,0.24,0.4,0.47,0.65,0.75c-0.11,0-0.17,0.02-0.19,0c-0.34-0.43-0.84-0.71-0.94-1.35
				c-0.16-1.09-0.37-2.18-0.56-3.27c-0.25-1.46-0.53-2.92-0.72-4.39c-0.11-0.85-0.04-1.72-0.06-2.58c0-0.11,0-0.22-0.06-0.34
				c-0.32,0.44,0.03,0.96-0.19,1.41c-0.09-0.1-0.19-0.21-0.33-0.37c0.09,0.43,0.49,0.68,0.33,1.21c-0.22-0.33-0.39-0.6-0.57-0.86
				c0.14,0.63,0.75,1.06,0.65,1.91c-0.24-0.38-0.43-0.69-0.63-0.99c-0.08-0.12-0.19-0.22-0.28-0.34c-0.01-0.06-0.01-0.12-0.03-0.17
				c-0.22-0.5-0.44-0.99-0.66-1.48c-0.21-0.47-0.43-0.95-0.65-1.42c-0.03,0.01-0.05,0.03-0.08,0.04c0.35,1.07,0.83,2.08,1.43,3.03
				c0.14,0.25,0.28,0.5,0.42,0.75c0.2,0.35,0.42,0.7,0.6,1.07c0.09,0.19,0.11,0.41,0.16,0.62c-0.03,0.02-0.06,0.03-0.09,0.05
				c-0.13-0.17-0.27-0.33-0.4-0.5c-0.01,0.01-0.03,0.02-0.04,0.02c0.25,0.5,0.51,0.99,0.76,1.49c-0.03,0.02-0.07,0.04-0.1,0.06
				C3.76,22.32,3.42,21.89,3.09,21.45c-0.38-0.69-0.74-1.38-1.11-2.07c-0.03,0.02-0.05,0.03-0.08,0.05
				C2.2,20.17,2.54,20.87,3.09,21.45z M3.58,14.98C3.56,15,3.55,15.03,3.54,15.05c-0.21-0.1-0.42-0.19-0.7-0.33
				c0.25,0.65,0.49,1.17,1.13,1.45c-0.29-0.32-0.53-0.59-0.77-0.85c0.02-0.03,0.04-0.06,0.06-0.08c0.23,0.03,0.46,0.05,0.73,0.09
				c-0.13-0.59-0.71-0.67-0.91-1.11c0.3,0.11,0.56,0.27,0.84,0.4c0.2,0.09,0.37-0.04,0.3-0.25c-0.05-0.16-0.18-0.3-0.28-0.45
				c-0.02,0.01-0.05,0.03-0.07,0.04c0.02,0.16,0.05,0.31,0.07,0.47c-0.03,0.02-0.06,0.05-0.08,0.07c-0.45-0.29-0.91-0.58-1.36-0.87
				c-0.03,0.04-0.07,0.08-0.1,0.12C2.79,14.16,3.18,14.57,3.58,14.98z M3.17,20.67c-0.47-0.9-0.93-1.8-1.4-2.7
				C2.1,18.94,2.53,19.86,3.17,20.67z M1.39,14.51c-0.2,0.82,0.37,1.37,0.65,2.02C1.82,15.85,1.6,15.18,1.39,14.51z M2.5,16.47
				c-0.19-0.64-0.38-1.28-0.58-1.96C1.76,14.86,2.01,15.69,2.5,16.47z M3.36,17.47c0.03-0.01,0.05-0.03,0.08-0.04
				c-0.24-0.49-0.48-0.99-0.72-1.48c-0.03,0.02-0.07,0.04-0.1,0.05C2.86,16.49,3.11,16.98,3.36,17.47z M1.69,19.39
				c0.03-0.01,0.07-0.02,0.1-0.03c-0.11-0.51-0.22-1.01-0.33-1.52c-0.03,0.01-0.05,0.01-0.08,0.02C1.49,18.36,1.59,18.88,1.69,19.39
				z"/>
			<path fill-rule="evenodd" clip-rule="evenodd" fill="none" d="M23.17,23.88c0.07-0.15,0.1-0.24,0.14-0.33
				c0.2-0.35,0.34-0.75,0.62-1.02c0.17-0.16,0.53-0.09,0.81-0.13c0.25-0.04,0.51-0.09,0.76-0.11c0.67-0.05,1.15-0.5,1.7-0.8
				c0.9-0.51,0.84-0.35,1.02,0.48c0.09,0.42-0.07,0.79-0.35,1.09c-0.22,0.24-0.44,0.5-0.68,0.78c-0.04-0.09-0.08-0.15-0.12-0.25
				c-0.2,0.23-0.39,0.44-0.57,0.65c-0.01-0.02-0.03-0.08-0.07-0.19c-0.07,0.18-0.13,0.33-0.22,0.53c-0.06-0.12-0.1-0.2-0.18-0.36
				c-0.08,0.24-0.13,0.41-0.18,0.58c-0.02,0-0.05,0-0.07,0.01c-0.03-0.13-0.06-0.27-0.09-0.4c-0.02,0-0.04-0.01-0.06-0.01
				c-0.05,0.16-0.09,0.32-0.17,0.58c-0.07-0.2-0.11-0.31-0.19-0.53c-0.12,0.21-0.2,0.37-0.31,0.55c-0.06-0.08-0.11-0.16-0.16-0.24
				c-0.08,0.14-0.17,0.27-0.29,0.46c-0.06-0.18-0.09-0.27-0.13-0.38c-0.1,0.12-0.19,0.22-0.3,0.35c-0.01-0.09-0.02-0.15-0.04-0.25
				c-0.12,0.09-0.21,0.16-0.34,0.26c0.07-0.37-0.14-0.19-0.28-0.13c0-0.11,0-0.17,0-0.23c-0.02-0.01-0.04-0.02-0.06-0.03
				c-0.08,0.13-0.16,0.26-0.24,0.39c-0.12-0.41,0.27-0.55,0.41-0.86c-0.35,0.13-0.63,0.59-0.61,1.02c-0.37-0.09-0.75-0.11-1.06-0.28
				c-0.35-0.2-0.71-0.26-1.07-0.37c-0.27-0.08-0.52-0.23-0.79-0.31c-0.15-0.04-0.33,0.01-0.49-0.02c-0.18-0.03-0.38-0.06-0.52-0.15
				c-0.24-0.16-0.45-0.38-0.67-0.57c0.02-0.03,0.04-0.06,0.06-0.08c0.37,0.15,0.73,0.31,1.1,0.47c0.01-0.03,0.02-0.06,0.03-0.09
				c-0.15-0.06-0.3-0.12-0.5-0.2c0.11-0.06,0.18-0.09,0.24-0.12c-0.63-1.02-0.63-1.02-0.57-1.19c-0.12,0.09-0.23,0.19-0.34,0.28
				c-0.06-0.27-0.03-0.33,0.57-0.97c-1.11,0.33-0.95,1.12-0.65,1.99c-0.46-0.36-0.56-1.24-0.27-1.67c0.43-0.64,1.34-0.98,1.75-0.69
				c-0.22,0.08-0.46,0.16-0.7,0.25c0.01,0.03,0.01,0.05,0.02,0.08c0.32-0.03,0.64-0.05,0.97-0.07c0,0.02,0.01,0.04,0.01,0.06
				c-0.19,0.11-0.38,0.22-0.6,0.35c0.27,0.06,0.5,0.11,0.75,0.17c-0.05-0.07-0.08-0.11-0.12-0.16c0.01-0.02,0.02-0.05,0.02-0.07
				c0.19,0.07,0.38,0.14,0.64,0.24c-0.12,0.07-0.17,0.09-0.26,0.14c0.06,0.05,0.11,0.09,0.21,0.18c-0.2-0.04-0.34-0.06-0.48-0.09
				c0.23-0.01,0.41,0.57,0.7,0.08c0.18,0.18,0.34,0.35,0.07,0.51c0.05,0.1,0.16,0.22,0.14,0.3c-0.07,0.22-0.19,0.04-0.3,0
				c-0.26-0.09-0.53-0.16-0.82-0.18c0.24,0.09,0.48,0.16,0.7,0.28c0.13,0.07,0.21,0.24,0.31,0.36c-0.17,0.12-0.33,0.24-0.51,0.35
				c-0.04,0.03-0.11,0-0.18,0.06c0.16,0.08,0.32,0.16,0.51,0.25c0.17-0.34,0.39-0.63,0.46-0.96c0.06-0.32-0.03-0.68-0.06-1.02
				c0.11-0.07,0.24-0.16,0.38-0.24c-0.01,0.02-0.02,0.05-0.02,0.07c0.26,0.04,0.52,0.08,0.79,0.11c-0.06,0.13-0.14,0.3-0.21,0.47
				c0.02,0.01,0.03,0.02,0.05,0.03c0.09-0.15,0.17-0.31,0.28-0.46c0.14-0.19,0.26-0.17,0.31,0.08c0.09-0.06,0.18-0.12,0.27-0.18
				c0.02,0.01,0.03,0.03,0.05,0.04c-0.27,0.5-0.54,0.99-0.8,1.49c0.03,0.02,0.06,0.04,0.09,0.05c0.38-0.58,0.6-1.31,1.36-1.68
				C23.49,22.82,23.04,23.17,23.17,23.88z M22.89,23.62c-0.23,0.45-0.47,0.9-0.7,1.35C22.58,24.61,22.9,24.21,22.89,23.62z"/>
			<path fill-rule="evenodd" clip-rule="evenodd" fill="none" d="M6.06,27.28c-0.54-0.48-0.42-1.07-0.5-1.59
				c-0.15-0.99-0.29-1.98-0.39-2.98c-0.19-1.86-0.64-3.69-0.53-5.58c0.01-0.19,0.05-0.39,0.12-0.58c0.08,0.6,0.15,1.19,0.22,1.79
				c0.03,0,0.05,0,0.08-0.01c-0.02-0.29-0.06-0.58-0.07-0.87c-0.03-0.68-0.06-1.37-0.06-2.05c0-0.32,0.32-0.54,0.68-0.52
				c0.2,0.01,0.39,0,0.64,0c-0.03,0.43-0.04,0.91-0.09,1.39c-0.18,1.68-0.19,3.36-0.06,5.05c0.06,0.82,0.26,1.58,0.44,2.36
				c0.26,1.1,0.73,2.11,1.25,3.09c0.14,0.27,0.26,0.54,0.39,0.82c-0.03,0.02-0.07,0.04-0.1,0.06c-0.06-0.09-0.12-0.17-0.17-0.26
				C7.66,27,7.4,26.6,7.17,26.19c-0.12-0.22-0.2-0.46-0.28-0.71c-0.36-1.17-0.71-2.33-1.07-3.55c0.39,2.06,0.83,4.05,2.12,5.68
				c-0.08,0.08-0.1,0.11-0.11,0.11c-0.56-0.02-1.11-0.03-1.67-0.07c-0.21-0.02-0.43-0.08-0.4-0.42C5.82,27.24,5.89,27.25,6.06,27.28
				z M6.67,26.95c-0.48-0.44-0.59-1.08-0.92-1.69c0.11,1,0.55,1.68,1.32,2.15c-0.13-0.28-0.27-0.56-0.4-0.84
				c-0.02,0-0.03,0.01-0.05,0.02C6.64,26.71,6.66,26.83,6.67,26.95z M5.72,22.52C5.65,23.1,5.91,24.2,6.2,24.58
				C6.03,23.88,5.88,23.22,5.72,22.52z"/>
			<path fill-rule="evenodd" clip-rule="evenodd" fill="none" d="M24.94,19.84c0.1-0.01,0.2-0.02,0.38-0.03
				c-0.14,0.18-0.24,0.31-0.37,0.47c0.21-0.1,0.39-0.19,0.57-0.28c0.12-0.42,0.03-0.79-0.48-0.97c0.03-0.03,0.06-0.06,0.1-0.09
				c0.17,0.04,0.33,0.09,0.5,0.13c0.01-0.02,0.02-0.03,0.02-0.04c-0.2-0.13-0.39-0.25-0.59-0.38c0-0.03,0.01-0.05,0.01-0.08
				c0.23,0.05,0.46,0.1,0.68,0.15c0.01-0.02,0.01-0.03,0.02-0.05c-0.22-0.09-0.45-0.18-0.67-0.28c0.01-0.04,0.01-0.08,0.02-0.11
				c0.24,0.04,0.48,0.07,0.75,0.12c-0.04-0.06-0.08-0.12-0.13-0.2c0.5-0.34,0.92,0.09,1.44,0.15c-0.19-0.12-0.32-0.21-0.46-0.3
				c0-0.02,0.01-0.03,0.01-0.05c0.13,0.02,0.29,0,0.38,0.07c0.43,0.35,0.94,0.32,1.43,0.38c0.14,0.02,0.29,0.02,0.41,0.08
				c0.18,0.08,0.46,0.2,0.47,0.33c0.03,0.22-0.07,0.49-0.2,0.68c-0.78,1.17-1.97,1.66-3.21,2.08c-0.34,0.12-0.69,0.28-1.03,0.29
				c-0.42,0.02-0.86-0.07-1.28-0.14c-0.48-0.08-0.96-0.2-1.44-0.28c-0.18-0.03-0.37,0-0.56,0c0-0.03,0-0.07,0-0.1
				c0.45,0,0.92-0.07,1.36,0.02c0.54,0.11,0.88-0.2,1.26-0.49c0.05-0.04,0.1-0.07,0.11-0.17c-0.28,0.14-0.56,0.28-0.84,0.42
				c-0.02-0.04-0.04-0.07-0.06-0.11c0.19-0.14,0.39-0.27,0.58-0.42c0.15-0.12,0.28-0.27,0.42-0.4
				C24.66,20.09,24.8,19.96,24.94,19.84z M25.48,20.61c-0.42,0.36-0.84,0.73-1.26,1.09c0.02,0.03,0.04,0.06,0.07,0.08
				C24.76,21.48,25.15,21.08,25.48,20.61z M23.75,21.52c0.19,0.12,0.94-0.33,1.1-0.71C24.47,21.05,24.1,21.29,23.75,21.52z"/>
			<path fill-rule="evenodd" clip-rule="evenodd" fill="none" d="M22.62,27.35c0.09-0.21,0.25-0.41,0.26-0.62
				c0.02-0.39,0.24-0.67,0.46-0.91c0.1-0.11,0.35-0.1,0.53-0.08c0.68,0.06,1.31-0.16,1.95-0.35c0.06-0.02,0.11-0.02,0.16-0.03
				c0.35,0.67,0.27,1.19-0.24,1.74c-0.19,0.2-0.34,0.43-0.57,0.71c0.16-0.04,0.23-0.06,0.31-0.07c-0.09,0.5-0.82,1.21-1.21,1.18
				c0.3-0.25,0.61-0.51,0.92-0.77c-0.02-0.03-0.05-0.06-0.07-0.09c-0.2,0.16-0.39,0.32-0.54,0.43c-0.14-0.07-0.26-0.19-0.35-0.17
				c-0.64,0.15-1.16-0.31-1.76-0.34c-0.03,0-0.09-0.15-0.07-0.21c0.06-0.16,0.16-0.3,0.23-0.44L22.62,27.35z"/>
			<path fill-rule="evenodd" clip-rule="evenodd" fill="none" d="M24.94,19.84c-0.14,0.12-0.28,0.25-0.42,0.37
				c-0.45,0.27-0.9,0.54-1.36,0.81c0.03-0.36,0.07-0.75,0.1-1.09c-0.24,0.09-0.43,0.17-0.6,0.23c0.15,0.04,0.33,0.09,0.58,0.16
				c-0.26,0.22-0.12,0.67-0.54,0.7l0.01,0.01c0.01-0.08,0.02-0.16,0.04-0.29c-0.6-0.07-1.21-0.14-1.81-0.21
				c0,0.03-0.01,0.05-0.01,0.07c0.47,0.06,0.95,0.13,1.42,0.2c-0.01,0.05-0.01,0.1-0.02,0.16c-0.46-0.07-0.93-0.13-1.39-0.22
				c-0.09-0.02-0.15-0.17-0.23-0.25c0.1-0.05,0.2-0.1,0.3-0.14c0.05-0.02,0.1-0.02,0.16-0.08c-0.18-0.05-0.35-0.09-0.53-0.14
				c0.01-0.04,0.01-0.08,0.02-0.13c0.18,0.02,0.36,0.03,0.54,0.04c0-0.02,0.01-0.05,0.02-0.07c-0.11-0.04-0.22-0.07-0.33-0.12
				c-0.04-0.02-0.05-0.09-0.08-0.13c0.04-0.01,0.09-0.02,0.13-0.04c0.15-0.1,0.3-0.21,0.42-0.35c0.32-0.1,0.65-0.12,0.96,0.13
				c0.15,0.12,0.42,0.28,0.59-0.15c-0.39-0.09-0.77-0.18-1.17-0.28c0.06-0.1,0.13-0.22,0.21-0.35c-1.11-0.01-1.25,0.95-1.58,1.72
				c-0.12-0.45,0.13-0.81,0.32-1.26c-0.14,0.12-0.23,0.19-0.31,0.26c-0.01-0.01-0.02-0.02-0.03-0.03c0.18-0.19,0.33-0.44,0.55-0.57
				c0.56-0.33,1.19-0.4,1.82-0.28c0.35,0.07,0.69,0.16,1.03,0.26c0.08,0.02,0.14,0.11,0.19,0.15c0.24,0.07,0.49,0.13,0.74,0.2
				c0,0.04,0.01,0.08,0.01,0.12c-0.24,0.15-0.47,0.29-0.71,0.44c0.01,0.02,0.02,0.05,0.02,0.07c0.25-0.12,0.49-0.24,0.73-0.37
				c0.02,0.04,0.04,0.08,0.05,0.12c-0.26,0.21-0.53,0.42-0.79,0.63c0.01,0.02,0.03,0.05,0.05,0.07c0.3-0.22,0.6-0.44,0.93-0.69
				C24.96,19.62,24.95,19.73,24.94,19.84z M24.34,19.23c-0.02-0.04-0.04-0.07-0.05-0.11c-0.33,0.17-0.66,0.35-0.99,0.52
				c0.01,0.03,0.03,0.06,0.04,0.09C23.67,19.56,24,19.4,24.34,19.23z"/>
			<path fill-rule="evenodd" clip-rule="evenodd" fill="none" d="M0.69,16.24c0,0.29-0.02,0.58,0,0.86
				c0.08,1.12,0.18,2.24,0.27,3.36c0.07,0.8,0.16,1.6,0.22,2.41c0.06,0.86,0.12,1.73,0.14,2.59c0.01,0.36-0.05,0.72-0.08,1.07
				c-0.04,0.01-0.08,0.02-0.12,0.02c-0.05-0.19-0.12-0.39-0.15-0.58c-0.17-1.05-0.32-2.11-0.51-3.17c-0.22-1.24-0.34-2.49-0.26-3.75
				c0.05-0.85,0.17-1.7,0.27-2.54c0.01-0.1,0.07-0.19,0.11-0.29C0.62,16.23,0.65,16.24,0.69,16.24z"/>
			<path fill-rule="evenodd" clip-rule="evenodd" fill="none" d="M4.14,24.48c0.18,0.35,0.4,0.68,0.52,1.04
				c0.12,0.36,0.14,0.76,0.17,1.14c0.01,0.09-0.09,0.18-0.15,0.28c0.08,0.18,0.17,0.38,0.26,0.57c-0.03,0.02-0.06,0.04-0.09,0.07
				c-0.12-0.1-0.24-0.19-0.36-0.29l0.01,0.01c-0.3-0.4-0.62-0.79-0.91-1.2c-0.58-0.79-1.16-1.59-1.73-2.39
				c-0.07-0.1-0.08-0.26-0.12-0.39c0.03-0.02,0.06-0.04,0.09-0.05c0.53,0.7,1.06,1.4,1.58,2.1c0.03-0.02,0.05-0.04,0.08-0.06
				c-0.63-0.92-1.37-1.77-1.78-2.83c0.03-0.02,0.06-0.04,0.09-0.06c0.88,1.15,1.75,2.29,2.63,3.44c0.04-0.03,0.09-0.07,0.13-0.1
				c-0.06-0.08-0.13-0.16-0.19-0.24c-0.74-0.99-1.48-1.97-2.21-2.97c-0.19-0.26-0.29-0.58-0.43-0.87c0.03-0.01,0.05-0.02,0.08-0.04
				c0.63,0.78,1.26,1.55,1.89,2.33C3.86,24.13,4,24.31,4.14,24.48z"/>
			<path fill-rule="evenodd" clip-rule="evenodd" fill="none" d="M6.98,21.15c0.32-0.47,0.64-0.95,0.97-1.42
				c-0.02-0.02-0.05-0.04-0.07-0.06c-0.21,0.28-0.43,0.56-0.63,0.85c-0.21,0.3-0.4,0.61-0.6,0.91c-0.05-0.03-0.09-0.07-0.14-0.1
				c0.14-0.22,0.28-0.44,0.43-0.65c0.7-0.98,1.2-2.08,1.68-3.19c0.3-0.67,0.66-1.31,1-1.97c0.3-0.59,0.56-1.2,0.91-1.76
				c0.21-0.35,0.54-0.63,0.85-0.92c-0.25,0.55-0.71,0.97-0.85,1.57c0.49-0.68,0.79-1.52,1.62-1.86c-1.02,1.08-1.55,2.46-2.19,3.77
				c-0.68,1.4-1.27,2.86-2.23,4.1c-0.21,0.27-0.44,0.52-0.66,0.78C7.05,21.18,7.02,21.17,6.98,21.15z M8.02,19.45
				c0.04,0.02,0.07,0.04,0.11,0.06c0.78-1.62,1.56-3.23,2.34-4.85c-0.04-0.02-0.09-0.05-0.13-0.07C9.57,16.2,8.8,17.83,8.02,19.45z"
				/>
			<path fill-rule="evenodd" clip-rule="evenodd" fill="none" d="M9.58,13.78c0.09-0.07,0.17-0.16,0.26-0.22
				c0.18-0.11,0.38-0.19,0.57-0.29c0.13-0.06,0.25-0.13,0.44-0.23c-0.26,0.39-0.51,0.71-0.7,1.07c-0.34,0.65-0.66,1.31-0.97,1.97
				c-0.54,1.14-1.04,2.3-1.61,3.41c-0.28,0.55-0.7,1.03-1.05,1.54C6.48,21.02,6.46,21,6.43,20.98c0.08-0.18,0.16-0.36,0.25-0.54
				c-0.03,0-0.07-0.01-0.1-0.02c0-0.15-0.05-0.32,0.01-0.43c0.68-1.45,1.38-2.9,2.08-4.34c0.31-0.63,0.63-1.26,0.94-1.89L9.58,13.78
				z M8.38,17.03c0.62-1.21,1.24-2.4,1.87-3.62C9.55,14.15,8.27,16.6,8.38,17.03z M6.97,19.86c0.04,0.02,0.08,0.05,0.12,0.07
				c0.41-0.91,0.83-1.83,1.24-2.74c-0.03-0.01-0.06-0.03-0.09-0.04C7.81,18.05,7.39,18.95,6.97,19.86z"/>
			<path fill-rule="evenodd" clip-rule="evenodd" fill="none" d="M31.18,17.66c-0.22-0.16-0.37-0.27-0.52-0.38
				c-0.02,0.02-0.03,0.05-0.05,0.07c0.09,0.07,0.18,0.14,0.33,0.26c-0.67-0.01-1.11-0.37-1.58-0.64c0.09,0.02,0.19,0.03,0.28,0.05
				c0-0.02,0.01-0.03,0.01-0.05c-0.16-0.08-0.31-0.16-0.47-0.23c-0.19-0.08-0.38-0.16-0.33-0.43c0.05-0.3,0.21-0.53,0.52-0.53
				c0.28-0.01,0.56,0.03,0.83,0.09c0.46,0.12,0.91,0.27,1.37,0.42c0.25,0.08,0.33,0.23,0.25,0.5
				C31.69,17.22,31.48,17.55,31.18,17.66z"/>
			<path fill-rule="evenodd" clip-rule="evenodd" fill="none" d="M22.63,27.34c-0.19,0.15-0.36,0.36-0.58,0.45
				c-0.24,0.09-0.52,0.09-0.78,0.08c-0.68-0.02-1.27-0.33-1.86-0.66c-0.06-0.03-0.12-0.07-0.13-0.17c0.42,0.17,0.84,0.34,1.21,0.49
				c0.16-0.17,0.25-0.3,0.38-0.4c0.33-0.24,0.47-0.71,0.35-1.17c-0.1-0.37-0.1-0.37,0.33-0.6c-0.05,0.15-0.08,0.25-0.12,0.38
				c0.07-0.03,0.13-0.05,0.21-0.09c0,0.09,0,0.18,0,0.33c0.13-0.17,0.21-0.29,0.33-0.46c0.05,0.13,0.07,0.21,0.1,0.29
				c0.19-0.09,0.39-0.18,0.65-0.31c-0.03,0.21-0.05,0.4-0.08,0.58c0.13-0.12,0.27-0.24,0.41-0.37c0.02,0.02,0.05,0.04,0.07,0.06
				c-0.23,0.4-0.46,0.81-0.69,1.21c0.02,0.02,0.04,0.04,0.06,0.06c0.07-0.07,0.15-0.13,0.28-0.25c-0.07,0.23-0.11,0.39-0.16,0.55
				C22.62,27.35,22.63,27.34,22.63,27.34z M22.03,26.06c-0.03-0.02-0.05-0.03-0.08-0.05c-0.32,0.51-0.64,1.03-0.95,1.54
				c0.04,0.02,0.07,0.04,0.11,0.07C21.42,27.09,21.72,26.58,22.03,26.06z M21.42,27.6c0.03,0.01,0.05,0.03,0.08,0.04
				c0.19-0.37,0.37-0.75,0.56-1.12c-0.02-0.01-0.05-0.02-0.07-0.04C21.79,26.86,21.61,27.23,21.42,27.6z"/>
			<path fill-rule="evenodd" clip-rule="evenodd" fill="none" d="M4.5,27.29c0.14,0.23,0.28,0.47,0.41,0.71
				c0.06,0.11,0.1,0.23,0.09,0.39c-0.19-0.22-0.38-0.45-0.57-0.67c-0.02,0.02-0.05,0.04-0.07,0.07c0.28,0.35,0.57,0.71,0.87,1.08
				c-0.65-0.01-3.46-3.42-3.35-4.07c0.19,0.26,0.35,0.48,0.52,0.71c0.01-0.01,0.02-0.01,0.04-0.02c-0.23-0.46-0.46-0.92-0.68-1.38
				c0.04-0.02,0.07-0.04,0.11-0.07c0.27,0.37,0.53,0.75,0.81,1.12c0.37,0.48,0.76,0.96,1.15,1.43c0.21,0.25,0.46,0.48,0.69,0.72
				C4.51,27.31,4.5,27.29,4.5,27.29z"/>
			<path fill-rule="evenodd" clip-rule="evenodd" fill="none" d="M20.98,26.21c-0.09-0.04-0.18-0.08-0.33-0.14
				c0.33,0.32,0.34,0.79,0.02,0.9c-0.21,0.07-0.49-0.06-0.74-0.13c-0.09-0.03-0.17-0.12-0.32-0.23c0.35,0.1,0.62,0.18,0.89,0.26
				c0.02-0.05,0.03-0.1,0.05-0.15c-0.39-0.16-0.78-0.31-1.18-0.47c-0.13-0.05-0.27-0.08-0.39-0.14c-0.09-0.05-0.23-0.14-0.22-0.2
				c0.02-0.11,0.12-0.21,0.21-0.37c-0.01-0.01-0.06-0.08-0.14-0.18c0.16,0.02,0.27,0.04,0.42,0.06c-0.04-0.1-0.06-0.17-0.09-0.25
				c0.27-0.21,0.52-0.05,0.77,0.04c0.23,0.09,0.49,0.16,0.67,0.32c0.19,0.16,0.3,0.42,0.45,0.63C21.03,26.18,21,26.2,20.98,26.21z"
				/>
			<path fill-rule="evenodd" clip-rule="evenodd" fill="none" d="M4.14,24.48C4,24.31,3.86,24.13,3.72,23.96
				c-0.18-0.28-0.37-0.55-0.55-0.83c-0.43-0.66-0.86-1.31-1.28-1.98c-0.06-0.09-0.06-0.22-0.11-0.42C1.92,20.8,2,20.82,2.03,20.87
				c0.48,0.68,0.95,1.37,1.43,2.05c0.29,0.41,0.6,0.81,0.88,1.22c0.09,0.13,0.1,0.32,0.15,0.49c-0.03,0.01-0.05,0.03-0.08,0.04
				C4.32,24.61,4.23,24.54,4.14,24.48z"/>
			<path fill-rule="evenodd" clip-rule="evenodd" fill="none" d="M18.59,28.25c-0.31,0.29-0.62,0.6-0.94,0.88
				c-0.17,0.15-0.38,0.25-0.57,0.37c-0.02-0.03-0.04-0.06-0.05-0.09c0.23-0.2,0.47-0.4,0.71-0.61c-0.02-0.02-0.04-0.04-0.06-0.07
				c-0.37,0.24-0.74,0.48-1.12,0.72c-0.03-0.03-0.05-0.07-0.08-0.1c0.93-0.54,1.58-1.35,2.01-2.36c0.14,0.45-0.21,0.71-0.3,1.08
				c0.42-0.05,0.36-0.56,0.66-0.75c0.23,0.38-0.18,0.58-0.19,0.86C18.64,28.21,18.61,28.22,18.59,28.25z"/>
			<path fill-rule="evenodd" clip-rule="evenodd" fill="none" d="M8.09,14.81c0.27-0.32,0.53-0.63,0.79-0.94
				c-0.89,1.84-1.78,3.7-2.67,5.55c-0.02,0-0.03,0-0.05,0c0.07-0.26,0.1-0.54,0.21-0.78c0.38-0.85,0.78-1.68,1.17-2.52
				c0.2-0.44,0.38-0.88,0.57-1.33L8.09,14.81z"/>
			<path fill-rule="evenodd" clip-rule="evenodd" fill="none" d="M19.47,27.76c0.16,0.13,0.35,0.3,0.55,0.46
				c-0.67,0.97-1.07,1.37-1.46,1.44c0.25-0.3,0.51-0.6,0.76-0.9c-0.45,0.19-0.66,0.72-1.16,0.81
				C18.59,28.97,19.02,28.38,19.47,27.76z"/>
			<path fill-rule="evenodd" clip-rule="evenodd" fill="none" d="M20.16,29.38c-0.19,0.1-0.31,0.16-0.44,0.23
				c-0.01-0.02-0.03-0.03-0.04-0.04c0.15-0.22,0.3-0.44,0.46-0.66c-0.01-0.01-0.02-0.03-0.03-0.04c-0.27,0.26-0.53,0.51-0.8,0.77
				c-0.03-0.03-0.05-0.05-0.08-0.08c0.32-0.46,0.63-0.92,0.93-1.35c0.13,0.17,0.26,0.32,0.38,0.48c0.12,0.16-0.02,1.02-0.19,1.09
				c-0.09,0.04-0.21,0.01-0.36,0.01C20.05,29.65,20.09,29.55,20.16,29.38z"/>
			<path fill-rule="evenodd" clip-rule="evenodd" fill="none" d="M8.1,14.8c-0.22,0.35-0.47,0.69-0.64,1.06
				c-0.4,0.84-0.77,1.71-1.16,2.56c-0.01,0.03-0.05,0.04-0.17,0.02c0.07-0.21,0.11-0.44,0.2-0.64c0.27-0.6,0.53-1.21,0.83-1.8
				c0.32-0.61,0.68-1.2,1.02-1.8c0.04,0.02,0.08,0.04,0.12,0.06c-0.07,0.18-0.14,0.36-0.21,0.54L8.1,14.8z"/>
			<path fill-rule="evenodd" clip-rule="evenodd" fill="none" d="M21.8,28.72c-0.06,0.14-0.12,0.29-0.17,0.44
				c0.01,0.01,0.02,0.02,0.04,0.02c0.17-0.18,0.35-0.36,0.52-0.54c0.02,0.02,0.05,0.04,0.07,0.07c-0.05,0.13-0.09,0.25-0.18,0.48
				c0.22-0.16,0.34-0.26,0.47-0.36c0.03,0.03,0.06,0.05,0.08,0.08c-0.2,0.25-0.41,0.5-0.61,0.75c-0.04-0.03-0.08-0.06-0.11-0.08
				c0.06-0.11,0.11-0.23,0.21-0.44c-0.37,0.26-0.57,0.79-1.07,0.42c0.2-0.29,0.43-0.6,0.65-0.9C21.73,28.67,21.76,28.7,21.8,28.72z"
				/>
			<path fill-rule="evenodd" clip-rule="evenodd" fill="none" d="M7.73,14.59c-0.51,1.02-0.99,1.99-1.47,2.95
				C6.17,17.07,7.2,14.95,7.73,14.59z"/>
			<path fill-rule="evenodd" clip-rule="evenodd" fill="none" d="M18.59,28.25c0.02-0.02,0.05-0.04,0.07-0.06
				c0.16-0.23,0.33-0.45,0.5-0.68c0.21,0.53-0.43,1.29-1.14,1.66C18.24,28.8,18.41,28.53,18.59,28.25z"/>
			<path fill-rule="evenodd" clip-rule="evenodd" fill="none" d="M18.93,20.07c0.13-0.33,0.26-0.66,0.42-1.07
				c0.08,0.16,0.11,0.21,0.16,0.32c0.12-0.36,0.23-0.67,0.33-0.97C20.03,18.7,19.49,19.9,18.93,20.07z"/>
			<path fill-rule="evenodd" clip-rule="evenodd" fill="none" d="M19.12,24.78c-0.19,0.21-0.44,0.37-0.55,0.61
				c-0.11,0.25-0.06,0.56-0.09,0.84c-0.24-0.33-0.26-0.77-0.06-1.18C18.58,24.74,18.84,24.77,19.12,24.78z"/>
			<path fill-rule="evenodd" clip-rule="evenodd" fill="none" d="M26.24,17.75c-0.25,0.05-0.51,0.07-0.74,0.17
				c-0.25,0.12-0.47,0.31-0.73,0.49C24.89,17.84,25.42,17.58,26.24,17.75z"/>
			<path fill-rule="evenodd" clip-rule="evenodd" fill="none" d="M6.49,15.41c0.04-0.5,0.4-0.44,0.71-0.46
				c-0.18,0.29-0.37,0.6-0.56,0.91c-0.03-0.01-0.05-0.03-0.08-0.04c0.1-0.22,0.2-0.44,0.29-0.67c-0.02-0.02-0.03-0.03-0.05-0.05
				C6.71,15.2,6.61,15.29,6.49,15.41z"/>
			<path fill-rule="evenodd" clip-rule="evenodd" fill="none" d="M20.77,29.37c0.22-0.3,0.43-0.6,0.67-0.93
				C21.5,28.85,21.22,29.27,20.77,29.37z"/>
			<path fill-rule="evenodd" clip-rule="evenodd" fill="none" d="M23.8,28.78c-0.26,0.24-0.51,0.48-0.77,0.74
				C22.99,29.2,23.29,28.92,23.8,28.78z"/>
		</g>
	</g>
	<path fill-rule="evenodd" clip-rule="evenodd" d="M8.02,19.45c0.77-1.62,1.54-3.24,2.31-4.87c0.05,0.02,0.09,0.05,0.13,0.07
		c-0.78,1.62-1.56,3.24-2.34,4.85C8.1,19.49,8.06,19.47,8.02,19.45z"/>
	<path fill-rule="evenodd" clip-rule="evenodd" fill="#202020" d="M8.38,17.03c-0.11-0.44,1.17-2.89,1.87-3.62
		C9.62,14.63,9.01,15.82,8.38,17.03z"/>
	<path fill-rule="evenodd" clip-rule="evenodd" d="M6.97,19.86c0.42-0.91,0.85-1.81,1.27-2.72c0.03,0.01,0.06,0.03,0.09,0.04
		c-0.41,0.91-0.82,1.83-1.24,2.74C7.04,19.9,7.01,19.88,6.97,19.86z"/>
	<path fill-rule="evenodd" clip-rule="evenodd" d="M22.03,26.06c-0.31,0.52-0.61,1.04-0.92,1.56c-0.04-0.02-0.07-0.05-0.11-0.07
		c0.32-0.51,0.64-1.03,0.95-1.54C21.98,26.02,22.01,26.04,22.03,26.06z"/>
	<path fill-rule="evenodd" clip-rule="evenodd" d="M21.42,27.6c0.19-0.37,0.38-0.74,0.57-1.11c0.02,0.01,0.05,0.02,0.07,0.04
		c-0.19,0.37-0.37,0.75-0.56,1.12C21.47,27.63,21.44,27.62,21.42,27.6z"/>
</g>
</svg>
