<?xml version="1.0" encoding="utf-8"?>
<!-- Generator: Adobe Illustrator 16.0.0, SVG Export Plug-In . SVG Version: 6.00 Build 0)  -->
<!DOCTYPE svg PUBLIC "-//W3C//DTD SVG 1.1//EN" "http://www.w3.org/Graphics/SVG/1.1/DTD/svg11.dtd">
<svg version="1.1" id="Layer_1" xmlns="http://www.w3.org/2000/svg" xmlns:xlink="http://www.w3.org/1999/xlink" x="0px" y="0px"
	 width="100px" height="100px" viewBox="0 0 100 100" enable-background="new 0 0 100 100" xml:space="preserve">
<path fill-rule="evenodd" clip-rule="evenodd" fill="#202020" d="M91.379,22.521c0,0-0.547,0.063-0.535,0.104
	c-0.459,0.145-0.912,0.306-1.377,0.43C86.386,23.88,7.419,45.868,5.694,46.304c-0.236,0.06-0.657-0.169-0.832-0.391
	c-0.66-0.831-1.402-1.46-2.517-1.543c-0.551-0.041-1.021,0.122-1.205,0.62C0.768,46,0.463,47.037,0.179,48.077
	c-0.118,0.434-0.111,0.901-0.162,1.354c-0.042-0.003,0.005,2.85,0.005,2.85c0.048,0.498,0.081,0.998,0.148,1.493
	c0.198,1.445,0.427,2.883,1.296,4.118c0.59,0.84,1.453,1.062,2.275,0.482c0.501-0.353,0.95-0.806,1.341-1.28
	c0.315-0.384,0.623-0.573,1.122-0.48c1.546,0.288,28.141,4.887,29.189,5.068c1.029,0.178,1.116,0.29,0.941,1.327
	c-0.312,1.847-0.657,3.687-0.96,5.534c-0.219,1.337-0.283,2.675,0.204,3.98c0.194,0.519,0.471,0.902,1.066,1.062
	c2.702,0.725,5.372,1.586,8.097,2.208c2.681,0.612,5.413,0.997,8.124,1.479c0.238,0.042,0.481,0.061,0.722,0.091l3.26,0.116
	c1.174-0.323,1.996-1.096,2.383-2.164c0.421-1.157,0.602-2.412,0.795-3.639c0.254-1.62,0.428-3.254,0.613-4.885
	c0.049-0.419,0.242-0.573,0.637-0.521c1.009,0.135,2.021,0.251,3.025,0.414c2.556,0.416,25.111,4.273,27.355,4.73
	c2.479,0.506,2.451,0.554,3.499-1.732c1.665-3.629,2.962-7.385,3.794-11.286c0.375-1.762,0.54-3.568,0.797-5.354
	c0.039-0.27,0.057-0.542,0.217-0.808l0.037-7.25C99.163,36.749,96.271,29.308,91.379,22.521z M54.729,71.289
	c-0.093,0.497-0.405,0.842-0.893,0.822c-0.531-0.021-1.632-0.059-1.642,0c-2.047-0.344-4.101-0.658-6.141-1.04
	c-1.063-0.199-2.111-0.491-3.151-0.791c-0.593-0.171-1.182-0.396-1.723-0.689c-0.2-0.108-0.379-0.495-0.355-0.732
	c0.13-1.306,0.308-2.607,0.509-3.903c0.081-0.521,0.281-1.022,0.396-1.539c0.089-0.396,0.31-0.54,0.697-0.48
	c1.003,0.156,2.009,0.302,3.012,0.467c3.214,0.531,6.428,1.075,9.643,1.599c0.404,0.065,0.779,0.134,0.688,0.646
	C55.436,67.53,55.082,69.41,54.729,71.289z M86.514,64.227c-0.466-0.598-0.898-1.221-1.353-1.834
	c-0.408-0.641-0.792-1.301-1.191-1.955c-0.364-0.672-0.682-1.369-1.025-2.055c-0.294-0.709-0.59-1.418-0.859-2.141l-0.68-2.207
	c-0.183-0.748-0.341-1.502-0.505-2.256l-0.324-2.289l-0.007-0.041l0.001-0.076c0.003-0.89,0.025-1.779,0.037-2.669
	c0.02-0.89,0.018-1.779,0.062-2.669l0.135-0.482c-0.003-0.004-0.006-0.008-0.007-0.012c-0.002-0.016,0.006-0.027,0.02-0.033
	l-0.013,0.045c0.002,0.003,0.002,0.006,0.005,0.009l0.02-0.1l0.033-0.17l0.034-0.209l0.14-0.838
	c0.094-0.559,0.176-1.117,0.311-1.656l0.183-0.818l0.093-0.41l0.13-0.441c0.166-0.547,0.328-1.094,0.511-1.633
	c0.196-0.535,0.413-1.063,0.618-1.592c0.106-0.264,0.201-0.529,0.333-0.783l0.373-0.771c0.248-0.512,0.488-1.023,0.783-1.502
	c0.278-0.488,0.572-0.969,0.871-1.447c-0.14,0.547-0.287,1.09-0.448,1.629c-0.171,0.537-0.279,1.086-0.427,1.617l-0.207,0.801
	c-0.075,0.264-0.113,0.543-0.18,0.809c-0.118,0.539-0.246,1.074-0.354,1.613c-0.083,0.543-0.187,1.08-0.285,1.617l-0.068,0.371
	l-0.046,0.418l-0.09,0.832c-0.063,0.559-0.131,1.107-0.177,1.654l-0.079,0.824c-0.03,0.199-0.015,0.423-0.146,0.814
	c0.027,0.842,0.021,1.683,0.03,2.525c0.003,0.865,0.015,1.73,0.011,2.596l0.266,2.109c0.125,0.712,0.27,1.421,0.38,2.138
	l0.497,2.117c0.222,0.689,0.41,1.393,0.613,2.094c0.242,0.688,0.498,1.369,0.729,2.066l0.834,2.045l0.926,2.023
	c0.342,0.662,0.681,1.328,1.001,2.018C87.506,65.373,87.008,64.803,86.514,64.227z"/>
</svg>
