<?xml version="1.0" encoding="utf-8"?>
<!-- Generator: Adobe Illustrator 16.0.0, SVG Export Plug-In . SVG Version: 6.00 Build 0)  -->
<!DOCTYPE svg PUBLIC "-//W3C//DTD SVG 1.1//EN" "http://www.w3.org/Graphics/SVG/1.1/DTD/svg11.dtd">
<svg version="1.1" id="Layer_1" xmlns="http://www.w3.org/2000/svg" xmlns:xlink="http://www.w3.org/1999/xlink" x="0px" y="0px"
	 width="100px" height="100px" viewBox="0 0 100 100" enable-background="new 0 0 100 100" xml:space="preserve">
<path fill-rule="evenodd" clip-rule="evenodd" d="M1.308,27.613c2.066-5.368,5.932-9.152,10.786-12.023
	c5.678-3.359,11.905-5.162,18.352-6.247c9.595-1.614,19.252-1.898,28.951-1.191c6.903,0.503,13.712,1.494,20.286,3.739
	c5.143,1.756,9.926,4.159,13.851,8.022c3.484,3.43,5.689,7.518,6.28,12.418c0.025,0.21,0.123,0.411,0.187,0.616
	c0,1.446,0,2.893,0,4.34c-0.419,2.947-1.131,5.813-2.563,8.443c-0.687,1.263-1.413,2.538-2.331,3.632
	c-1.712,2.039-3.951,2.773-6.524,1.895c-1.252-0.428-2.499-0.981-3.608-1.696c-3.037-1.955-5.997-4.029-8.992-6.05
	c-2.827-1.906-3.778-4.421-2.857-7.693c0.391-1.391,0.792-2.783,1.288-4.139c0.39-1.065,0.316-2.069-0.45-2.822
	c-0.83-0.815-1.765-1.814-2.813-2.064c-4.981-1.185-9.984-2.364-15.042-3.125c-6.823-1.026-13.631-0.341-20.344,1.156
	c-2.251,0.501-4.486,1.119-6.675,1.845c-0.922,0.306-1.787,0.934-2.537,1.579c-1.13,0.972-1.522,2.2-0.935,3.701
	c0.473,1.208,0.804,2.473,1.165,3.722c0.988,3.419,0.069,5.909-2.858,7.876c-2.938,1.975-5.849,3.992-8.808,5.936
	c-0.929,0.61-1.941,1.127-2.976,1.534c-3.213,1.268-5.8,0.569-7.822-2.247c-2.243-3.125-3.666-6.62-4.154-10.464
	C0.149,38.199-0.62,32.621,1.308,27.613z"/>
<g>
	<path fill-rule="evenodd" clip-rule="evenodd" d="M37.356,66.822c1.252-0.011,2.261-1.078,2.255-2.388
		c-0.004-1.319-1.003-2.326-2.299-2.316c-1.26,0.008-2.326,1.097-2.309,2.354C35.021,65.704,36.15,66.832,37.356,66.822z"/>
	<path fill-rule="evenodd" clip-rule="evenodd" d="M39.604,70.562c0-1.337-0.973-2.329-2.278-2.327
		c-1.261,0.002-2.334,1.071-2.334,2.325c0,1.26,1.079,2.344,2.331,2.342C38.613,72.898,39.604,71.883,39.604,70.562z"/>
	<path fill-rule="evenodd" clip-rule="evenodd" d="M40.143,73.69c-1.286-0.024-2.308,0.979-2.33,2.288
		c-0.023,1.346,0.912,2.328,2.234,2.347c1.334,0.019,2.336-0.936,2.363-2.249C42.437,74.801,41.404,73.715,40.143,73.69z"/>
	<path fill-rule="evenodd" clip-rule="evenodd" d="M45.025,57.783c1.248,0.016,2.308-1.017,2.352-2.29
		c0.045-1.266-0.968-2.342-2.236-2.379c-1.326-0.038-2.43,1.017-2.427,2.32C42.717,56.65,43.817,57.769,45.025,57.783z"/>
	<path fill-rule="evenodd" clip-rule="evenodd" d="M40.102,56.712c-1.344,0.009-2.273,0.954-2.268,2.308
		c0.005,1.333,0.98,2.312,2.297,2.303c1.291-0.008,2.314-1.044,2.306-2.332C42.428,57.697,41.41,56.704,40.102,56.712z"/>
	<path fill-rule="evenodd" clip-rule="evenodd" d="M43.162,67.616c0.029,3.76,3.132,6.807,6.889,6.763
		c3.716-0.043,6.814-3.228,6.745-6.933c-0.072-3.767-3.189-6.816-6.911-6.76C46.114,60.744,43.133,63.817,43.162,67.616z"/>
	<path fill-rule="evenodd" clip-rule="evenodd" d="M51.069,56.795c1.327,0.002,2.338-0.977,2.345-2.269
		c0.006-1.243-1.073-2.343-2.314-2.356c-1.277-0.015-2.279,1.002-2.287,2.322C48.805,55.868,49.711,56.794,51.069,56.795z"/>
	<path fill-rule="evenodd" clip-rule="evenodd" d="M45.066,77.276c-1.258-0.02-2.332,0.998-2.372,2.25
		c-0.043,1.317,1.019,2.416,2.332,2.413c1.267-0.003,2.3-1.037,2.312-2.315C47.35,78.349,46.331,77.297,45.066,77.276z"/>
	<path fill-rule="evenodd" clip-rule="evenodd" d="M93.733,67.401c-0.007-1-0.126-2.027-0.378-2.994
		c-0.778-2.99-2.905-4.97-5.378-6.547c-3.135-2-6.39-3.813-9.576-5.733c-5.733-3.454-9.663-7.968-9.716-15.181
		c-0.029-3.905-3.502-6.989-7.383-7.232c-1.16-0.073-1.843,0.531-1.879,1.707c-0.026,0.867,0.007,1.735-0.01,2.603
		c-0.024,1.207-0.76,1.949-1.978,1.952c-4.953,0.011-9.907,0.011-14.861-0.001c-1.201-0.002-1.932-0.756-1.956-1.975
		c-0.016-0.759,0.019-1.519,0.003-2.277c-0.034-1.632-0.75-2.217-2.348-1.938c-4.354,0.757-6.92,3.725-7.034,8.17
		c-0.068,2.659-0.733,5.134-2.161,7.393c-1.908,3.02-4.674,5.092-7.662,6.904c-3.273,1.986-6.64,3.828-9.84,5.925
		c-2.981,1.952-5.203,4.593-5.267,8.378c-0.095,5.53-0.096,11.065-0.001,16.596c0.094,5.517,3.861,9.063,9.384,9.06
		c11.426-0.007,22.852-0.002,34.278-0.002c0,0.001,0,0.002,0,0.003c11.462,0,22.924,0.007,34.387-0.002
		c5.621-0.005,9.359-3.703,9.384-9.295C93.766,77.743,93.769,72.572,93.733,67.401z M65.854,74.415
		c-0.909-0.518-1.811-1.051-2.729-1.549c-0.78-0.423-1.548-1.004-2.384-1.145c-0.631-0.105-1.552,0.185-1.999,0.639
		c-0.659,0.668-0.443,1.612,0.182,2.32c0.314,0.355,0.743,0.625,1.155,0.875c1.279,0.774,2.575,1.521,3.927,2.316
		c-1.841,2.73-4.384,4.453-7.077,6.078c-4.73,1.439-9.431,1.836-13.694-0.056C31.09,78.172,30.557,64.649,35.59,57.536
		c5.404-7.639,15.792-9.865,23.67-4.848C68.063,58.295,68.789,68.866,65.854,74.415z"/>
	<path fill-rule="evenodd" clip-rule="evenodd" d="M56.83,54.123c-1.258,0.013-2.359,1.106-2.354,2.336
		c0.006,1.221,1.121,2.307,2.371,2.312c1.283,0.004,2.317-1.04,2.309-2.329C59.147,55.139,58.117,54.111,56.83,54.123z"/>
	<path fill-rule="evenodd" clip-rule="evenodd" d="M54.453,78.653c0.017,1.25,1.112,2.31,2.376,2.297
		c1.31-0.014,2.3-1.029,2.289-2.347c-0.012-1.304-1.038-2.313-2.339-2.296C55.533,76.323,54.438,77.428,54.453,78.653z"/>
	<path fill-rule="evenodd" clip-rule="evenodd" d="M50.977,78.271c-1.299,0.02-2.339,1.081-2.289,2.339
		c0.049,1.246,1.178,2.322,2.404,2.29c1.223-0.033,2.319-1.191,2.279-2.407C53.327,79.182,52.325,78.252,50.977,78.271z"/>
</g>
</svg>
