<?xml version="1.0" encoding="utf-8"?>
<!-- Generator: Adobe Illustrator 16.0.0, SVG Export Plug-In . SVG Version: 6.00 Build 0)  -->
<!DOCTYPE svg PUBLIC "-//W3C//DTD SVG 1.1//EN" "http://www.w3.org/Graphics/SVG/1.1/DTD/svg11.dtd">
<svg version="1.1" id="Layer_1" xmlns="http://www.w3.org/2000/svg" xmlns:xlink="http://www.w3.org/1999/xlink" x="0px" y="0px"
	 width="100px" height="100px" viewBox="0 0 100 100" enable-background="new 0 0 100 100" xml:space="preserve">
<g>
	<path fill-rule="evenodd" clip-rule="evenodd" fill="#202020" d="M92.657,14.458c-0.562,0.166-1.021,0.302-1.895,0.561
		c2.43,0.576,1.919,2.26,1.961,3.736c0.151,5.308,0.3,10.616,0.489,15.923c0.041,1.152,0.138,2.241-1.342,2.462
		c0.014,0.199-0.015,0.348,0.032,0.378c1.736,1.114,1.318,2.87,1.342,4.489c0.094,6.42,0.184,12.841,0.272,19.262
		c0.008,0.521,0.001,1.043,0.001,1.762c-1.818-0.253-3.484-0.486-5.151-0.718c-0.015,0.079-0.029,0.159-0.044,0.238
		c1.479,0.765,2.982,1.487,4.42,2.322c0.377,0.219,0.781,0.787,0.782,1.196c0.032,8.349,0.14,16.7-0.063,25.044
		c-0.105,4.328-3.562,8.044-7.434,8.715c-3.574,0.619-6.657-1.304-7.854-5.046c1.46,0,2.875-0.095,4.272,0.021
		c2.418,0.198,4.456-0.282,5.53-2.707c1.137-2.567,0.663-5.004-1.192-6.971c-0.814-0.863-2.208-1.611-3.365-1.651
		c-10.71-0.377-21.426-0.59-32.141-0.847c-8.349-0.2-16.699-0.41-25.049-0.571c-1.025-0.021-1.418-0.357-1.261-1.356
		c0.037-0.236,0.024-0.481,0.03-0.723c0.065-2.485,0.065-2.485,2.098-4c-2.423,0.352-2.125-1.205-2.151-2.516
		c-0.097-4.778-0.142-9.559-0.298-14.336c-0.042-1.293,0.244-2.004,1.657-2.034c0.588-0.012,1.171-0.257,1.751-0.719
		c-0.674-0.054-1.348-0.106-2.022-0.16c-0.08-0.274-0.129-0.765-0.241-0.779c-1.373-0.181-1.131-1.194-1.145-2.091
		c-0.111-7.282-0.224-14.564-0.334-21.847c-0.009-0.617-0.001-1.233-0.001-1.968c1.48-0.133,2.851-0.255,4.221-0.378
		c0.018-0.111,0.036-0.223,0.054-0.334c-0.926-0.217-1.842-0.535-2.78-0.623c-1.268-0.119-1.688-0.679-1.66-1.948
		c0.076-3.365,0.026-6.733,0.026-10.293c0.494,0,1.054-0.012,1.613,0.001c18.149,0.416,36.297,0.841,54.447,1.247
		c3.655,0.082,6.181-3.416,4.827-6.651c-0.547-1.308-1.461-2.113-2.986-2.085c-1.863,0.034-3.728,0.008-5.617,0.008
		c0.435-4.613,4.989-7.672,8.967-6.362c3.944,1.299,6.941,5.343,7.227,9.792C92.702,12.714,92.657,13.533,92.657,14.458z"/>
	<path fill-rule="evenodd" clip-rule="evenodd" fill="#202020" d="M79.877,84.219c-4.876,4.495-3.99,11.798,1.083,15.777
		c-0.688,0-1.138,0.01-1.586-0.001c-21.033-0.489-42.063-1.102-63.099-1.408c-7.614-0.111-9.833-8.226-7.617-12.665
		c1.152-2.31,2.981-3.624,5.642-3.552c21.601,0.583,43.202,1.172,64.802,1.761C79.286,84.136,79.47,84.172,79.877,84.219z"/>
	<path fill-rule="evenodd" clip-rule="evenodd" fill="#202020" d="M80.113,1.57c-5.571,4.448-6.293,9.148-2.341,14.742
		c-0.76,0-1.41,0.014-2.061-0.002c-16.313-0.39-32.625-0.792-48.938-1.171c-4.776-0.111-9.559-0.33-14.328-0.176
		c-3.904,0.126-6.06-3.248-6.028-6.343c0.029-2.82,1.128-5.269,3.318-7.12c1.345-1.138,2.943-1.541,4.712-1.498
		C27.866,0.33,41.284,0.622,54.701,0.932c8.107,0.188,16.215,0.387,24.322,0.581C79.297,1.52,79.57,1.541,80.113,1.57z"/>
	<path fill-rule="evenodd" clip-rule="evenodd" fill="#202020" d="M81.446,93.903c-0.579,0-1.157,0.007-1.735-0.001
		c-2.1-0.031-2.146-0.03-2.282-2.096c-0.127-1.929,0.358-3.726,1.513-5.302c1.456-1.986,3.793-2.785,5.694-1.976
		c1.928,0.821,3.342,3.413,3.011,5.615c-0.333,2.217-1.515,4.133-4.467,3.829c-0.572-0.059-1.155-0.009-1.733-0.009
		C81.446,93.944,81.446,93.924,81.446,93.903z"/>
	<path fill-rule="evenodd" clip-rule="evenodd" fill="#202020" d="M76.191,9.337c2.218,0,4.324-0.047,6.426,0.038
		c0.44,0.018,0.962,0.438,1.273,0.816c1.033,1.252,0.812,3.491-0.411,4.943c-1.123,1.336-2.856,1.639-4.434,0.775
		C76.914,14.744,75.792,12.158,76.191,9.337z"/>
</g>
</svg>
