<?xml version="1.0" standalone="no"?>
<!DOCTYPE svg PUBLIC "-//W3C//DTD SVG 20010904//EN"
 "http://www.w3.org/TR/2001/REC-SVG-20010904/DTD/svg10.dtd">
<svg version="1.0" xmlns="http://www.w3.org/2000/svg"
 width="1250.000000pt" height="1250.000000pt" viewBox="0 0 1250.000000 1250.000000"
 preserveAspectRatio="xMidYMid meet">
<metadata>
Created by potrace 1.11, written by Peter Selinger 2001-2013
</metadata>
<g transform="translate(0.000000,1250.000000) scale(0.100000,-0.100000)"
fill="#000000" stroke="none">
<path d="M5080 11348 c-14 -6 -38 -17 -55 -23 -53 -21 -195 -86 -355 -163
-293 -140 -393 -185 -467 -212 l-62 -22 -63 43 c-35 24 -65 47 -68 50 -11 13
-118 78 -154 93 -49 20 -80 20 -142 -1 -54 -18 -210 -97 -235 -119 -8 -8 -19
-14 -23 -14 -12 0 -270 -195 -299 -225 -14 -16 -28 -42 -31 -59 -3 -17 -8 -40
-10 -52 -7 -36 -17 -185 -20 -314 -4 -144 -11 -176 -40 -209 -20 -22 -127
-104 -270 -207 -278 -200 -376 -277 -376 -295 0 -17 199 47 345 110 11 5 63
27 115 49 178 76 268 121 296 147 34 32 116 75 141 75 20 0 105 -78 150 -137
16 -20 51 -79 78 -131 72 -137 120 -163 211 -115 79 42 148 19 208 -69 45 -68
55 -121 51 -299 -2 -141 -6 -177 -29 -259 -32 -116 -73 -276 -80 -310 -31
-175 -33 -186 -40 -255 -18 -157 -23 -347 -12 -440 3 -27 8 -75 11 -105 4 -30
11 -73 16 -95 5 -22 12 -50 15 -63 9 -41 54 -154 83 -209 31 -57 30 -60 -24
-81 -48 -19 -253 -50 -435 -67 -36 -3 -85 -8 -110 -11 -25 -2 -74 -6 -110 -9
-59 -4 -122 -9 -250 -20 -25 -2 -79 -6 -120 -10 -41 -3 -100 -8 -130 -10 -30
-3 -80 -7 -110 -9 -192 -15 -229 -17 -260 -21 -19 -2 -64 -7 -100 -10 -36 -3
-81 -8 -100 -10 -19 -2 -60 -7 -90 -10 -30 -3 -66 -8 -80 -10 -14 -2 -45 -7
-70 -10 -152 -20 -261 -65 -220 -90 37 -23 400 -33 700 -20 203 8 603 29 785
41 121 8 149 10 305 19 74 4 151 8 170 10 19 2 121 7 225 11 185 6 192 6 245
-17 52 -22 97 -50 201 -125 85 -62 155 -88 239 -88 84 -1 138 21 275 109 38
25 93 54 122 65 239 89 463 -45 564 -337 10 -29 16 -53 14 -53 -3 0 0 -12 6
-27 11 -27 14 -148 6 -188 -3 -11 -8 -45 -12 -75 -4 -30 -9 -63 -11 -73 -6
-32 -17 -229 -17 -297 0 -65 10 -220 17 -256 2 -10 7 -39 11 -64 13 -87 57
-246 92 -335 100 -257 145 -446 173 -730 8 -80 5 -650 -4 -735 -3 -25 -7 -81
-10 -125 -7 -99 -10 -115 -32 -160 -35 -73 -107 -116 -224 -130 -87 -12 -105
-16 -153 -42 -90 -50 -136 -133 -143 -262 -4 -63 -1 -82 21 -129 14 -30 25
-60 25 -67 0 -38 -155 -149 -295 -210 -105 -47 -117 -52 -300 -128 -99 -41
-283 -119 -410 -172 -126 -54 -257 -109 -290 -122 -33 -13 -73 -30 -90 -38
-16 -7 -55 -23 -85 -35 -30 -11 -68 -27 -85 -34 -40 -18 -300 -121 -398 -157
-42 -16 -148 -61 -235 -100 -167 -76 -236 -103 -292 -115 -19 -4 -42 -9 -50
-11 -47 -12 -162 -2 -221 17 -67 23 -159 80 -218 136 -39 37 -98 68 -162 87
-74 22 -91 17 -116 -31 -39 -77 -23 -136 86 -322 28 -46 49 -85 48 -86 -1 -1
-137 -38 -302 -83 -574 -155 -609 -159 -1465 -151 -209 2 -260 0 -335 -14 -79
-15 -111 -20 -118 -18 -4 1 -7 -4 -8 -10 -1 -7 -3 -34 -5 -61 -2 -26 -1 -47 4
-48 20 -2 51 -12 217 -69 213 -73 412 -126 515 -137 41 -4 192 -8 335 -8 334
0 394 6 745 80 47 9 164 44 275 80 89 29 207 76 325 128 254 112 277 115 710
106 122 -3 304 6 320 16 3 2 24 6 45 9 211 28 508 139 740 276 87 51 218 136
258 166 14 11 33 25 43 32 11 7 56 38 101 70 184 128 469 300 706 426 100 53
465 236 471 236 2 0 50 22 107 49 133 62 256 117 444 198 83 35 168 72 190 82
22 10 112 51 200 91 171 77 545 254 635 300 30 15 83 40 118 54 34 15 91 39
125 55 34 16 244 108 467 206 223 97 461 202 530 232 69 30 177 78 240 105 63
28 140 62 170 75 30 13 64 28 75 33 11 5 55 25 98 44 44 20 81 36 83 36 2 0
38 16 80 35 41 19 77 35 79 35 2 0 38 16 82 36 43 20 92 42 108 49 156 68 531
239 667 304 59 28 112 51 118 51 5 0 18 4 28 9 9 5 56 27 104 49 48 22 107 59
132 83 45 40 97 133 111 193 6 28 5 28 -27 23 -18 -4 -49 -9 -68 -12 -19 -3
-48 -8 -65 -11 -31 -6 -274 -106 -410 -170 -44 -20 -96 -42 -115 -49 -19 -7
-69 -29 -110 -48 -97 -45 -477 -209 -578 -248 -42 -17 -169 -62 -282 -101
-113 -38 -254 -92 -315 -120 -235 -106 -349 -137 -481 -133 -235 8 -412 128
-655 445 -211 276 -844 1287 -887 1417 -32 95 -24 218 31 513 20 108 38 198
41 215 2 11 12 56 21 100 9 44 19 89 21 100 36 189 60 254 106 286 42 30 91
29 188 -4 70 -24 95 -29 148 -24 35 3 70 11 80 20 48 42 204 100 306 112 93
12 701 1 1126 -21 92 -4 806 -4 1110 0 734 12 1123 18 1290 21 102 2 356 6
565 10 450 8 437 7 559 35 l96 23 -2 32 c-2 30 -6 34 -62 53 -54 19 -75 21
-191 15 -278 -13 -772 -8 -1205 13 -372 19 -853 18 -1035 0 -226 -23 -813 -24
-1185 -1 -55 3 -216 11 -450 20 -69 3 -204 8 -301 10 -97 2 -189 7 -205 11
-87 21 -132 61 -395 354 -140 156 -179 204 -365 450 -472 623 -851 1005 -1302
1307 -51 35 -95 63 -97 63 -1 0 -32 17 -66 39 -89 54 -266 142 -384 191 -164
69 -441 155 -560 173 -79 13 -99 32 -140 132 -37 89 -100 203 -128 233 -12 13
-41 35 -64 49 -24 14 -43 28 -43 32 0 10 192 153 475 354 230 163 355 261 355
277 0 13 -38 12 -70 -2z m5 -3548 c44 -69 94 -146 112 -172 l31 -47 -31 -20
c-51 -31 -119 -58 -180 -71 -166 -34 -296 11 -365 128 -23 41 -27 58 -27 128
0 75 3 87 43 168 24 47 73 124 110 170 l67 84 80 -122 c44 -67 116 -178 160
-246z m1820 82 c24 -26 80 -85 124 -132 81 -84 81 -85 54 -91 -16 -3 -50 -3
-78 -1 -91 6 -145 84 -162 231 -7 62 -4 62 62 -7z m-372 -2624 c30 -49 95
-164 192 -343 67 -124 86 -148 219 -280 139 -138 182 -198 221 -312 19 -55 23
-86 22 -163 -2 -85 -5 -101 -32 -149 -31 -55 -91 -108 -174 -153 -184 -98
-358 -187 -367 -188 -6 0 -12 23 -13 55 -1 30 -3 62 -5 72 -2 10 -7 63 -10
118 -4 55 -9 111 -11 125 -2 14 -7 68 -10 120 -4 52 -8 111 -10 130 -2 19 -6
98 -9 175 -7 156 -13 229 -26 325 -5 36 -12 99 -16 140 -3 41 -8 78 -10 82 -2
3 -7 60 -10 127 -6 108 -2 171 11 171 2 0 19 -24 38 -52z"/>
</g>
</svg>
